<svg xmlns="http://www.w3.org/2000/svg" xmlns:xlink="http://www.w3.org/1999/xlink" version="1.1" style="" xml:space="preserve" width="432" height="433.5087732286886"><rect id="backgroundrect" width="100%" height="100%" x="0" y="0" fill="none" stroke="none" class="" style=""/>
<style type="text/css">
	.st0{fill:#FB503B;}
</style>

<g class="currentLayer" style=""><title>Layer 1</title><path class="st0" d="M430.1339495658874,219.34747619628905 c-2.9,-3.2 -42.3,-52.6 -49.3,-61 c-7,-8.4 -10.3,-6.9 -14.6,-6.2 s-54.2,9 -60,10 c-5.8,1 -9.4,3.3 -5.9,8.3 c3.2,4.4 36,51 43.2,61.2 l-130.5,31.3 L109.43394956588745,89.44747619628907 c-4.1,-6.1 -5,-8.3 -14.4,-7.8 c-9.4,0.4 -81.4,6.4 -86.5,6.8 c-5.1,0.4 -10.8,2.7 -5.6,14.8 c5.1,12.1 86.9,188.3 89.2,193.4 c2.3,5.1 8.2,13.4 22.1,10.1 c14.2,-3.4 63.5,-16.3 90.4,-23.3 c14.2,25.8 43.3,78 48.6,85.5 c7.2,10 12.1,8.3 23.1,5 c8.6,-2.6 134.4,-47.8 140.1,-50.2 c5.7,-2.3 9.2,-4 5.3,-9.7 c-2.8,-4.2 -36,-48.6 -53.4,-71.9 c11.9,-3.2 54.2,-14.4 58.8,-15.7 C432.33394956588745,225.14747619628906 433.0339495658875,222.54747619628904 430.1339495658874,219.34747619628905 zM192.93394956588747,267.84747619628905 c-1.6,0.3000000000000001 -74.6,17.8 -78.5,18.7 c-3.9,0.9 -3.9,0.4 -4.3,-0.9 c-0.4,-1.3 -86.9,-179.6 -88.1,-181.8 c-1.2,-2.2 -1.1,-4 0,-4 c1.1,0 69,-6.1 71.4,-6.2 s2.1,0.4 3,1.9 c0,0 95.7,165.2 97.4,168.1 C195.53394956588744,266.64747619628906 194.53394956588744,267.54747619628904 192.93394956588747,267.84747619628905 zM399.0339495658875,306.4474761962891 c1.2,1.8 2.3,3 -1.3,4.3 c-3.7,1.3 -123.7,41.8 -126,42.8 c-2.3,1 -4.2,1.3 -7.2,-3 s-42,-71.9 -42,-71.9 l127.2,-33.1 c3.2,-1 4.2,-1.7000000000000002 6.2,1.5 S397.83394956588745,304.64747619628906 399.0339495658875,306.4474761962891 zM407.1339495658874,216.14747619628906 c-2.9,0.6000000000000002 -49.6,12.2 -49.6,12.2 l-38.2,-52.4 c-1.1,-1.5 -2,-3 0.7000000000000002,-3.4 c2.7,-0.4 46.1,-8.2 48,-8.6 c2,-0.4 3.7,-1 6.1,2.3 c2.4,3.3 35.4,45.1 36.7,46.7 C412.1339495658874,214.54747619628904 410.0339495658875,215.54747619628904 407.1339495658874,216.14747619628906 z" id="svg_1"/></g></svg>