<?xml version="1.0" encoding="utf-8"?>
<svg version="1.1" id="Layer_3" xmlns="http://www.w3.org/2000/svg" xmlns:xlink="http://www.w3.org/1999/xlink" x="0px" y="0px"
	 enable-background="new 0 0 1920 1080" xml:space="preserve">
<g>
	<path fill="#F6F7FD" d="M400.352,285l19.193,19.193l0.064-0.064L400.352,285 M724.288,0H610.541v58.963h53.93l-53.751,53.751
		l-0.316-0.314l-188.137,0.314l93.665-93.665L496.884,0H161.335l-23.068,22.915l191.491,191.491h92.196h87.542L724.288,0"/>
	<polyline fill="#DEE1F9" points="205.283,124.598 105.167,124.598 105.167,223.04 105.4,223.04 105.167,223.272 105.167,224.047 
		205.116,224.214 155.392,174.489 205.283,124.598 	"/>
	<path fill="#E6E9FA" d="M556.61,58.963l-39.76-39.761h39.628L556.61,58.963 M610.541,0H496.884l19.048,19.048l-93.665,93.665
		l188.137-0.314L556.61,58.963h53.931V0"/>
	<polyline fill="#EEF0FC" points="239.114,224.214 205.283,224.214 222.142,241.072 205.339,257.875 239.114,257.818 
		239.114,224.214 	"/>
	<polyline fill="#EEF0FC" points="105.167,0 96.869,0 0,96.869 0,0 0,222.827 105.167,222.652 105.167,0 	"/>
	<polyline fill="#D0D5F6" points="96.869,0 96.39,0 0,96.39 0,0 0,96.869 96.869,0 	"/>
	<path fill="#EEF0FC" d="M329.757,214.406h-0.472L400.352,285L329.757,214.406 M509.933,214.406L509.933,214.406l-45.34,45.039
		l-0.106-0.112l-44.878,44.797l0.356,0.354L509.933,214.406"/>
	<polyline fill="#E6E9FA" points="421.953,214.406 329.757,214.406 400.352,285 419.609,304.129 464.487,259.332 421.953,214.406 	
		"/>
	<polyline fill="#BEC6F3" points="96.39,0 0,0 0,96.39 96.39,0 	"/>
	<polyline fill="#DEE1F9" points="105.167,223.04 0,223.04 0,328.439 105.167,223.272 105.167,223.04 	"/>
	<polyline fill="#C3CAF4" points="105.4,223.04 105.167,223.04 105.167,223.272 105.4,223.04 	"/>
	<polyline fill="#EAEDFD" points="664.471,58.963 610.541,58.963 610.541,112.399 610.404,112.399 610.72,112.713 664.471,58.963 	
		"/>
	<polyline fill="#DBE0FB" points="610.541,58.963 556.61,58.963 610.404,112.399 610.541,112.399 610.541,58.963 	"/>
	<polyline fill="#EEF0FC" points="56.96,338.229 0,338.229 0,349.455 57.188,406.643 56.96,338.229 	"/>
	<polyline fill="#EEF0FC" points="456.45,304.483 419.965,304.483 419.609,304.483 456.573,341.447 456.45,304.483 	"/>
	<polyline fill="#D8DCF8" points="556.478,19.202 516.849,19.202 556.61,58.963 556.478,19.202 	"/>
	<polyline fill="#D0D5F6" points="509.933,214.406 509.494,214.406 464.487,259.332 464.593,259.444 509.933,214.406 	"/>
	<polyline fill="#CAD0F5" points="509.494,214.406 421.953,214.406 464.487,259.332 509.494,214.406 	"/>
	<polyline fill="#EEF0FC" points="161.335,0 113.81,0 137.414,23.762 138.266,22.915 115.352,0 161.335,0 	"/>
	<polyline fill="#E6E9FA" points="161.335,0 115.352,0 138.266,22.915 161.335,0 	"/>
	<polyline fill="#CDD2F6" points="113.81,0 105.167,0 105.167,56.225 137.522,23.871 137.414,23.762 137.413,23.762 113.651,0 
		113.81,0 	"/>
	<polyline fill="#C1C8F3" points="113.81,0 113.651,0 137.413,23.762 113.81,0 	"/>
</g>
</svg>
