<svg id="Layer_1" data-name="Layer 1" xmlns="http://www.w3.org/2000/svg" width="1920" height="1080" viewBox="0 0 1920 1080"><defs><style>.cls-1{fill:#e901a3;}.cls-2{fill:#e802a3;}.cls-3{fill:#e702a4;}.cls-4{fill:#e703a4;}.cls-5{fill:#e604a4;}.cls-6{fill:#e504a5;}.cls-7{fill:#e505a5;}.cls-8{fill:#e406a6;}.cls-9{fill:#e306a6;}.cls-10{fill:#e307a6;}.cls-11{fill:#e207a7;}.cls-12{fill:#e108a7;}.cls-13{fill:#e109a8;}.cls-14{fill:#e009a8;}.cls-15{fill:#df0aa8;}.cls-16{fill:#df0ba9;}.cls-17{fill:#de0ba9;}.cls-18{fill:#dd0caa;}.cls-19{fill:#dc0dab;}.cls-20{fill:#db0eab;}.cls-21{fill:#da0fac;}.cls-22{fill:#d90fac;}.cls-23{fill:#d910ad;}.cls-24{fill:#d811ad;}.cls-25{fill:#d711ad;}.cls-26{fill:#d712ae;}.cls-27{fill:#d613ae;}.cls-28{fill:#d613af;}.cls-29{fill:#d514af;}.cls-30{fill:#d414af;}.cls-31{fill:#d415b0;}.cls-32{fill:#d316b0;}.cls-33{fill:#d216b1;}.cls-34{fill:#d217b1;}.cls-35{fill:#d118b1;}.cls-36{fill:#d018b2;}.cls-37{fill:#d019b2;}.cls-38{fill:#cf19b3;}.cls-39{fill:#ce1ab3;}.cls-40{fill:#ce1bb3;}.cls-41{fill:#cd1bb4;}.cls-42{fill:#cc1cb4;}.cls-43{fill:#cc1db5;}.cls-44{fill:#cb1db5;}.cls-45{fill:#ca1eb5;}.cls-46{fill:#ca1eb6;}.cls-47{fill:#c91fb6;}.cls-48{fill:#c820b7;}.cls-49{fill:#c721b7;}.cls-50{fill:#c621b8;}.cls-51{fill:#c622b8;}.cls-52{fill:#c523b9;}.cls-53{fill:#c423b9;}.cls-54{fill:#c424b9;}.cls-55{fill:#c325ba;}.cls-56{fill:#c225ba;}.cls-57{fill:#c226bb;}.cls-58{fill:#c126bb;}.cls-59{fill:#c027bc;}.cls-60{fill:#c028bc;}.cls-61{fill:#bf28bc;}.cls-62{fill:#be29bd;}.cls-63{fill:#be2abd;}.cls-64{fill:#bd2abe;}.cls-65{fill:#bc2bbe;}.cls-66{fill:#bb2cbf;}.cls-67{fill:#ba2dbf;}.cls-68{fill:#ba2dc0;}.cls-69{fill:#b92ec0;}.cls-70{fill:#b82ec0;}.cls-71{fill:#b82fc1;}.cls-72{fill:#b730c1;}.cls-73{fill:#b630c2;}.cls-74{fill:#b631c2;}.cls-75{fill:#b532c2;}.cls-76{fill:#b432c3;}.cls-77{fill:#b433c3;}.cls-78{fill:#b333c4;}.cls-79{fill:#b234c4;}.cls-80{fill:#b235c4;}.cls-81{fill:#b135c5;}.cls-82{fill:#b036c5;}.cls-83{fill:#b037c6;}.cls-84{fill:#af37c6;}.cls-85{fill:#ae38c6;}.cls-86{fill:#ae38c7;}.cls-87{fill:#ad39c7;}.cls-88{fill:#ad3ac8;}.cls-89{fill:#ac3ac8;}.cls-90{fill:#ab3bc8;}.cls-91{fill:#ab3cc9;}.cls-92{fill:#aa3cc9;}.cls-93{fill:#a93dca;}.cls-94{fill:#a83eca;}.cls-95{fill:#a73fcb;}.cls-96{fill:#a640cc;}.cls-97{fill:#a540cc;}.cls-98{fill:#a541cd;}.cls-99{fill:#a442cd;}.cls-100{fill:#a342cd;}.cls-101{fill:#a343ce;}.cls-102{fill:#a244ce;}.cls-103{fill:#a144cf;}.cls-104{fill:#a145cf;}.cls-105{fill:#a045cf;}.cls-106{fill:#9f46d0;}.cls-107{fill:#9f47d0;}.cls-108{fill:#9e47d1;}.cls-109{fill:#9d48d1;}.cls-110{fill:#9d49d1;}.cls-111{fill:#9c49d2;}.cls-112{fill:#9b4ad2;}.cls-113{fill:#9b4ad3;}.cls-114{fill:#9a4bd3;}.cls-115{fill:#9b4bd2;}.cls-116{fill:#9b4bd1;}.cls-117{fill:#9c4bd1;}.cls-118{fill:#9d4bd0;}.cls-119{fill:#9e4bcf;}.cls-120{fill:#9e4bce;}.cls-121{fill:#9f4bce;}.cls-122{fill:#a04bcd;}.cls-123{fill:#a04bcc;}.cls-124{fill:#a14bcb;}.cls-125{fill:#a24bcb;}.cls-126{fill:#a34bca;}.cls-127{fill:#a34bc9;}.cls-128{fill:#a44bc8;}.cls-129{fill:#a54bc8;}.cls-130{fill:#a54bc7;}.cls-131{fill:#a64bc6;}.cls-132{fill:#a74bc5;}.cls-133{fill:#a84bc5;}.cls-134{fill:#a84bc4;}.cls-135{fill:#a94bc3;}.cls-136{fill:#aa4bc2;}.cls-137{fill:#ab4bc1;}.cls-138{fill:#ac4bc0;}.cls-139{fill:#ac4bbf;}.cls-140{fill:#ad4bbf;}.cls-141{fill:#ae4bbe;}.cls-142{fill:#af4bbd;}.cls-143{fill:#af4bbc;}.cls-144{fill:#b04bbc;}.cls-145{fill:#b14bbb;}.cls-146{fill:#b14bba;}.cls-147{fill:#b24bb9;}.cls-148{fill:#b34bb9;}.cls-149{fill:#b44bb8;}.cls-150{fill:#b44bb7;}.cls-151{fill:#b54bb6;}.cls-152{fill:#b64bb6;}.cls-153{fill:#b64bb5;}.cls-154{fill:#b74bb4;}.cls-155{fill:#b84bb3;}.cls-156{fill:#b94bb3;}.cls-157{fill:#b94bb2;}.cls-158{fill:#ba4bb1;}.cls-159{fill:#bb4bb0;}.cls-160{fill:#bc4baf;}.cls-161{fill:#bd4bae;}.cls-162{fill:#be4bad;}.cls-163{fill:#bf4bac;}.cls-164{fill:#c04bab;}.cls-165{fill:#c04baa;}.cls-166{fill:#c14baa;}.cls-167{fill:#c24ba9;}.cls-168{fill:#c34ba8;}.cls-169{fill:#c34ba7;}.cls-170{fill:#c44ba7;}.cls-171{fill:#c54ba6;}.cls-172{fill:#c54aa5;}.cls-173{fill:#c64aa4;}.cls-174{fill:#c74aa4;}.cls-175{fill:#c74aa3;}.cls-176{fill:#c84aa2;}.cls-177{fill:#c94aa1;}.cls-178{fill:#ca4aa1;}.cls-179{fill:#ca4aa0;}.cls-180{fill:#cb4a9f;}.cls-181{fill:#cc4a9e;}.cls-182{fill:#cd4a9d;}.cls-183{fill:#ce4a9c;}.cls-184{fill:#cf4a9b;}.cls-185{fill:#d04a9a;}.cls-186{fill:#d14a99;}.cls-187{fill:#d14a98;}.cls-188{fill:#d24a98;}.cls-189{fill:#d34a97;}.cls-190{fill:#d44a96;}.cls-191{fill:#d44a95;}.cls-192{fill:#d54a95;}.cls-193{fill:#d64a94;}.cls-194{fill:#d64a93;}.cls-195{fill:#d74a92;}.cls-196{fill:#d84a92;}.cls-197{fill:#d94a91;}.cls-198{fill:#d94a90;}.cls-199{fill:#da4a8f;}.cls-200{fill:#db4a8f;}.cls-201{fill:#db4a8e;}.cls-202{fill:#dc4a8d;}.cls-203{fill:#dd4a8c;}.cls-204{fill:#de4a8c;}.cls-205{fill:#de4a8b;}.cls-206{fill:#df4a8a;}.cls-207{fill:#e04a89;}.cls-208{fill:#e14a88;}.cls-209{fill:#e24a87;}.cls-210{fill:#e24a86;}.cls-211{fill:#e34a86;}.cls-212{fill:#e44a85;}.cls-213{fill:#e54a84;}.cls-214{fill:#e54a83;}.cls-215{fill:#e64a83;}.cls-216{fill:#e74a82;}.cls-217{fill:#e74a81;}.cls-218{fill:#e84a80;}.cls-219{fill:#e94a80;}.cls-220{fill:#ea4a7f;}.cls-221{fill:#ea4a7e;}.cls-222{fill:#eb4a7d;}.cls-223{fill:#ec4a7d;}.cls-224{fill:#ec4a7c;}.cls-225{fill:#ed4a7b;}.cls-226{fill:#ee4a7a;}.cls-227{fill:#ef4a7a;}.cls-228{fill:#ef4a79;}.cls-229{fill:#f04a78;}.cls-230{fill:#f04b77;}.cls-231{fill:#f04c77;}.cls-232{fill:#f04d76;}.cls-233{fill:#f04e75;}.cls-234{fill:#f14f75;}.cls-235{fill:#f15074;}.cls-236{fill:#f15173;}.cls-237{fill:#f15372;}.cls-238{fill:#f15472;}.cls-239{fill:#f15571;}.cls-240{fill:#f15670;}.cls-241{fill:#f15770;}.cls-242{fill:#f2586f;}.cls-243{fill:#f2596e;}.cls-244{fill:#f25a6e;}.cls-245{fill:#f25b6d;}.cls-246{fill:#f25c6c;}.cls-247{fill:#f25d6c;}.cls-248{fill:#f25e6b;}.cls-249{fill:#f25f6a;}.cls-250{fill:#f36069;}.cls-251{fill:#f36169;}.cls-252{fill:#f36368;}.cls-253{fill:#f36467;}.cls-254{fill:#f36567;}.cls-255{fill:#f36666;}.cls-256{fill:#f36765;}.cls-257{fill:#f36865;}.cls-258{fill:#f46964;}.cls-259{fill:#f46a63;}.cls-260{fill:#f46b62;}.cls-261{fill:#f46c62;}.cls-262{fill:#f46d61;}.cls-263{fill:#f46e60;}.cls-264{fill:#f46f60;}.cls-265{fill:#f4705f;}.cls-266{fill:#f5715e;}.cls-267{fill:#f5735e;}.cls-268{fill:#f5745d;}.cls-269{fill:#f5755c;}.cls-270{fill:#f5765c;}.cls-271{fill:#f5775b;}.cls-272{fill:#f5785a;}.cls-273{fill:#f57959;}.cls-274{fill:#f67a59;}.cls-275{fill:#f67b58;}.cls-276{fill:#f67c57;}.cls-277{fill:#f67d57;}.cls-278{fill:#f67e56;}.cls-279{fill:#f67f55;}.cls-280{fill:#f68055;}.cls-281{fill:#f68154;}.cls-282{fill:#f78353;}.cls-283{fill:#f78453;}.cls-284{fill:#f78552;}.cls-285{fill:#f78651;}.cls-286{fill:#f78750;}.cls-287{fill:#f78850;}.cls-288{fill:#f7894f;}.cls-289{fill:#f78a4e;}.cls-290{fill:#f88b4e;}.cls-291{fill:#f88c4d;}.cls-292{fill:#f88d4c;}.cls-293{fill:#f88e4c;}.cls-294{fill:#f88f4b;}.cls-295{fill:#f8904a;}.cls-296{fill:#f89149;}.cls-297{fill:#f89249;}.cls-298{fill:#f99448;}.cls-299{fill:#f99547;}.cls-300{fill:#f99647;}.cls-301{fill:#f99746;}.cls-302{fill:#f99845;}.cls-303{fill:#f99945;}.cls-304{fill:#f99a44;}.cls-305{fill:#f99b43;}.cls-306{fill:#fa9c43;}.cls-307{fill:#fa9d42;}.cls-308{fill:#fa9e41;}.cls-309{fill:#fa9f40;}.cls-310{fill:#faa040;}.cls-311{fill:#faa13f;}.cls-312{fill:#faa23e;}.cls-313{fill:#faa43e;}.cls-314{fill:#fba53d;}.cls-315{fill:#fba63c;}.cls-316{fill:#fba73c;}.cls-317{fill:#fba83b;}.cls-318{fill:#fba93a;}.cls-319{fill:#fbaa3a;}.cls-320{fill:#fbab39;}.cls-321{fill:#fbac38;}.cls-322{fill:#fcad37;}.cls-323{fill:#fcae37;}.cls-324{fill:#fcaf36;}.cls-325{fill:#fcb035;}.cls-326{fill:#fcb135;}.cls-327{fill:#fcb234;}.cls-328{fill:#fcb433;}.cls-329{fill:#fcb533;}.cls-330{fill:#fdb632;}.cls-331{fill:#fdb731;}.cls-332{fill:#fdb830;}.cls-333{fill:#fdb930;}.cls-334{fill:#fdba2f;}.cls-335{fill:#fdbb2e;}.cls-336{fill:#fdbc2e;}.cls-337{fill:#fdbd2d;}.cls-338{fill:#febe2c;}.cls-339{fill:#febf2c;}.cls-340{fill:#fec02b;}.cls-341{fill:#fec12a;}.cls-342{fill:#fec22a;}.cls-343{fill:#fec429;}.cls-344{fill:#fec528;}.cls-345{fill:#fec627;}.cls-346{fill:#ffc727;}.cls-347{fill:#ffc826;}.cls-348{fill:#ffc925;}.cls-349{fill:#ffca25;}.cls-350{fill:#ffcb24;}.cls-351{fill:#ffca24;}.cls-352{fill:#ffc924;}.cls-353{fill:#ffc823;}.cls-354{fill:#ffc723;}.cls-355{fill:#ffc623;}.cls-356{fill:#ffc423;}.cls-357{fill:#ffc323;}.cls-358{fill:#ffc222;}.cls-359{fill:#ffc122;}.cls-360{fill:#ffc022;}.cls-361{fill:#ffbf22;}.cls-362{fill:#ffbe22;}.cls-363{fill:#ffbd22;}.cls-364{fill:#ffbc21;}.cls-365{fill:#ffbb21;}.cls-366{fill:#ffb921;}.cls-367{fill:#ffb821;}.cls-368{fill:#ffb721;}.cls-369{fill:#ffb620;}.cls-370{fill:#ffb520;}.cls-371{fill:#ffb420;}.cls-372{fill:#ffb320;}.cls-373{fill:#ffb220;}.cls-374{fill:#ffb11f;}.cls-375{fill:#ffb01f;}.cls-376{fill:#ffae1f;}.cls-377{fill:#ffad1f;}.cls-378{fill:#ffac1f;}.cls-379{fill:#ffab1e;}.cls-380{fill:#ffaa1e;}.cls-381{fill:#ffa91e;}.cls-382{fill:#ffa81e;}.cls-383{fill:#ffa71e;}.cls-384{fill:#ffa61e;}.cls-385{fill:#ffa51d;}.cls-386{fill:#ffa31d;}.cls-387{fill:#ffa21d;}.cls-388{fill:#ffa11d;}.cls-389{fill:#ffa01d;}.cls-390{fill:#ff9f1c;}.cls-391{fill:#ff9e1c;}.cls-392{fill:#ff9d1c;}.cls-393{fill:#ff9c1c;}.cls-394{fill:#ff9b1c;}.cls-395{fill:#ff9a1b;}.cls-396{fill:#ff981b;}.cls-397{fill:#ff971b;}.cls-398{fill:#ff961b;}.cls-399{fill:#ff951b;}.cls-400{fill:#ff941a;}.cls-401{fill:#ff931a;}.cls-402{fill:#ff921a;}.cls-403{fill:#ff911a;}.cls-404{fill:#ff901a;}.cls-405{fill:#ff8f1a;}.cls-406{fill:#ff8d19;}.cls-407{fill:#ff8c19;}.cls-408{fill:#ff8b19;}.cls-409{fill:#ff8a19;}.cls-410{fill:#ff8919;}.cls-411{fill:#ff8818;}.cls-412{fill:#ff8718;}.cls-413{fill:#ff8618;}.cls-414{fill:#ff8518;}.cls-415{fill:#ff8418;}.cls-416{fill:#ff8217;}.cls-417{fill:#ff8117;}.cls-418{fill:#ff8017;}.cls-419{fill:#ff7f17;}.cls-420{fill:#ff7e17;}.cls-421{fill:#ff7d17;}.cls-422{fill:#ff7c16;}.cls-423{fill:#ff7b16;}.cls-424{fill:#ff7a16;}.cls-425{fill:#ff7916;}.cls-426{fill:#ff7716;}.cls-427{fill:#ff7615;}.cls-428{fill:#ff7515;}.cls-429{fill:#ff7415;}.cls-430{fill:#ff7315;}.cls-431{fill:#ff7215;}.cls-432{fill:#ff7114;}.cls-433{fill:#ff7014;}.cls-434{fill:#ff6f14;}.cls-435{fill:#ff6e14;}.cls-436{fill:#ff6c14;}.cls-437{fill:#ff6b13;}.cls-438{fill:#ff6a13;}.cls-439{fill:#ff6913;}.cls-440{fill:#ff6813;}.cls-441{fill:#ff6713;}.cls-442{fill:#ff6613;}.cls-443{fill:#ff6512;}.cls-444{fill:#ff6412;}.cls-445{fill:#ff6312;}.cls-446{fill:#ff6112;}.cls-447{fill:#ff6012;}.cls-448{fill:#ff5f11;}.cls-449{fill:#ff5e11;}.cls-450{fill:#ff5d11;}.cls-451{fill:#ff5c11;}.cls-452{fill:#ff5b11;}.cls-453{fill:#ff5a10;}.cls-454{fill:#ff5910;}.cls-455{fill:#ff5810;}.cls-456{fill:#ff5610;}.cls-457{fill:#ff5510;}.cls-458{fill:#ff540f;}.cls-459{fill:#ff530f;}.cls-460{fill:#ff520f;}.cls-461{fill:#ff510f;}.cls-462{fill:#ff500f;}.cls-463{fill:#ff4f0f;}.cls-464{fill:#ff4e0e;}.cls-465{fill:#ff4d0e;}.cls-466{fill:#ff4b0e;}.cls-467{fill:#ff4a0e;}.cls-468{fill:#ff490e;}.cls-469{fill:#ff480d;}.cls-470{fill:#ff470d;}.cls-471{fill:#ff460d;}.cls-472{fill:#fe460e;}.cls-473{fill:#fe450f;}.cls-474{fill:#fd4510;}.cls-475{fill:#fd4410;}.cls-476{fill:#fc4411;}.cls-477{fill:#fc4312;}</style></defs><title>general_beam</title><path class="cls-1" d="M753.233,1080H769.32a23.183,23.183,0,0,0-16.087,0Z"/><path class="cls-2" d="M754.757,1080h24.5a23.261,23.261,0,0,0-24.5,0Z"/><path class="cls-3" d="M757.625,1080h30.221a23.4,23.4,0,0,0-30.221,0Z"/><path class="cls-4" d="M778.465,1072.42a23.5,23.5,0,0,0-17.311,7.58h34.621A23.5,23.5,0,0,0,778.465,1072.42Z"/><path class="cls-5" d="M784.195,1070.374A23.682,23.682,0,0,0,765.118,1080h38.153A23.682,23.682,0,0,0,784.195,1070.374Z"/><path class="cls-6" d="M789.924,1068.327A23.853,23.853,0,0,0,769.407,1080h41.034A23.853,23.853,0,0,0,789.924,1068.327Z"/><path class="cls-7" d="M795.653,1066.281a24.019,24.019,0,0,0-21.7,13.719h43.4A24.019,24.019,0,0,0,795.653,1066.281Z"/><path class="cls-8" d="M801.383,1064.234A24.176,24.176,0,0,0,778.718,1080h45.331A24.176,24.176,0,0,0,801.383,1064.234Z"/><path class="cls-9" d="M807.112,1062.188A24.324,24.324,0,0,0,783.681,1080h46.862A24.324,24.324,0,0,0,807.112,1062.188Z"/><path class="cls-10" d="M812.842,1060.141A24.472,24.472,0,0,0,788.813,1080h48.058A24.472,24.472,0,0,0,812.842,1060.141Z"/><path class="cls-11" d="M818.571,1058.095A24.619,24.619,0,0,0,794.1,1080h48.933A24.619,24.619,0,0,0,818.571,1058.095Z"/><path class="cls-12" d="M824.3,1056.048A24.764,24.764,0,0,0,799.553,1080h49.5A24.764,24.764,0,0,0,824.3,1056.048Z"/><path class="cls-13" d="M830.03,1054a24.919,24.919,0,0,0-24.919,24.919c0,.362.012.721.027,1.08h49.783c.015-.358.027-.718.027-1.08A24.919,24.919,0,0,0,830.03,1054Z"/><path class="cls-14" d="M835.76,1051.955A25.032,25.032,0,0,0,810.873,1080h49.774a25.032,25.032,0,0,0-24.887-28.045Z"/><path class="cls-15" d="M841.489,1049.908A25.221,25.221,0,0,0,816.745,1080h49.488a25.22,25.22,0,0,0-24.744-30.092Z"/><path class="cls-16" d="M847.219,1047.862A25.366,25.366,0,0,0,822.77,1080h48.9a25.366,25.366,0,0,0-24.448-32.138Z"/><path class="cls-17" d="M852.948,1045.815A25.53,25.53,0,0,0,828.941,1080h48.015a25.53,25.53,0,0,0-24.007-34.185Z"/><path class="cls-18" d="M858.677,1043.769A25.666,25.666,0,0,0,835.283,1080h46.788a25.666,25.666,0,0,0-23.394-36.231Z"/><path class="cls-18" d="M864.407,1041.722A25.821,25.821,0,0,0,841.791,1080h45.232a25.821,25.821,0,0,0-22.616-38.278Z"/><path class="cls-19" d="M870.136,1039.676A25.968,25.968,0,0,0,848.5,1080h43.28a25.968,25.968,0,0,0-21.64-40.324Z"/><path class="cls-20" d="M875.866,1037.629A26.112,26.112,0,0,0,855.426,1080h40.881a26.112,26.112,0,0,0-20.44-42.371Z"/><path class="cls-20" d="M881.6,1035.583A26.262,26.262,0,0,0,862.612,1080h37.966a26.262,26.262,0,0,0-18.983-44.417Z"/><path class="cls-21" d="M913.744,1059.956A26.419,26.419,0,1,0,870.124,1080h34.4A26.353,26.353,0,0,0,913.744,1059.956Z"/><path class="cls-22" d="M919.624,1058.059A26.57,26.57,0,1,0,878.071,1080h29.967A26.538,26.538,0,0,0,919.624,1058.059Z"/><path class="cls-23" d="M925.5,1056.163A26.72,26.72,0,1,0,886.716,1080h24.136A26.713,26.713,0,0,0,925.5,1056.163Z"/><path class="cls-24" d="M931.383,1054.267A26.87,26.87,0,1,0,896.776,1080H912.25A26.877,26.877,0,0,0,931.383,1054.267Z"/><circle class="cls-25" cx="910.243" cy="1052.37" r="27.02"/><circle class="cls-26" cx="915.972" cy="1050.474" r="27.17"/><circle class="cls-27" cx="921.701" cy="1048.577" r="27.32"/><circle class="cls-28" cx="927.431" cy="1046.681" r="27.47"/><circle class="cls-29" cx="933.16" cy="1044.784" r="27.62"/><circle class="cls-30" cx="938.89" cy="1042.888" r="27.77"/><circle class="cls-31" cx="944.619" cy="1040.991" r="27.92"/><circle class="cls-32" cx="950.349" cy="1039.095" r="28.07"/><circle class="cls-33" cx="956.078" cy="1037.198" r="28.22"/><circle class="cls-34" cx="961.808" cy="1035.302" r="28.37"/><circle class="cls-35" cx="967.537" cy="1033.406" r="28.52"/><circle class="cls-36" cx="973.267" cy="1031.509" r="28.671"/><circle class="cls-37" cx="978.996" cy="1029.613" r="28.821"/><circle class="cls-38" cx="984.726" cy="1027.716" r="28.971"/><circle class="cls-39" cx="990.455" cy="1025.82" r="29.121"/><circle class="cls-40" cx="996.184" cy="1023.923" r="29.271"/><circle class="cls-41" cx="1001.914" cy="1022.027" r="29.421"/><circle class="cls-42" cx="1007.643" cy="1020.13" r="29.571"/><circle class="cls-43" cx="1013.373" cy="1018.234" r="29.721"/><circle class="cls-44" cx="1019.102" cy="1016.337" r="29.871"/><circle class="cls-45" cx="1024.832" cy="1014.441" r="30.021"/><circle class="cls-46" cx="1030.561" cy="1012.544" r="30.171"/><circle class="cls-47" cx="1036.291" cy="1010.648" r="30.321"/><circle class="cls-48" cx="1042.02" cy="1008.752" r="30.471"/><circle class="cls-48" cx="1047.75" cy="1006.855" r="30.621"/><circle class="cls-49" cx="1053.479" cy="1004.959" r="30.771"/><circle class="cls-50" cx="1059.208" cy="1003.062" r="30.922"/><circle class="cls-51" cx="1064.938" cy="1001.166" r="31.072"/><circle class="cls-52" cx="1070.667" cy="999.269" r="31.222"/><circle class="cls-53" cx="1076.397" cy="997.373" r="31.372"/><circle class="cls-54" cx="1082.126" cy="995.477" r="31.522"/><circle class="cls-55" cx="1087.856" cy="993.58" r="31.672"/><circle class="cls-56" cx="1093.585" cy="991.684" r="31.822"/><circle class="cls-57" cx="1099.315" cy="989.787" r="31.972"/><circle class="cls-58" cx="1105.044" cy="987.891" r="32.122"/><circle class="cls-59" cx="1110.774" cy="985.994" r="32.272"/><circle class="cls-60" cx="1116.503" cy="984.098" r="32.422"/><circle class="cls-61" cx="1122.232" cy="982.201" r="32.572"/><circle class="cls-62" cx="1127.962" cy="980.305" r="32.722"/><circle class="cls-63" cx="1133.691" cy="978.408" r="32.872"/><circle class="cls-64" cx="1139.421" cy="976.512" r="33.022"/><circle class="cls-65" cx="1145.15" cy="974.615" r="33.173"/><circle class="cls-65" cx="1150.88" cy="972.719" r="33.323"/><circle class="cls-66" cx="1156.609" cy="970.823" r="33.473"/><circle class="cls-67" cx="1162.339" cy="968.926" r="33.623"/><circle class="cls-68" cx="1168.068" cy="967.03" r="33.773"/><circle class="cls-69" cx="1173.798" cy="965.133" r="33.923"/><circle class="cls-70" cx="1179.527" cy="963.237" r="34.073"/><circle class="cls-71" cx="1185.256" cy="961.34" r="34.223"/><circle class="cls-72" cx="1190.986" cy="959.444" r="34.373"/><circle class="cls-73" cx="1196.715" cy="957.547" r="34.523"/><circle class="cls-74" cx="1202.445" cy="955.651" r="34.673"/><circle class="cls-75" cx="1208.174" cy="953.754" r="34.823"/><circle class="cls-76" cx="1213.904" cy="951.858" r="34.973"/><circle class="cls-77" cx="1219.633" cy="949.962" r="35.123"/><circle class="cls-78" cx="1225.363" cy="948.065" r="35.274"/><circle class="cls-79" cx="1231.092" cy="946.169" r="35.424"/><circle class="cls-80" cx="1236.822" cy="944.272" r="35.574"/><circle class="cls-81" cx="1242.551" cy="942.376" r="35.724"/><circle class="cls-82" cx="1248.281" cy="940.479" r="35.874"/><circle class="cls-83" cx="1254.01" cy="938.583" r="36.024"/><circle class="cls-84" cx="1259.739" cy="936.686" r="36.174"/><circle class="cls-85" cx="1265.469" cy="934.79" r="36.324"/><circle class="cls-86" cx="1271.198" cy="932.894" r="36.474"/><circle class="cls-87" cx="1276.928" cy="930.997" r="36.624"/><circle class="cls-88" cx="1282.657" cy="929.101" r="36.774"/><circle class="cls-89" cx="1288.387" cy="927.204" r="36.924"/><circle class="cls-90" cx="1294.116" cy="925.308" r="37.074"/><circle class="cls-91" cx="1299.846" cy="923.411" r="37.224"/><circle class="cls-92" cx="1305.575" cy="921.515" r="37.375"/><circle class="cls-93" cx="1311.305" cy="919.618" r="37.525"/><circle class="cls-93" cx="1317.034" cy="917.722" r="37.675"/><circle class="cls-94" cx="1322.763" cy="915.825" r="37.825"/><circle class="cls-95" cx="1328.493" cy="913.929" r="37.975"/><circle class="cls-95" cx="1334.222" cy="912.033" r="38.125"/><circle class="cls-96" cx="1339.952" cy="910.136" r="38.275"/><circle class="cls-97" cx="1345.681" cy="908.24" r="38.425"/><circle class="cls-98" cx="1351.411" cy="906.343" r="38.575"/><circle class="cls-99" cx="1357.14" cy="904.447" r="38.725"/><circle class="cls-100" cx="1362.87" cy="902.55" r="38.875"/><circle class="cls-101" cx="1368.599" cy="900.654" r="39.025"/><circle class="cls-102" cx="1374.329" cy="898.757" r="39.175"/><circle class="cls-103" cx="1380.058" cy="896.861" r="39.325"/><circle class="cls-104" cx="1385.787" cy="894.964" r="39.475"/><circle class="cls-105" cx="1391.517" cy="893.068" r="39.626"/><circle class="cls-106" cx="1397.246" cy="891.172" r="39.776"/><circle class="cls-107" cx="1402.976" cy="889.275" r="39.926"/><circle class="cls-108" cx="1408.705" cy="887.379" r="40.076"/><circle class="cls-109" cx="1414.435" cy="885.482" r="40.226"/><circle class="cls-110" cx="1420.164" cy="883.586" r="40.376"/><circle class="cls-111" cx="1425.894" cy="881.689" r="40.526"/><circle class="cls-112" cx="1431.623" cy="879.793" r="40.676"/><circle class="cls-113" cx="1437.353" cy="877.896" r="40.826"/><circle class="cls-114" cx="1443.082" cy="876" r="40.976"/><circle class="cls-115" cx="1444.039" cy="876.819" r="41.15"/><circle class="cls-116" cx="1444.996" cy="877.638" r="41.325"/><circle class="cls-117" cx="1445.952" cy="878.456" r="41.499"/><circle class="cls-118" cx="1446.909" cy="879.275" r="41.674"/><circle class="cls-119" cx="1447.866" cy="880.094" r="41.848"/><circle class="cls-120" cx="1448.823" cy="880.913" r="42.022"/><circle class="cls-121" cx="1449.78" cy="881.731" r="42.197"/><circle class="cls-122" cx="1450.737" cy="882.55" r="42.371"/><circle class="cls-123" cx="1451.693" cy="883.369" r="42.545"/><circle class="cls-124" cx="1452.65" cy="884.188" r="42.72"/><circle class="cls-125" cx="1453.607" cy="885.006" r="42.894"/><circle class="cls-126" cx="1454.564" cy="885.825" r="43.068"/><circle class="cls-127" cx="1455.521" cy="886.644" r="43.243"/><circle class="cls-128" cx="1456.478" cy="887.463" r="43.417"/><circle class="cls-129" cx="1457.434" cy="888.282" r="43.591"/><circle class="cls-130" cx="1458.391" cy="889.1" r="43.766"/><circle class="cls-131" cx="1459.348" cy="889.919" r="43.94"/><circle class="cls-132" cx="1460.305" cy="890.738" r="44.114"/><circle class="cls-133" cx="1461.262" cy="891.557" r="44.289"/><circle class="cls-134" cx="1462.218" cy="892.375" r="44.463"/><circle class="cls-135" cx="1463.175" cy="893.194" r="44.637"/><circle class="cls-136" cx="1464.132" cy="894.013" r="44.812"/><circle class="cls-136" cx="1465.089" cy="894.832" r="44.986"/><circle class="cls-137" cx="1466.046" cy="895.651" r="45.16"/><circle class="cls-138" cx="1467.002" cy="896.469" r="45.335"/><circle class="cls-139" cx="1467.959" cy="897.288" r="45.509"/><circle class="cls-140" cx="1468.916" cy="898.107" r="45.683"/><circle class="cls-141" cx="1469.873" cy="898.926" r="45.858"/><circle class="cls-142" cx="1470.83" cy="899.744" r="46.032"/><circle class="cls-143" cx="1471.786" cy="900.563" r="46.206"/><circle class="cls-144" cx="1472.743" cy="901.382" r="46.381"/><circle class="cls-145" cx="1473.7" cy="902.201" r="46.555"/><circle class="cls-146" cx="1474.657" cy="903.02" r="46.729"/><circle class="cls-147" cx="1475.614" cy="903.838" r="46.904"/><circle class="cls-148" cx="1476.571" cy="904.657" r="47.078"/><circle class="cls-149" cx="1477.527" cy="905.476" r="47.252"/><circle class="cls-150" cx="1478.484" cy="906.295" r="47.427"/><circle class="cls-151" cx="1479.441" cy="907.113" r="47.601"/><circle class="cls-152" cx="1480.398" cy="907.932" r="47.776"/><circle class="cls-153" cx="1481.355" cy="908.751" r="47.95"/><circle class="cls-154" cx="1482.311" cy="909.57" r="48.124"/><circle class="cls-155" cx="1483.268" cy="910.388" r="48.299"/><circle class="cls-156" cx="1484.225" cy="911.207" r="48.473"/><circle class="cls-157" cx="1485.182" cy="912.026" r="48.647"/><circle class="cls-158" cx="1486.139" cy="912.845" r="48.822"/><circle class="cls-159" cx="1487.096" cy="913.664" r="48.996"/><circle class="cls-159" cx="1488.052" cy="914.482" r="49.17"/><circle class="cls-160" cx="1489.009" cy="915.301" r="49.345"/><circle class="cls-161" cx="1489.966" cy="916.12" r="49.519"/><circle class="cls-162" cx="1490.923" cy="916.939" r="49.693"/><circle class="cls-162" cx="1491.88" cy="917.757" r="49.868"/><circle class="cls-163" cx="1492.836" cy="918.576" r="50.042"/><circle class="cls-164" cx="1493.793" cy="919.395" r="50.216"/><circle class="cls-165" cx="1494.75" cy="920.214" r="50.391"/><circle class="cls-166" cx="1495.707" cy="921.033" r="50.565"/><circle class="cls-167" cx="1496.664" cy="921.851" r="50.739"/><circle class="cls-168" cx="1497.621" cy="922.67" r="50.914"/><circle class="cls-169" cx="1498.577" cy="923.489" r="51.088"/><circle class="cls-170" cx="1499.534" cy="924.308" r="51.262"/><circle class="cls-171" cx="1500.491" cy="925.126" r="51.437"/><circle class="cls-172" cx="1501.448" cy="925.945" r="51.611"/><circle class="cls-173" cx="1502.405" cy="926.764" r="51.785"/><circle class="cls-174" cx="1503.361" cy="927.583" r="51.96"/><circle class="cls-175" cx="1504.318" cy="928.401" r="52.134"/><circle class="cls-176" cx="1505.275" cy="929.22" r="52.308"/><circle class="cls-177" cx="1506.232" cy="930.039" r="52.483"/><circle class="cls-178" cx="1507.189" cy="930.858" r="52.657"/><circle class="cls-179" cx="1508.146" cy="931.677" r="52.831"/><circle class="cls-180" cx="1509.102" cy="932.495" r="53.006"/><circle class="cls-181" cx="1510.059" cy="933.314" r="53.18"/><circle class="cls-181" cx="1511.016" cy="934.133" r="53.354"/><circle class="cls-182" cx="1511.973" cy="934.952" r="53.529"/><circle class="cls-183" cx="1512.93" cy="935.771" r="53.703"/><circle class="cls-184" cx="1513.886" cy="936.589" r="53.878"/><circle class="cls-184" cx="1514.843" cy="937.408" r="54.052"/><circle class="cls-185" cx="1515.8" cy="938.227" r="54.226"/><circle class="cls-186" cx="1516.757" cy="939.046" r="54.401"/><circle class="cls-187" cx="1517.714" cy="939.864" r="54.575"/><circle class="cls-188" cx="1518.67" cy="940.683" r="54.749"/><circle class="cls-189" cx="1519.627" cy="941.502" r="54.924"/><circle class="cls-190" cx="1520.584" cy="942.321" r="55.098"/><circle class="cls-191" cx="1521.541" cy="943.139" r="55.272"/><circle class="cls-192" cx="1522.498" cy="943.958" r="55.447"/><circle class="cls-193" cx="1523.455" cy="944.777" r="55.621"/><circle class="cls-194" cx="1524.411" cy="945.596" r="55.795"/><circle class="cls-195" cx="1525.368" cy="946.415" r="55.97"/><circle class="cls-196" cx="1526.325" cy="947.233" r="56.144"/><circle class="cls-197" cx="1527.282" cy="948.052" r="56.318"/><circle class="cls-198" cx="1528.239" cy="948.871" r="56.493"/><circle class="cls-199" cx="1529.195" cy="949.69" r="56.667"/><circle class="cls-200" cx="1530.152" cy="950.508" r="56.841"/><circle class="cls-201" cx="1531.109" cy="951.327" r="57.016"/><circle class="cls-202" cx="1532.066" cy="952.146" r="57.19"/><circle class="cls-203" cx="1533.023" cy="952.965" r="57.364"/><circle class="cls-204" cx="1533.98" cy="953.783" r="57.539"/><circle class="cls-205" cx="1534.936" cy="954.602" r="57.713"/><circle class="cls-206" cx="1535.893" cy="955.421" r="57.887"/><circle class="cls-207" cx="1536.85" cy="956.24" r="58.062"/><circle class="cls-207" cx="1537.807" cy="957.059" r="58.236"/><circle class="cls-208" cx="1538.764" cy="957.877" r="58.41"/><circle class="cls-209" cx="1539.72" cy="958.696" r="58.585"/><circle class="cls-210" cx="1540.677" cy="959.515" r="58.759"/><circle class="cls-211" cx="1541.634" cy="960.334" r="58.933"/><circle class="cls-212" cx="1542.591" cy="961.152" r="59.108"/><circle class="cls-213" cx="1543.548" cy="961.971" r="59.282"/><circle class="cls-214" cx="1544.504" cy="962.79" r="59.457"/><circle class="cls-215" cx="1545.461" cy="963.609" r="59.631"/><circle class="cls-216" cx="1546.418" cy="964.427" r="59.805"/><circle class="cls-217" cx="1547.375" cy="965.246" r="59.98"/><circle class="cls-218" cx="1548.332" cy="966.065" r="60.154"/><circle class="cls-219" cx="1549.289" cy="966.884" r="60.328"/><circle class="cls-220" cx="1550.245" cy="967.703" r="60.502"/><circle class="cls-221" cx="1551.202" cy="968.521" r="60.677"/><circle class="cls-222" cx="1552.159" cy="969.34" r="60.851"/><circle class="cls-223" cx="1553.116" cy="970.159" r="61.026"/><circle class="cls-224" cx="1554.073" cy="970.978" r="61.2"/><circle class="cls-225" cx="1555.03" cy="971.797" r="61.374"/><circle class="cls-226" cx="1555.986" cy="972.615" r="61.549"/><circle class="cls-227" cx="1556.943" cy="973.434" r="61.723"/><circle class="cls-228" cx="1557.9" cy="974.253" r="61.897"/><circle class="cls-229" cx="1558.857" cy="975.072" r="62.072"/><circle class="cls-230" cx="1559.37" cy="972.865" r="62.279"/><circle class="cls-231" cx="1559.883" cy="970.657" r="62.486"/><circle class="cls-232" cx="1560.396" cy="968.45" r="62.693"/><circle class="cls-233" cx="1560.909" cy="966.243" r="62.899"/><circle class="cls-234" cx="1561.422" cy="964.036" r="63.106"/><circle class="cls-235" cx="1561.935" cy="961.828" r="63.313"/><circle class="cls-236" cx="1562.448" cy="959.621" r="63.52"/><circle class="cls-237" cx="1562.961" cy="957.414" r="63.727"/><circle class="cls-238" cx="1563.474" cy="955.207" r="63.934"/><circle class="cls-239" cx="1563.987" cy="953" r="64.141"/><circle class="cls-240" cx="1564.5" cy="950.792" r="64.348"/><circle class="cls-241" cx="1565.013" cy="948.585" r="64.555"/><circle class="cls-242" cx="1565.526" cy="946.378" r="64.762"/><circle class="cls-243" cx="1566.039" cy="944.171" r="64.969"/><circle class="cls-244" cx="1566.552" cy="941.964" r="65.176"/><circle class="cls-245" cx="1567.065" cy="939.756" r="65.383"/><circle class="cls-246" cx="1567.578" cy="937.549" r="65.59"/><circle class="cls-247" cx="1568.091" cy="935.342" r="65.797"/><circle class="cls-248" cx="1568.604" cy="933.135" r="66.004"/><circle class="cls-249" cx="1569.116" cy="930.927" r="66.211"/><circle class="cls-250" cx="1569.63" cy="928.72" r="66.418"/><circle class="cls-251" cx="1570.142" cy="926.513" r="66.625"/><circle class="cls-252" cx="1570.656" cy="924.306" r="66.832"/><circle class="cls-253" cx="1571.168" cy="922.099" r="67.038"/><circle class="cls-254" cx="1571.681" cy="919.892" r="67.245"/><circle class="cls-255" cx="1572.194" cy="917.684" r="67.452"/><circle class="cls-256" cx="1572.707" cy="915.477" r="67.659"/><circle class="cls-257" cx="1573.22" cy="913.27" r="67.866"/><circle class="cls-258" cx="1573.733" cy="911.063" r="68.073"/><circle class="cls-259" cx="1574.246" cy="908.855" r="68.28"/><circle class="cls-260" cx="1574.759" cy="906.648" r="68.487"/><circle class="cls-261" cx="1575.272" cy="904.441" r="68.694"/><circle class="cls-262" cx="1575.785" cy="902.234" r="68.901"/><circle class="cls-263" cx="1576.298" cy="900.027" r="69.108"/><circle class="cls-264" cx="1576.811" cy="897.82" r="69.315"/><circle class="cls-265" cx="1577.324" cy="895.612" r="69.522"/><circle class="cls-266" cx="1577.837" cy="893.405" r="69.729"/><circle class="cls-267" cx="1578.35" cy="891.198" r="69.936"/><circle class="cls-268" cx="1578.863" cy="888.991" r="70.143"/><circle class="cls-269" cx="1579.376" cy="886.784" r="70.35"/><circle class="cls-270" cx="1579.889" cy="884.576" r="70.557"/><circle class="cls-271" cx="1580.402" cy="882.369" r="70.764"/><circle class="cls-272" cx="1580.915" cy="880.162" r="70.97"/><circle class="cls-273" cx="1581.428" cy="877.955" r="71.177"/><circle class="cls-274" cx="1581.941" cy="875.747" r="71.384"/><circle class="cls-275" cx="1582.454" cy="873.54" r="71.591"/><circle class="cls-276" cx="1582.967" cy="871.333" r="71.798"/><circle class="cls-277" cx="1583.48" cy="869.126" r="72.005"/><circle class="cls-278" cx="1583.993" cy="866.919" r="72.212"/><circle class="cls-279" cx="1584.506" cy="864.711" r="72.419"/><circle class="cls-280" cx="1585.019" cy="862.504" r="72.626"/><circle class="cls-281" cx="1585.532" cy="860.297" r="72.833"/><circle class="cls-282" cx="1586.045" cy="858.09" r="73.04"/><circle class="cls-283" cx="1586.558" cy="855.883" r="73.247"/><circle class="cls-284" cx="1587.071" cy="853.675" r="73.454"/><circle class="cls-285" cx="1587.584" cy="851.468" r="73.661"/><circle class="cls-286" cx="1588.097" cy="849.261" r="73.868"/><circle class="cls-287" cx="1588.61" cy="847.054" r="74.075"/><circle class="cls-288" cx="1589.123" cy="844.847" r="74.282"/><circle class="cls-289" cx="1589.636" cy="842.639" r="74.489"/><circle class="cls-290" cx="1590.149" cy="840.432" r="74.696"/><circle class="cls-291" cx="1590.662" cy="838.225" r="74.903"/><circle class="cls-292" cx="1591.175" cy="836.018" r="75.11"/><circle class="cls-293" cx="1591.688" cy="833.811" r="75.317"/><circle class="cls-294" cx="1592.201" cy="831.603" r="75.524"/><circle class="cls-295" cx="1592.714" cy="829.396" r="75.73"/><circle class="cls-296" cx="1593.227" cy="827.189" r="75.937"/><circle class="cls-297" cx="1593.74" cy="824.982" r="76.144"/><circle class="cls-298" cx="1594.253" cy="822.775" r="76.351"/><circle class="cls-299" cx="1594.766" cy="820.567" r="76.558"/><circle class="cls-300" cx="1595.279" cy="818.36" r="76.765"/><circle class="cls-301" cx="1595.792" cy="816.153" r="76.972"/><circle class="cls-302" cx="1596.305" cy="813.946" r="77.179"/><circle class="cls-303" cx="1596.818" cy="811.739" r="77.386"/><circle class="cls-304" cx="1597.331" cy="809.531" r="77.593"/><circle class="cls-305" cx="1597.844" cy="807.324" r="77.8"/><circle class="cls-306" cx="1598.357" cy="805.117" r="78.007"/><circle class="cls-307" cx="1598.87" cy="802.91" r="78.214"/><circle class="cls-308" cx="1599.383" cy="800.703" r="78.421"/><circle class="cls-309" cx="1599.896" cy="798.495" r="78.628"/><circle class="cls-310" cx="1600.409" cy="796.288" r="78.835"/><circle class="cls-311" cx="1600.922" cy="794.081" r="79.042"/><circle class="cls-312" cx="1601.435" cy="791.874" r="79.249"/><circle class="cls-313" cx="1601.948" cy="789.667" r="79.456"/><circle class="cls-314" cx="1602.461" cy="787.459" r="79.662"/><circle class="cls-315" cx="1602.974" cy="785.252" r="79.869"/><circle class="cls-316" cx="1603.487" cy="783.045" r="80.076"/><circle class="cls-317" cx="1604" cy="780.838" r="80.283"/><circle class="cls-318" cx="1604.513" cy="778.63" r="80.49"/><circle class="cls-319" cx="1605.026" cy="776.423" r="80.697"/><circle class="cls-320" cx="1605.539" cy="774.216" r="80.904"/><circle class="cls-321" cx="1606.052" cy="772.009" r="81.111"/><circle class="cls-322" cx="1606.565" cy="769.802" r="81.318"/><circle class="cls-323" cx="1607.078" cy="767.594" r="81.525"/><circle class="cls-324" cx="1607.591" cy="765.387" r="81.732"/><circle class="cls-325" cx="1608.104" cy="763.18" r="81.939"/><circle class="cls-326" cx="1608.617" cy="760.973" r="82.146"/><circle class="cls-327" cx="1609.13" cy="758.766" r="82.353"/><circle class="cls-328" cx="1609.643" cy="756.558" r="82.56"/><circle class="cls-329" cx="1610.156" cy="754.351" r="82.767"/><circle class="cls-330" cx="1610.669" cy="752.144" r="82.974"/><circle class="cls-331" cx="1611.182" cy="749.937" r="83.181"/><circle class="cls-332" cx="1611.695" cy="747.73" r="83.388"/><circle class="cls-333" cx="1612.208" cy="745.522" r="83.595"/><circle class="cls-334" cx="1612.72" cy="743.315" r="83.802"/><circle class="cls-335" cx="1613.234" cy="741.108" r="84.008"/><circle class="cls-336" cx="1613.747" cy="738.901" r="84.215"/><circle class="cls-337" cx="1614.26" cy="736.694" r="84.422"/><circle class="cls-338" cx="1614.772" cy="734.486" r="84.629"/><circle class="cls-339" cx="1615.285" cy="732.279" r="84.836"/><circle class="cls-340" cx="1615.798" cy="730.072" r="85.043"/><circle class="cls-341" cx="1616.311" cy="727.865" r="85.25"/><circle class="cls-342" cx="1616.824" cy="725.658" r="85.457"/><circle class="cls-343" cx="1617.337" cy="723.45" r="85.664"/><circle class="cls-344" cx="1617.85" cy="721.243" r="85.871"/><circle class="cls-345" cx="1618.363" cy="719.036" r="86.078"/><circle class="cls-346" cx="1618.876" cy="716.829" r="86.285"/><circle class="cls-347" cx="1619.389" cy="714.622" r="86.492"/><circle class="cls-348" cx="1619.902" cy="712.414" r="86.699"/><circle class="cls-349" cx="1620.415" cy="710.207" r="86.906"/><circle class="cls-350" cx="1620.928" cy="708" r="87.113"/><circle class="cls-351" cx="1624.119" cy="705.783" r="87.242"/><circle class="cls-352" cx="1627.31" cy="703.567" r="87.372"/><circle class="cls-353" cx="1630.5" cy="701.35" r="87.502"/><circle class="cls-354" cx="1633.691" cy="699.134" r="87.631"/><circle class="cls-355" cx="1636.882" cy="696.917" r="87.761"/><circle class="cls-356" cx="1640.072" cy="694.701" r="87.891"/><circle class="cls-357" cx="1643.263" cy="692.484" r="88.02"/><circle class="cls-358" cx="1646.454" cy="690.268" r="88.15"/><circle class="cls-359" cx="1649.644" cy="688.051" r="88.279"/><circle class="cls-360" cx="1652.835" cy="685.835" r="88.409"/><circle class="cls-361" cx="1656.026" cy="683.618" r="88.539"/><circle class="cls-362" cx="1659.216" cy="681.401" r="88.668"/><circle class="cls-363" cx="1662.407" cy="679.185" r="88.798"/><circle class="cls-364" cx="1665.598" cy="676.968" r="88.928"/><circle class="cls-365" cx="1668.789" cy="674.752" r="89.057"/><circle class="cls-366" cx="1671.979" cy="672.535" r="89.187"/><circle class="cls-367" cx="1675.17" cy="670.319" r="89.317"/><circle class="cls-368" cx="1678.361" cy="668.102" r="89.446"/><circle class="cls-369" cx="1681.551" cy="665.886" r="89.576"/><circle class="cls-370" cx="1684.742" cy="663.669" r="89.705"/><circle class="cls-371" cx="1687.933" cy="661.453" r="89.835"/><circle class="cls-372" cx="1691.123" cy="659.236" r="89.965"/><circle class="cls-373" cx="1694.314" cy="657.02" r="90.094"/><circle class="cls-374" cx="1697.505" cy="654.803" r="90.224"/><circle class="cls-375" cx="1700.695" cy="652.586" r="90.354"/><circle class="cls-376" cx="1703.886" cy="650.37" r="90.483"/><circle class="cls-377" cx="1707.077" cy="648.153" r="90.613"/><circle class="cls-378" cx="1710.267" cy="645.937" r="90.742"/><circle class="cls-379" cx="1713.458" cy="643.72" r="90.872"/><circle class="cls-380" cx="1716.649" cy="641.504" r="91.002"/><circle class="cls-381" cx="1719.839" cy="639.287" r="91.131"/><circle class="cls-382" cx="1723.03" cy="637.071" r="91.261"/><circle class="cls-383" cx="1726.221" cy="634.854" r="91.391"/><circle class="cls-384" cx="1729.411" cy="632.638" r="91.52"/><circle class="cls-385" cx="1732.602" cy="630.421" r="91.65"/><circle class="cls-386" cx="1735.793" cy="628.204" r="91.78"/><circle class="cls-387" cx="1738.983" cy="625.988" r="91.909"/><circle class="cls-388" cx="1742.174" cy="623.771" r="92.039"/><circle class="cls-389" cx="1745.365" cy="621.555" r="92.168"/><circle class="cls-390" cx="1748.555" cy="619.338" r="92.298"/><circle class="cls-391" cx="1751.746" cy="617.122" r="92.428"/><circle class="cls-392" cx="1754.937" cy="614.905" r="92.557"/><circle class="cls-393" cx="1758.127" cy="612.689" r="92.687"/><circle class="cls-394" cx="1761.318" cy="610.472" r="92.817"/><circle class="cls-395" cx="1764.509" cy="608.256" r="92.946"/><circle class="cls-396" cx="1767.699" cy="606.039" r="93.076"/><circle class="cls-397" cx="1770.89" cy="603.823" r="93.206"/><circle class="cls-398" cx="1774.081" cy="601.606" r="93.335"/><circle class="cls-399" cx="1777.271" cy="599.389" r="93.465"/><circle class="cls-400" cx="1780.462" cy="597.173" r="93.594"/><circle class="cls-401" cx="1783.653" cy="594.956" r="93.724"/><circle class="cls-402" cx="1786.843" cy="592.74" r="93.854"/><circle class="cls-403" cx="1790.034" cy="590.523" r="93.983"/><circle class="cls-404" cx="1793.225" cy="588.307" r="94.113"/><circle class="cls-405" cx="1796.415" cy="586.09" r="94.243"/><circle class="cls-406" cx="1799.606" cy="583.874" r="94.372"/><circle class="cls-407" cx="1802.797" cy="581.657" r="94.502"/><circle class="cls-408" cx="1805.987" cy="579.44" r="94.631"/><circle class="cls-409" cx="1809.178" cy="577.224" r="94.761"/><circle class="cls-410" cx="1812.369" cy="575.007" r="94.891"/><circle class="cls-411" cx="1815.56" cy="572.791" r="95.02"/><circle class="cls-412" cx="1818.75" cy="570.574" r="95.15"/><circle class="cls-413" cx="1821.941" cy="568.358" r="95.28"/><path class="cls-414" d="M1825.132,470.732A95.409,95.409,0,1,0,1920,576.318V555.964A95.419,95.419,0,0,0,1825.132,470.732Z"/><path class="cls-415" d="M1828.322,468.386A95.539,95.539,0,1,0,1920,590.876v-53.9A95.576,95.576,0,0,0,1828.322,468.386Z"/><path class="cls-416" d="M1831.513,466.04A95.669,95.669,0,1,0,1920,598.123V525.294A95.693,95.693,0,0,0,1831.513,466.04Z"/><path class="cls-417" d="M1834.7,463.693A95.8,95.8,0,1,0,1920,603.145V515.839A95.793,95.793,0,0,0,1834.7,463.693Z"/><path class="cls-418" d="M1837.894,461.347A95.928,95.928,0,1,0,1920,606.906V507.644A95.873,95.873,0,0,0,1837.894,461.347Z"/><path class="cls-419" d="M1841.085,459A96.057,96.057,0,1,0,1920,609.829V500.289A95.942,95.942,0,0,0,1841.085,459Z"/><path class="cls-420" d="M1844.276,456.655A96.187,96.187,0,1,0,1920,612.158V493.526A96.018,96.018,0,0,0,1844.276,456.655Z"/><path class="cls-421" d="M1847.466,454.309A96.317,96.317,0,1,0,1920,613.991V487.26A96.086,96.086,0,0,0,1847.466,454.309Z"/><path class="cls-422" d="M1850.657,451.963A96.446,96.446,0,1,0,1920,615.434V481.384A96.157,96.157,0,0,0,1850.657,451.963Z"/><path class="cls-423" d="M1853.848,449.616A96.576,96.576,0,1,0,1920,616.547V475.838A96.235,96.235,0,0,0,1853.848,449.616Z"/><path class="cls-424" d="M1857.038,447.27A96.706,96.706,0,1,0,1920,617.374v-146.8A96.322,96.322,0,0,0,1857.038,447.27Z"/><path class="cls-425" d="M1860.229,444.924A96.835,96.835,0,1,0,1920,617.951V465.567A96.42,96.42,0,0,0,1860.229,444.924Z"/><path class="cls-426" d="M1863.42,442.578A96.965,96.965,0,1,0,1920,618.291v-157.5A96.519,96.519,0,0,0,1863.42,442.578Z"/><path class="cls-427" d="M1866.61,440.232a97.094,97.094,0,1,0,53.39,178.2V456.224A96.633,96.633,0,0,0,1866.61,440.232Z"/><path class="cls-428" d="M1869.8,437.885a97.224,97.224,0,1,0,50.2,180.5V451.834A96.768,96.768,0,0,0,1869.8,437.885Z"/><path class="cls-429" d="M1872.992,435.539A97.354,97.354,0,1,0,1920,618.159V447.627A96.908,96.908,0,0,0,1872.992,435.539Z"/><path class="cls-430" d="M1876.182,433.193A97.484,97.484,0,1,0,1920,617.775v-174.2A97.068,97.068,0,0,0,1876.182,433.193Z"/><path class="cls-431" d="M1879.373,430.847A97.613,97.613,0,1,0,1920,617.238V439.683A97.245,97.245,0,0,0,1879.373,430.847Z"/><path class="cls-432" d="M1882.564,428.5A97.743,97.743,0,1,0,1920,616.554V435.933A97.44,97.44,0,0,0,1882.564,428.5Z"/><path class="cls-433" d="M1885.754,426.155A97.872,97.872,0,1,0,1920,615.735V432.319A97.651,97.651,0,0,0,1885.754,426.155Z"/><path class="cls-434" d="M1888.945,423.808A98,98,0,1,0,1920,614.786V428.835A97.89,97.89,0,0,0,1888.945,423.808Z"/><path class="cls-435" d="M1892.136,421.462A98.132,98.132,0,1,0,1920,613.706V425.482A98.139,98.139,0,0,0,1892.136,421.462Z"/><path class="cls-436" d="M1895.326,419.116A98.261,98.261,0,1,0,1920,612.513V422.241A98.431,98.431,0,0,0,1895.326,419.116Z"/><path class="cls-437" d="M1898.517,416.77A98.391,98.391,0,1,0,1920,611.193V419.129A98.718,98.718,0,0,0,1898.517,416.77Z"/><path class="cls-438" d="M1901.708,414.424A98.521,98.521,0,1,0,1920,609.763V416.126A99.036,99.036,0,0,0,1901.708,414.424Z"/><path class="cls-439" d="M1904.9,412.078A98.65,98.65,0,1,0,1920,608.228v-195A99.407,99.407,0,0,0,1904.9,412.078Z"/><path class="cls-440" d="M1908.089,409.731A98.78,98.78,0,1,0,1920,606.574V410.448A99.743,99.743,0,0,0,1908.089,409.731Z"/><path class="cls-441" d="M1911.28,407.385a98.909,98.909,0,1,0,0,197.819c2.939,0,5.846-.136,8.72-.387V407.772C1917.126,407.521,1914.219,407.385,1911.28,407.385Z"/><path class="cls-442" d="M1914.47,405.039a99.039,99.039,0,1,0,0,198.078c1.856,0,3.7-.056,5.53-.156V405.2C1918.169,405.095,1916.326,405.039,1914.47,405.039Z"/><path class="cls-443" d="M1917.661,402.693a99.169,99.169,0,0,0,0,198.337c.782,0,1.561-.012,2.339-.03V402.723C1919.222,402.7,1918.443,402.693,1917.661,402.693Z"/><path class="cls-444" d="M1821.553,499.645A99.294,99.294,0,0,0,1920,598.933V400.357A99.294,99.294,0,0,0,1821.553,499.645Z"/><path class="cls-445" d="M1824.615,497.428A99.425,99.425,0,0,0,1920,596.768V398.089A99.425,99.425,0,0,0,1824.615,497.428Z"/><path class="cls-446" d="M1827.676,495.212A99.562,99.562,0,0,0,1920,594.506V395.918A99.562,99.562,0,0,0,1827.676,495.212Z"/><path class="cls-447" d="M1830.737,493A99.7,99.7,0,0,0,1920,592.142V393.849A99.7,99.7,0,0,0,1830.737,493Z"/><path class="cls-448" d="M1833.8,490.779a99.832,99.832,0,0,0,86.2,98.889V391.89A99.832,99.832,0,0,0,1833.8,490.779Z"/><path class="cls-449" d="M1836.859,488.562A99.969,99.969,0,0,0,1920,587.095V390.03A99.969,99.969,0,0,0,1836.859,488.562Z"/><path class="cls-450" d="M1839.92,486.346A100.109,100.109,0,0,0,1920,584.422V388.27A100.109,100.109,0,0,0,1839.92,486.346Z"/><path class="cls-451" d="M1842.981,484.129a100.242,100.242,0,0,0,77.019,97.5V386.625A100.242,100.242,0,0,0,1842.981,484.129Z"/><path class="cls-452" d="M1846.042,481.913A100.373,100.373,0,0,0,1920,578.737V385.088A100.373,100.373,0,0,0,1846.042,481.913Z"/><path class="cls-453" d="M1849.1,479.7a100.507,100.507,0,0,0,70.9,96.04V383.656A100.507,100.507,0,0,0,1849.1,479.7Z"/><path class="cls-454" d="M1852.164,477.48A100.633,100.633,0,0,0,1920,572.615V382.345A100.633,100.633,0,0,0,1852.164,477.48Z"/><path class="cls-455" d="M1855.225,475.263A100.756,100.756,0,0,0,1920,569.375V381.151A100.756,100.756,0,0,0,1855.225,475.263Z"/><path class="cls-456" d="M1858.286,473.047A100.881,100.881,0,0,0,1920,566.022V380.07A100.881,100.881,0,0,0,1858.286,473.047Z"/><path class="cls-457" d="M1861.347,470.83a100.994,100.994,0,0,0,58.653,91.7V379.127A100.994,100.994,0,0,0,1861.347,470.83Z"/><path class="cls-458" d="M1864.408,468.613A101.107,101.107,0,0,0,1920,558.919V378.308A101.107,101.107,0,0,0,1864.408,468.613Z"/><path class="cls-459" d="M1867.469,466.4A101.214,101.214,0,0,0,1920,555.167V377.627A101.214,101.214,0,0,0,1867.469,466.4Z"/><path class="cls-460" d="M1870.53,464.18A101.316,101.316,0,0,0,1920,551.269V377.092A101.316,101.316,0,0,0,1870.53,464.18Z"/><path class="cls-461" d="M1873.591,461.964A101.415,101.415,0,0,0,1920,547.222V376.706A101.415,101.415,0,0,0,1873.591,461.964Z"/><path class="cls-462" d="M1876.652,459.747A101.507,101.507,0,0,0,1920,543.009V376.485A101.507,101.507,0,0,0,1876.652,459.747Z"/><path class="cls-463" d="M1879.713,457.531A101.6,101.6,0,0,0,1920,538.624V376.438A101.6,101.6,0,0,0,1879.713,457.531Z"/><path class="cls-464" d="M1882.774,455.314A101.684,101.684,0,0,0,1920,534.056V376.572A101.685,101.685,0,0,0,1882.774,455.314Z"/><path class="cls-465" d="M1885.835,453.1A101.761,101.761,0,0,0,1920,529.272V376.923A101.762,101.762,0,0,0,1885.835,453.1Z"/><path class="cls-466" d="M1888.9,450.881a101.843,101.843,0,0,0,31.1,73.388V377.493A101.843,101.843,0,0,0,1888.9,450.881Z"/><path class="cls-467" d="M1891.958,448.665A101.926,101.926,0,0,0,1920,519.017v-140.7A101.926,101.926,0,0,0,1891.958,448.665Z"/><path class="cls-468" d="M1895.019,446.448A102.012,102.012,0,0,0,1920,513.477V379.419A102.012,102.012,0,0,0,1895.019,446.448Z"/><path class="cls-469" d="M1898.08,444.231A102.1,102.1,0,0,0,1920,507.6V380.863A102.1,102.1,0,0,0,1898.08,444.231Z"/><path class="cls-470" d="M1901.141,442.015A102.2,102.2,0,0,0,1920,501.33V382.7A102.2,102.2,0,0,0,1901.141,442.015Z"/><path class="cls-471" d="M1904.2,439.8A102.309,102.309,0,0,0,1920,494.57V385.026A102.309,102.309,0,0,0,1904.2,439.8Z"/><path class="cls-472" d="M1906.622,441.335A102.744,102.744,0,0,0,1920,492.182V390.488A102.744,102.744,0,0,0,1906.622,441.335Z"/><path class="cls-473" d="M1909.043,442.871A103.2,103.2,0,0,0,1920,489.289V396.454A103.2,103.2,0,0,0,1909.043,442.871Z"/><path class="cls-474" d="M1911.463,444.408A103.713,103.713,0,0,0,1920,485.736V403.08A103.711,103.711,0,0,0,1911.463,444.408Z"/><path class="cls-475" d="M1913.884,445.944A104.3,104.3,0,0,0,1920,481.236V410.653A104.3,104.3,0,0,0,1913.884,445.944Z"/><path class="cls-476" d="M1916.3,447.481a105.019,105.019,0,0,0,3.7,27.672V419.809A105.021,105.021,0,0,0,1916.3,447.481Z"/><path class="cls-477" d="M1918.725,449.017A106.114,106.114,0,0,0,1920,465.432V432.6A106.116,106.116,0,0,0,1918.725,449.017Z"/></svg>