<?xml version="1.0" encoding="utf-8"?>
<!-- Generator: Adobe Illustrator 19.0.0, SVG Export Plug-In . SVG Version: 6.00 Build 0)  -->
<svg version="1.0" xmlns="http://www.w3.org/2000/svg" xmlns:xlink="http://www.w3.org/1999/xlink" x="0px" y="0px"
	 width="1459.7px" height="326.8px" viewBox="0 0 1459.7 326.8" enable-background="new 0 0 1459.7 326.8" xml:space="preserve">
<g id="Layer_2">
	<g>
		<path fill="#115FAB" d="M1458.3,85.2c0,9-7.1,16.1-16.3,16.1c-9.1,0-16.4-7.1-16.4-16.1c0-8.8,7.3-15.9,16.4-15.9
			C1451.2,69.3,1458.3,76.4,1458.3,85.2z M1429.6,85.2c0,7.1,5.2,12.7,12.4,12.7c7,0,12.1-5.6,12.1-12.6c0-7.1-5.1-12.8-12.2-12.8
			C1434.9,72.5,1429.6,78.2,1429.6,85.2z M1439.4,93.5h-3.7V77.6c2.6-0.5,8.7-1,11.6,0.7c1.9,1.5,2.8,5.8-1.7,7.2v0.2
			c3.6,1.3,2.7,5.7,4.1,7.9h-4c-0.5-0.6-0.8-2-1.3-3.9c-0.5-2.8-2.6-2.5-5-2.5V93.5z M1439.5,84.5h1.7c2,0,3.7-0.7,3.7-2.3
			c0-1.5-1.1-2.4-3.4-2.4c-1,0-1.6,0.1-2,0.2V84.5z"/>
	</g>
</g>
<g id="Boeing_Logo">
	<path fill="#115FAB" d="M115.3,38.2C52.8,38.2,2.2,88.8,2.2,151.2s50.6,113.1,113.1,113.1s113.1-50.6,113.1-113.1
		S177.7,38.2,115.3,38.2z M115.3,249.6c-55,0-99.6-44.1-99.6-98.4c0-54.3,44.6-98.4,99.6-98.4c55,0,99.6,44.1,99.6,98.4
		C214.8,205.6,170.3,249.6,115.3,249.6z"/>
	<path fill="#115FAB" d="M552.6,71H423.7L335,187.9h134c16.9,0,32.9-7.9,43.1-21.4l12.3-16.3c3.9-5.2,3.4-12.5-1.3-17.1l-0.9-0.9
		c12.1-2.7,22.8-9.6,30.3-19.5l12.7-16.3C573.2,86,565.7,71,552.6,71z M462.6,147l-8.9,11.8c-2.2,2.9-5.6,4.6-9.3,4.6h-27.2
		l17.2-22.6h25.2C462.7,140.8,464.6,144.4,462.6,147z M496.8,101.9l-7.2,9.5c-2.4,3.2-6.1,5-10.1,5h-26.7l15.9-21h24.9
		C497,95.4,498.9,99.2,496.8,101.9z"/>
	<path fill="#115FAB" d="M747.7,71H645.3c-17.2,0-33.4,8-43.8,21.7l-52.9,69.7c-7.9,10.5-0.5,25.5,12.6,25.5h101.9
		c17.5,0,33.9-8.2,44.5-22.1l52.6-69.4C768.2,86,760.8,71,747.7,71z M691.9,102.7l-41.5,54.8c-2.8,3.8-7.3,6-12,6h-17.8
		c-3.2,0-5-3.6-3-6.1l42.7-56.2c2.7-3.5,6.9-5.6,11.3-5.6h16.9C692,95.4,694.2,99.7,691.9,102.7z"/>
	<path fill="#115FAB" d="M944.2,71H816l-88.7,116.9l128.1,0c0,0,19.4-24.5,18.6-24.5c-0.8,0-64.3,0-64.3,0l17.2-22.6h64.3l18.4-24.4
		l-64.2,0l15.9-21H925L944.2,71z"/>
	<polygon fill="#115FAB" points="979.8,71 1044.3,71 955.6,187.9 891.1,187.9 	"/>
	<polygon fill="#115FAB" points="1147,187.9 1096.1,187.9 1083,129.5 1038.7,187.9 995.8,187.9 1084.5,71 1134.3,71 1147.6,130 
		1192.3,71 1235.7,71 	"/>
	<path fill="none" d="M1342,95.4h-17.4c-4.6,0-8.9,2.1-11.6,5.8l-42.1,55.6c-2.1,2.7-0.1,6.6,3.3,6.6h17.6c4.4,0,8.5-2.1,11.2-5.6
		l25-33h-12.7l10.8-13.6h12.1l7-9.3C1347.3,99.3,1345.4,95.4,1342,95.4z"/>
	<path fill="#115FAB" d="M1338.2,111.3h64.6l10.6-14c8.2-10.8,0.5-26.2-13-26.2h-101c-17.4,0-33.9,8.2-44.4,22.1l-52.2,68.8
		c-8.1,10.7-0.5,26.1,13,26.1h100.1c18.1,0,35.2-8.5,46.2-22.9l11.8-15.5h14.3l18.8-24.6c-7.3,0-71.3,0-79,0l-25,33
		c-2.7,3.5-6.8,5.6-11.2,5.6h-17.6c-3.4,0-5.4-3.9-3.3-6.6l42.1-55.6c2.8-3.6,7.1-5.8,11.6-5.8h17.4c3.4,0,5.3,3.9,3.3,6.6
		L1338.2,111.3z"/>
	<path fill="#115FAB" d="M394.7,231.3c-82.4,2.2-157.6,5.3-196.4,8l-41.1-77.4C232.8,235.1,397.4,222.3,394.7,231.3z"/>
	<path fill="#115FAB" d="M46.2,296.3c-14-12.4-4.3-53.1,28.4-107.1C142.7,76.6,236.2,2.5,236.2,2.5C164.6,45.5,123.8,88.3,89.1,131
		c-71.6,88-95,171-64.8,192.2c12.8,9,56.3-0.8,91-53.3C95.6,287.5,61.6,310,46.2,296.3z"/>
</g>
</svg>
