<?xml version="1.0" encoding="utf-8"?>
<!-- Generator: Adobe Illustrator 19.0.0, SVG Export Plug-In . SVG Version: 6.00 Build 0)  -->
<svg version="1.0" id="_x3C_Layer_x3E_" xmlns="http://www.w3.org/2000/svg" xmlns:xlink="http://www.w3.org/1999/xlink" x="0px"
	 y="0px" width="349.4px" height="88.6px" viewBox="0 0 349.4 88.6" enable-background="new 0 0 349.4 88.6" xml:space="preserve">
<path fill="#094572" d="M43,71.5l6.5,7.6l-0.2,0.2c-5.4,6.2-11.9,9.2-19.9,9.2c-8,0-15.3-2.6-20.6-7.3C3,76,0,68.9,0,60.4
	c0-8.5,3-15.6,8.8-20.7c5.3-4.7,12.6-7.3,20.6-7.3c8,0,14.5,3,19.9,9.2l0.2,0.2L43,49.4l-0.3-0.3c-4.1-4-8.8-6.1-13.7-6.1
	c-10.1,0-17.5,7.3-17.5,17.4c0,10.1,7.3,17.4,17.5,17.4c4.9,0,9.6-2.1,13.7-6.1L43,71.5 M56.1,87.4h11.5V33.3H56.1V87.4z
	 M112.6,75.6c-3.1,1.8-5.9,2.7-8.5,2.7c-3.7,0-5.4-1.9-5.4-6.1V43.5h11.7V33.3H98.8V16.5l-11.3,5.8v11h-9.7v10.2h9.7v30.6
	c0,8.3,5.1,14,12.7,14.2c5.2,0.1,8.3-1.4,10.2-2.5l0.1-0.1l2.8-10.4L112.6,75.6 M122.2,87.4h11.5V33.3h-11.5V87.4z M155.7,46.1
	c4.5-5.4,9.7-8.2,15.4-8.2c9.5,0,14.9,8,14.9,21.9c0,15.5-4.9,23.4-14.6,23.4c-6.3,0-12.2-3.2-15.8-8.6l-0.1-0.2v-28L155.7,46.1
	 M149,16.3c0,0.8,0,69.8,0,71.1c1.1,0,5.5,0,6.6,0c0-1.1,0-7.4,0-7.4l1.3,1.4c4.4,4.9,9.2,7.1,15.3,7.1c12.4,0,20.4-11.4,20.4-29
	c0-17.2-7.1-27.2-19.4-27.2c-6.2,0-11.5,2.5-16.3,7.7l-1.3,1.3c0,0,0-26.6,0-28.8C154,13.5,149.5,16,149,16.3z M220.1,59.6
	c6.3,0,10.6,0.9,14.8,3.2l0.4,0.2v11.8l-0.1,0.2c-4.1,5.5-10.1,8.6-16.7,8.6c-7.8,0-12.2-4.4-12.2-12.5
	C206.2,63.9,211.4,59.6,220.1,59.6z M205,36.5c0.4,0.9,1.9,4.2,2.4,5.1c4.9-2.7,9.6-3.9,14.9-3.9c8.6,0,12.9,4.3,12.9,12.9v7.7
	l-1.1-0.6c-3.6-1.9-8.6-3.1-13.7-3.1c-10,0-20.8,4.5-20.8,17c0,15.3,12.1,17,17.2,17c6.6,0,12.2-2.5,17-7.7l1.3-1.3c0,0,0,6.7,0,7.8
	c1.1,0,5.5,0,6.6,0c0-1.4,0-37.8,0-37.8c0-11.6-6.2-17.2-19-17.2C216.4,32.5,210.1,33.9,205,36.5z M261.9,41.9c0,0,0-7.2,0-8.3
	c-1.1,0-5.5,0-6.6,0c0,1.3,0,52.4,0,53.8c1,0,5.5,0,6.6,0c0-1.3,0-31.6,0-31.6c0-11.2,5.5-18,14.6-18c9.6,0,14,5.7,14,18
	c0,0,0,30.2,0,31.6c1.1,0,5.5,0,6.6,0c0-1.3,0-32.9,0-32.9c0-14.4-6.6-22-19-22c-6.2,0-11.5,2.7-14.9,7.6L261.9,41.9z M310.6,16.3
	c0,0.8,0,69.8,0,71.1c1.1,0,5.5,0,6.6,0c0-1.3,0-15.4,0-15.4l10.6-14.3c0,0,14.2,28.9,14.6,29.7c0.7,0,5.4,0,7,0
	c-0.9-1.9-17.4-35-17.4-35s12.7-16.8,14.2-18.8c-1.9,0-6.6,0-7.2,0c-2.1,2.9-18.1,25.3-18.1,25.3l-3.6,5.4c0,0,0-49.4,0-51.6
	C315.7,13.5,311.2,16,310.6,16.3z"/>
<path fill="#FF4000" d="M140.4,23.8c-10.5-14.4-28-22.9-45.7-22.9C76.9,0.9,59.4,9.4,49,23.8l-0.5,0.8h13.2l0.1-0.2
	c9-9,20.8-13.7,32.9-13.7c12.1,0,23.8,4.7,32.9,13.7l0.2,0.2h13.2L140.4,23.8"/>
</svg>
