<?xml version="1.0" encoding="utf-8"?>
<!-- Generator: Adobe Illustrator 16.0.4, SVG Export Plug-In . SVG Version: 6.00 Build 0)  -->
<!DOCTYPE svg PUBLIC "-//W3C//DTD SVG 1.1//EN" "http://www.w3.org/Graphics/SVG/1.1/DTD/svg11.dtd">
<svg version="1.1" id="Layer_1" xmlns="http://www.w3.org/2000/svg" xmlns:xlink="http://www.w3.org/1999/xlink" x="0px" y="0px"
	 width="140px" height="37.215px" viewBox="0 0 140 37.215" enable-background="new 0 0 140 37.215" xml:space="preserve">
<path fill="#231F20" d="M71.288,9.134c3.064,2.795,4.58,6.633,4.58,11.582c0,4.984-1.482,8.924-4.479,11.818
	c-2.962,2.896-7.507,4.344-13.602,4.344H47.046V5.026h11.111C63.848,5.06,68.225,6.339,71.288,9.134z M66.037,28.057
	c1.751-1.649,2.627-4.04,2.627-7.206c0-3.131-0.876-5.623-2.627-7.307c-1.751-1.683-4.444-2.592-8.08-2.592h-4.108v19.562h4.646
	C61.761,30.515,64.286,29.706,66.037,28.057z"/>
<path fill="#231F20" d="M101.188,36.911h-6.363v-3.029c-1.818,2.222-3.939,3.333-6.532,3.333c-2.592,0-4.781-0.741-6.565-2.256
	s-2.66-3.536-2.66-6.027c0-2.524,0.909-4.377,2.761-5.622c1.818-1.246,4.344-1.853,7.509-1.853h5.05v-0.202
	c0-2.626-1.346-3.939-4.107-3.939c-1.178,0-2.424,0.236-3.771,0.707c-1.313,0.472-2.425,1.044-3.367,1.751l-3.063-4.444
	c3.232-2.357,6.936-3.535,11.076-3.535c2.998,0,5.354,0.74,7.273,2.256c1.886,1.481,2.761,3.872,2.761,7.104V36.911L101.188,36.911z
	 M94.353,27.45v-1.01h-4.275c-2.762,0-4.108,0.774-4.108,2.458c0,0.875,0.337,1.515,0.977,1.986s1.583,0.673,2.828,0.673
	c1.212,0,2.29-0.37,3.198-1.145C93.915,29.706,94.353,28.696,94.353,27.45z"/>
<path fill="#231F20" d="M119.269,18.259c-2.054,0-3.67,0.707-4.68,2.188c-1.011,1.448-1.617,3.366-1.617,5.757v10.741h-6.834V12.399
	h6.834v3.132c0.91-1.011,2.155-1.853,3.469-2.56c1.312-0.707,2.896-1.076,4.242-1.11v6.464L119.269,18.259L119.269,18.259z"/>
<path fill="#231F20" d="M131.659,17.35V28.19c0,0.943,0.27,1.684,0.774,2.223c0.472,0.539,1.077,0.809,1.751,0.809
	c1.279,0,2.356-0.572,3.266-1.751l2.559,4.814c-2.121,1.953-4.377,2.93-6.733,2.93c-2.357,0-4.344-0.774-5.993-2.323
	c-1.65-1.549-2.425-3.67-2.425-6.363V5.093h6.835v6.836h7.273l-3.737,5.454L131.659,17.35L131.659,17.35z"/>
<path fill="#00C4B3" d="M9.976,10.043L7.585,7.652v17.239L7.619,25.7c0,0.369,0.068,0.808,0.203,1.245l18.922,6.667l4.714-2.088l0,0
	L9.976,10.043z"/>
<path fill="#22D3C5" d="M7.822,26.945L7.822,26.945L7.822,26.945L7.822,26.945z M31.458,31.524l-4.714,2.088L7.855,26.945
	c0.37,1.38,1.145,2.929,2.02,3.805l6.162,6.128l13.737,0.033L31.458,31.524L31.458,31.524z"/>
<path fill="#0075C9" d="M7.653,7.652l-7.34,11.111c-0.606,0.64-0.304,1.986,0.673,2.997l4.242,4.275l2.66,0.943
	c-0.101-0.438-0.201-0.876-0.201-1.246l-0.034-0.809V7.652L7.653,7.652z"/>
<path fill="#0075C9" d="M26.878,7.854c-0.438-0.102-0.875-0.168-1.246-0.202l-0.842-0.034H7.585l23.872,23.873l0,0l2.087-4.715
	L26.878,7.854z"/>
<path fill="#00A8E1" d="M26.845,7.854C26.878,7.854,26.878,7.854,26.845,7.854L26.845,7.854C26.878,7.854,26.878,7.854,26.845,7.854
	z M30.683,9.874c-0.875-0.875-2.391-1.684-3.805-2.02l6.666,18.922l-2.087,4.715l0,0l5.118-1.65v-14.04L30.683,9.874z"/>
<path fill="#00C4B3" d="M25.935,5.228L21.66,0.985c-0.977-0.977-2.323-1.279-2.996-0.673L7.552,7.652h17.205l0.842,0.034
	c0.37,0,0.809,0.066,1.246,0.201L25.935,5.228z"/>
</svg>
