<svg xmlns="http://www.w3.org/2000/svg" xmlns:xlink="http://www.w3.org/1999/xlink" width="512" height="512" onload="init()" id="xxK9nGEDYPswcS97y"><script type="application/javascript"> <![CDATA[ 
function init(){}
 ]]> </script><g id="viewport" transform="matrix(0.5 0 0 0.5 0 0)"><g id="JGm4ZTm9p7v9YEfDm" type="layer"><title>JGm4ZTm9p7v9YEfDm</title><path d="M0 102C0 46.575340270996094 46.575340270996094 0 102 0L922 0C977.4246826171875 0 1024 46.575340270996094 1024 102L1024 922C1024 977.4246826171875 977.4246826171875 1024 922 1024L102 1024C46.575340270996094 1024 0 977.4246826171875 0 922L0 102Z" name="undefined" id="bCNBTxdARumAmm7sx" type="complex_path" stroke="#000000" stroke-width="0" stroke-opacity="1" fill="#f26522" fill-opacity="1" opacity="1"/><path d="M92.04583740234375 701.7486572265625L324.5306091308594 701.7486572265625L324.5306091308594 638.4989624023438L163.84255981445312 638.4989624023438L163.84255981445312 540.4908447265625L311.99462890625 540.4908447265625L311.99462890625 477.2412109375L163.84255981445312 477.2412109375L163.84255981445312 385.5008544921875L324.5306091308594 385.5008544921875L324.5306091308594 322.2513427734375L92.04583740234375 322.2513427734375L92.04583740234375 701.7486572265625L92.04583740234375 701.7486572265625ZM635.0802612304688 598.6119384765625C635.0802612304688 522.826416015625 629.9519653320312 506.3018493652344 527.9548950195312 481.7997131347656C462.4260559082031 465.8448486328125 461.28643798828125 464.7052917480469 461.28643798828125 421.3992919921875C461.28643798828125 388.3498840332031 469.8337097167969 378.09326171875 518.26806640625 378.09326171875C551.3173217773438 378.09326171875 588.3554077148438 382.65179443359375 619.6951904296875 389.4895935058594L627.6725463867188 329.089111328125C590.0647583007812 320.5418701171875 550.1775512695312 316.5531921386719 517.1282958984375 316.5531921386719C420.8295593261719 316.5531921386719 389.4896545410156 350.7420959472656 389.4896545410156 419.6897888183594C389.4896545410156 500.03387451171875 402.02557373046875 517.6981811523438 493.7659606933594 538.2114868164062C562.143798828125 553.026611328125 563.283447265625 556.4456176757812 563.283447265625 598.6119384765625C563.283447265625 635.0802001953125 554.7362060546875 645.9066162109375 502.8830261230469 645.9066162109375C465.275146484375 645.9066162109375 431.0862121582031 639.06884765625 395.7575988769531 628.242431640625L383.2216491699219 684.654052734375C408.2935791015625 696.6202392578125 458.43731689453125 707.4468383789062 501.7433166503906 707.4468383789062C613.9970092773438 707.4468383789062 635.0802612304688 670.40869140625 635.0802612304688 598.6119384765625L635.0802612304688 598.6119384765625L635.0802612304688 598.6119384765625ZM767.2775268554688 457.29766845703125C767.2775268554688 399.17645263671875 795.198486328125 387.7801208496094 862.436767578125 387.7801208496094C874.40283203125 387.7801208496094 899.4747314453125 389.4895935058594 915.9993286132812 392.90850830078125L920.557861328125 334.78729248046875C903.46337890625 330.79852294921875 876.1122436523438 327.9494934082031 855.029052734375 327.9494934082031C751.3225708007812 327.9494934082031 697.7598876953125 359.8591613769531 697.7598876953125 460.1467590332031L697.7598876953125 598.6119384765625C697.7598876953125 664.1408081054688 717.1336059570312 707.4468383789062 815.1419677734375 707.4468383789062C904.6030883789062 707.4468383789062 931.9541625976562 663.0010986328125 931.9541625976562 603.740234375L931.9541625976562 576.38916015625C931.9541625976562 510.8603515625 904.033203125 482.3695068359375 835.0855102539062 482.3695068359375C810.5834350585938 482.3695068359375 787.220947265625 485.7884521484375 767.2775268554688 492.626220703125L767.2775268554688 457.29766845703125L767.2775268554688 457.29766845703125ZM824.259033203125 542.2002563476562C849.3308715820312 542.2002563476562 862.436767578125 550.7474975585938 862.436767578125 578.0986328125L862.436767578125 606.01953125C862.436767578125 635.0802001953125 851.0404663085938 647.6160888671875 815.1419677734375 647.6160888671875C779.2435913085938 647.6160888671875 767.2775268554688 637.3594970703125 767.2775268554688 606.01953125L767.2775268554688 554.1663818359375C783.2322387695312 547.3284912109375 803.7456665039062 542.2002563476562 824.259033203125 542.2002563476562L824.259033203125 542.2002563476562L824.259033203125 542.2002563476562Z" name="undefined" id="frAsa8H8dpNGYkegv" type="complex_path" stroke="#000000" stroke-width="0" stroke-opacity="1" fill="#ffffff" fill-opacity="1" stroke-linejoin="miter" stroke-linecap="butt" opacity="1"/></g></g></svg>