<?xml version="1.0" encoding="utf-8"?>
<!-- Generator: Adobe Illustrator 19.0.0, SVG Export Plug-In . SVG Version: 6.00 Build 0)  -->
<svg version="1.0" id="Layer_1" xmlns="http://www.w3.org/2000/svg" xmlns:xlink="http://www.w3.org/1999/xlink" x="0px" y="0px"
	 width="350.9px" height="351px" viewBox="0.5 0.6 350.9 351" enable-background="new 0.5 0.6 350.9 351" xml:space="preserve">
<g>
	<path fill="#0072B8" d="M175.5,1.1c5.2,0,10.4-1.2,15.6-0.1c22.9,2,45.5,8.3,65.8,19c26.3,13.5,49,34,65.4,58.6
		c16.8,25,26.7,54.4,28.9,84.4c-0.4,7.9-0.6,15.9,0.2,23.9c-1.6,22.8-7.4,45.4-17.5,66c-11.6,23.9-28.8,45-49.7,61.3
		c-26.1,20.4-58.1,33.2-91.1,36.3c-5,0.4-10.1,1.3-15.1,0.9c-3.4-0.2-6.8,0.9-10-0.5c12.3-34.7,24.6-69.4,37.1-104
		c13.5-0.3,27.1,0.1,40.6-0.2c8.6-0.3,17.2-5.6,20-14c11.5-32.2,23.2-64.4,34.3-96.8c1.8-4.9,2.8-10.3,1.4-15.5
		c-2-6.5-7.9-11.1-14.3-12.8c-5.5-1.7-11.4-1.1-17.1-1.2c-17.4-0.1-34.8,0.1-52.1-0.1c-0.3,0.6-0.9,1.7-1.1,2.3
		c-28.1,79-56.2,158.1-84.5,237.1c-29-7.5-56.1-22.6-77.6-43.5c-26-24.8-44-57.9-50.7-93.2c-2.1-10.6-2.9-21.4-3.4-32.2
		c0.5-22.4,4.1-45,12.6-65.8C33.8,58.4,81.4,17,136.9,5.1c-28.4,78.7-56.1,157.6-84.5,236.3c1.8,0.5,3.7,0.3,5.6,0.4
		c10.3-0.1,20.7,0,31,0c1.4,0,1.3-2,1.9-2.9c12.5-35.2,25.1-70.3,37.6-105.5c0.8-2.2,1.4-4.4,2.4-6.5c6.5,0.1,13,0,19.4,0.1
		c-13.6,38.1-27.1,76.3-40.8,114.3c1.4,0.6,3,0.4,4.5,0.4c10.9-0.1,21.7,0.1,32.6-0.1c12.3-34.6,24.7-69.2,37-103.8
		c2.6-7.1,2.9-15.5-1.3-22c-3.7-5.8-10.6-8.5-17.2-8.8c-9-0.3-18.1,0-27.1-0.1C150.4,71.7,163.2,36.5,175.5,1.1z"/>
</g>
<path fill="#0072B8" d="M247.5,127.4c1.1-1.2,3-0.5,4.4-0.7c5,0.1,10,0,15.1,0.1c-11.7,33.4-23.9,66.5-35.4,100
	c-6.5,0.5-13,0.2-19.6,0.1C223.9,193.8,235.7,160.6,247.5,127.4z"/>
</svg>
