<?xml version="1.0" encoding="utf-8"?>
<!-- Generator: Adobe Illustrator 18.1.1, SVG Export Plug-In . SVG Version: 6.00 Build 0)  -->
<svg xmlns:xlink="http://www.w3.org/1999/xlink" version="1.1" id="Layer_1" xmlns="http://www.w3.org/2000/svg" x="0px" y="0px"
	 width="375px" height="418.5px" viewBox="57.6 242.1 375 418.5" enable-background="new 57.6 242.1 375 418.5"
	 xml:space="preserve">
<path fill="#99425B" stroke="#FFFFFF" stroke-width="29.0856" d="M366.4,450.8c-0.5,0.3-15.9-2.3-35.3-3.6c-15.8-1.1-34.3-1-49.3,0
	c-12.2,0.8-28.2-5.3-30.1,2c-7.2,27.2-22.6,51-42.2,69.5c-14.7,13.9-31.6,24.5-49.9,31c-21.7-11.2-32-36-22.7-57.8
	c7.3-17.3,15.9-36.3,0.1-40.6c-11.5-3.2-17.8,7.8-22.2,19.6c-8.5,22.5-24.5,45.8-29.1,73.5c-4.8,29.2,0,60.1,25.2,77.6
	c58.7,40.7,122.5-25.2,189.7-41.8c24.4-6,51.1-5,72.6-17.5c16.1-9.3,26.7-24.8,29.8-42.2C407.7,492.4,393.1,464.7,366.4,450.8z"/>
<path fill="none" stroke="#FFFFFF" stroke-width="29.0856" d="M251.6,449.1c-7.2,27.2-22.6,51-42.2,69.5
	c-14.7,13.9-31.6,24.5-49.9,31c-21.7-11.2-32-36-22.7-57.8c7.3-17.3,15.9-36.3,0.1-40.6c-11.5-3.2-17.8,7.8-22.2,19.6
	c-8.5,22.5-24.5,45.8-29.1,73.5c-4.8,29.2,0,60.1,25.2,77.6c58.7,40.7,122.5-25.2,189.7-41.8c24.4-6,51.1-5,72.6-17.5
	c16.1-9.3,26.7-24.8,29.8-42.2c4.8-27.9-9.7-55.7-36.4-69.6"/>
<polygon fill="#99425B" points="305.5,340.4 352.7,436.8 409.3,269.9 201.6,269.9 258,436.5 "/>
<polygon fill="none" stroke="#FFFFFF" stroke-width="29.0856" points="305.5,340.4 352.7,436.8 409.3,269.9 201.6,269.9 258,436.5 
	"/>
<circle fill="#99425B" cx="248.2" cy="449.4" r="35.6"/>
<circle fill="none" stroke="#FFFFFF" stroke-width="29.0856" cx="248.2" cy="449.4" r="35.6"/>
<circle fill="#99425B" stroke="#FFFFFF" stroke-width="29.0856" cx="364.1" cy="449.4" r="35.6"/>
<circle fill="none" stroke="#FFFFFF" stroke-width="29.0856" cx="364.1" cy="449.4" r="35.6"/>
<circle fill="#99425B" cx="131.8" cy="449.7" r="35.6"/>
<circle fill="none" stroke="#FFFFFF" stroke-width="29.0856" cx="131.8" cy="449.7" r="35.6"/>
</svg>
