<svg width="256" height="110" viewBox="0 0 256 110" xmlns="http://www.w3.org/2000/svg"
     xmlns:xlink="http://www.w3.org/1999/xlink">
    <defs>
        <linearGradient x1="50%" y1="0%" x2="50%" y2="100%" id="b">
            <stop stop-color="#2E4F82" offset="0%"/>
            <stop stop-color="#182E4D" offset="100%"/>
        </linearGradient>
        <path id="a"
              d="M224.236 88.738c0 11.564-9.688 21.025-21.53 21.025H21.75c-11.84 0-21.53-9.46-21.53-21.025V21.78C.22 10.22 9.91.757 21.75.757h180.957c11.84 0 21.53 9.462 21.53 21.025V88.74"/>
        <path id="c" d="M-15.94.496H240V110H-15.94"/>
    </defs>
    <g transform="translate(16)" fill="none" fill-rule="evenodd">
        <use fill="url(#b)" xlink:href="#a"/>
        <mask id="d" fill="#fff">
            <use xlink:href="#c"/>
        </mask>
        <use xlink:href="#c"/>
        <path d="M229.07 40.43c0-8.197 1.262-13.03 1.262-21.858 0-13.662-5.045-18.076-16.184-18.076h-8.197v9.668h2.523c5.675 0 6.936 1.892 6.936 8.828 0 6.515-.632 13.03-.632 20.598 0 9.668 3.153 13.45 9.458 14.922v.63c-6.305 1.472-9.458 5.256-9.458 14.924 0 7.566.63 13.662.63 20.598 0 7.146-1.47 9.037-6.935 9.037v.21h-2.522V110h8.198c11.14 0 16.184-4.414 16.184-18.075 0-9.038-1.26-13.662-1.26-21.86 0-4.413 2.73-9.037 10.928-9.457v-10.93c-8.197-.21-10.93-4.834-10.93-9.248M135.96 53.25c-6.515-2.52-12.4-3.992-12.4-8.196 0-3.152 2.522-5.044 7.146-5.044 4.624 0 8.828 1.892 13.452 5.255l8.407-11.14c-5.255-3.993-12.4-8.197-22.07-8.197-14.29 0-23.96 8.197-23.96 19.757 0 10.3 9.038 15.553 16.605 18.496 6.515 2.523 12.82 4.625 12.82 8.828 0 3.153-2.522 5.255-8.196 5.255-5.255 0-10.51-2.102-16.184-6.516l-8.197 12.19c6.305 5.255 15.973 8.828 23.96 8.828 16.815 0 25.852-8.827 25.852-20.387s-9.037-16.394-17.234-19.127M186.824 53.25c-6.305-2.52-12.19-3.992-12.19-8.196 0-3.152 2.522-5.044 7.146-5.044 4.624 0 8.828 1.892 13.452 5.255l8.407-11.14c-5.256-3.993-12.402-8.197-22.07-8.197-14.293 0-23.96 8.197-23.96 19.757 0 10.3 9.037 15.553 16.603 18.496 6.516 2.523 12.82 4.625 12.82 8.828 0 3.153-2.52 5.255-8.196 5.255-5.254 0-10.51-2.102-16.183-6.516l-8.408 12.19c6.306 5.255 15.974 8.828 23.96 8.828 16.815 0 25.853-8.827 25.853-20.387s-9.04-16.394-17.236-19.127M61.977 52.2c1.26-8.407 6.305-12.4 12.19-12.4 7.567 0 10.51 5.254 10.51 12.4h-22.7zm38.673 3.784c.21-17.025-9.038-30.266-26.693-30.266-15.343 0-30.055 12.82-29.635 32.998 0 20.808 13.662 32.998 31.737 32.998 7.566 0 15.973-2.732 22.488-7.146l-6.305-11.14c-4.624 2.733-9.038 3.994-13.662 3.994-8.406 0-14.922-3.993-16.603-13.662h38.043c.21-1.47.63-4.413.63-7.776z"
              fill="#d6dce2" mask="url(#d)"/>
        <path d="M43.27 77.002c-1.47 0-3.362-1.26-3.362-5.255V.497H10.062C-1.288.496-6.332 4.91-6.332 18.57c0 9.037 1.26 14.082 1.26 21.858 0 4.414-2.73 9.038-10.928 9.458v10.93c8.197.21 10.93 4.834 10.93 9.248 0 7.777-1.262 12.4-1.262 21.438 0 13.662 5.045 18.076 16.184 18.076h8.197v-9.67h-2.523c-5.254 0-6.936-2.1-6.936-9.036s.632-12.82.632-20.598c0-9.668-3.153-13.452-9.46-14.923v-.63c6.307-1.472 9.46-5.255 9.46-14.923 0-7.567-.63-13.662-.63-20.598 0-6.936 1.47-8.827 6.935-8.827h5.675v60.32c0 12.822 4.414 21.23 17.235 21.23 3.993 0 7.146-.63 9.458-1.472l-2.102-13.66c-1.26.21-1.89.21-2.522.21"
              fill="#d6dce2" mask="url(#d)"/>
    </g>
</svg>