<svg xmlns="http://www.w3.org/2000/svg" xmlns:xlink="http://www.w3.org/1999/xlink" viewBox="0 0 442.371 270.927">
  <defs>
    <linearGradient id="linear-gradient" x1="180.34139" y1="191.17679" x2="142.39791" y2="113.38114" gradientTransform="matrix(1, 0, 0, -1, 0, 271.81)" gradientUnits="userSpaceOnUse">
      <stop offset="0" stop-color="#41873f"/>
      <stop offset="1" stop-color="#3fae2a"/>
    </linearGradient>
    <linearGradient id="linear-gradient-2" x1="164.67503" y1="156.25379" x2="202.30912" y2="184.05986" gradientTransform="matrix(1, 0, 0, -1, 0, 271.81)" gradientUnits="userSpaceOnUse">
      <stop offset="0" stop-color="#41873f"/>
      <stop offset="1" stop-color="#56a344"/>
    </linearGradient>
    <linearGradient id="linear-gradient-3" x1="129.29821" y1="172.64162" x2="207.8141" y2="135.39033" gradientTransform="matrix(1, 0, 0, -1, 0, 271.81)" gradientUnits="userSpaceOnUse">
      <stop offset="0" stop-color="#6cc04a"/>
      <stop offset="1" stop-color="#41873f"/>
    </linearGradient>
  </defs>
  <path d="M218.647,270.927a8.37356,8.37356,0,0,1-4.19-1.121l-13.339-7.892c-1.991-1.115-1.018-1.509-.362-1.738a26.62338,26.62338,0,0,0,6.031-2.743,1.02511,1.02511,0,0,1,.992.076l10.247,6.084a1.3149,1.3149,0,0,0,1.237,0l39.95-23.058a1.25819,1.25819,0,0,0,.61-1.081V193.35a1.28973,1.28973,0,0,0-.62-1.101L219.27,169.211a1.25024,1.25024,0,0,0-1.231,0l-39.923,23.045a1.28379,1.28379,0,0,0-.633,1.094v46.103a1.22448,1.22448,0,0,0,.63,1.068l10.944,6.323c5.938,2.969,9.573-.528,9.573-4.041v-45.52a1.15024,1.15024,0,0,1,1.161-1.151h5.066a1.15272,1.15272,0,0,1,1.158,1.151v45.52c0,7.925-4.316,12.47-11.829,12.47-2.309,0-4.127,0-9.202-2.501l-10.476-6.031a8.43947,8.43947,0,0,1-4.19-7.288V193.35a8.4175,8.4175,0,0,1,4.19-7.281l39.95-23.085a8.75221,8.75221,0,0,1,8.396,0l39.947,23.085a8.4337,8.4337,0,0,1,4.196,7.281v46.103a8.45732,8.45732,0,0,1-4.196,7.288l-39.947,23.065A8.38122,8.38122,0,0,1,218.647,270.927Z" fill="#699f63"/>
  <path d="M230.988,239.165c-17.482,0-21.144-8.024-21.144-14.755a1.14829,1.14829,0,0,1,1.155-1.151h5.165a1.158,1.158,0,0,1,1.148.979c.78,5.258,3.105,7.912,13.677,7.912,8.416,0,11.999-1.904,11.999-6.369,0-2.574-1.015-4.485-14.095-5.766-10.93-1.081-17.691-3.496-17.691-12.241,0-8.061,6.794-12.868,18.186-12.868,12.798,0,19.131,4.442,19.933,13.972a1.15481,1.15481,0,0,1-1.151,1.257h-5.185a1.14993,1.14993,0,0,1-1.121-.902c-1.244-5.533-4.269-7.301-12.476-7.301-9.189,0-10.257,3.201-10.257,5.599,0,2.906,1.261,3.752,13.667,5.394,12.277,1.622,18.109,3.921,18.109,12.549C250.904,234.179,243.646,239.165,230.988,239.165Z" fill="#699f63"/>
  <path d="M288.593,190.814a7.699,7.699,0,1,1-7.699-7.701A7.71965,7.71965,0,0,1,288.593,190.814Zm-14.155-.022a6.457,6.457,0,1,0,6.435-6.436A6.45918,6.45918,0,0,0,274.438,190.792Zm3.563-4.297h2.976c1.018,0,3.015,0,3.015,2.282a1.98431,1.98431,0,0,1-1.632,2.118c1.184.082,1.264.856,1.426,1.956a8.524,8.524,0,0,0,.448,2.281h-1.831c-.043-.406-.328-2.607-.328-2.728-.119-.489-.285-.733-.895-.733h-1.506v3.461h-1.672v-8.637Zm1.632,3.788h1.344a1.16152,1.16152,0,0,0,1.304-1.221c0-1.183-.816-1.183-1.264-1.183h-1.383v2.404Z" fill="#699f63"/>
  <path d="M94.937,90.55a5.1083,5.1083,0,0,0-2.558-4.445L50.024,61.73a5.00089,5.00089,0,0,0-2.332-.674h-.438a5.05528,5.05528,0,0,0-2.339.674L2.561,86.105A5.132,5.132,0,0,0,0,90.55l.093,65.635a2.5127,2.5127,0,0,0,1.277,2.209,2.4614,2.4614,0,0,0,2.541,0L29.083,143.98a5.15406,5.15406,0,0,0,2.561-4.438V108.877a5.09705,5.09705,0,0,1,2.554-4.429l10.718-6.173a5.09168,5.09168,0,0,1,2.564-.687,5.0117,5.0117,0,0,1,2.544.687l10.715,6.173a5.10076,5.10076,0,0,1,2.558,4.429v30.665a5.166,5.166,0,0,0,2.564,4.438l25.165,14.414a2.49206,2.49206,0,0,0,2.558,0,2.55589,2.55589,0,0,0,1.271-2.209Z" fill="#333"/>
  <path d="M298.735.324a2.55793,2.55793,0,0,0-3.805,2.234v65a1.79,1.79,0,0,1-2.686,1.551l-10.608-6.112a5.11769,5.11769,0,0,0-5.112.002L234.152,87.452a5.11475,5.11475,0,0,0-2.559,4.43v48.916a5.12038,5.12038,0,0,0,2.558,4.432l42.37,24.471a5.11919,5.11919,0,0,0,5.118,0l42.376-24.471a5.11914,5.11914,0,0,0,2.558-4.432V18.862a5.11709,5.11709,0,0,0-2.624-4.469Zm-3.932,124.402a1.27556,1.27556,0,0,1-.64,1.106l-14.548,8.386a1.28242,1.28242,0,0,1-1.277,0l-14.548-8.386a1.27561,1.27561,0,0,1-.64-1.106V107.927a1.28239,1.28239,0,0,1,.639-1.108l14.548-8.403a1.27832,1.27832,0,0,1,1.28,0l14.548,8.403a1.28245,1.28245,0,0,1,.639,1.108v16.799Z" fill="#333"/>
  <g>
    <path d="M439.825,107.488a5.11582,5.11582,0,0,0,2.546-4.424V91.21a5.11508,5.11508,0,0,0-2.548-4.425L397.724,62.342a5.11663,5.11663,0,0,0-5.127-.007L350.241,86.788a5.11469,5.11469,0,0,0-2.558,4.43v48.903a5.1146,5.1146,0,0,0,2.584,4.445l42.093,23.985a5.11236,5.11236,0,0,0,5.017.028l25.46-14.151a2.55891,2.55891,0,0,0,.031-4.455l-42.625-24.465a2.558,2.558,0,0,1-1.285-2.22V107.962a2.55555,2.55555,0,0,1,1.28-2.216l13.266-7.648a2.55507,2.55507,0,0,1,2.554,0l13.273,7.648a2.55555,2.55555,0,0,1,1.28,2.216V120.02a2.55819,2.55819,0,0,0,3.843,2.213Z" fill="#333"/>
    <path d="M394.536,105.197a.97916.97916,0,0,1,.982,0l8.13,4.69a.98188.98188,0,0,1,.491.851v9.388a.98187.98187,0,0,1-.491.851l-8.13,4.69a.97916.97916,0,0,1-.982,0l-8.124-4.69a.98188.98188,0,0,1-.491-.851v-9.388a.98187.98187,0,0,1,.491-.851Z" fill="#699f63"/>
  </g>
  <g>
    <path id="_Path_" data-name="&lt;Path&gt;" d="M165.814,62.59a5.08558,5.08558,0,0,0-5.087,0L118.593,86.904a5.08628,5.08628,0,0,0-2.546,4.408v48.666a5.0935,5.0935,0,0,0,2.544,4.408l42.134,24.334a5.09306,5.09306,0,0,0,5.091,0l42.124-24.334a5.09131,5.09131,0,0,0,2.543-4.408V91.31a5.08663,5.08663,0,0,0-2.545-4.406Z" fill="url(#linear-gradient)"/>
    <path d="M208.021,86.904,165.77,62.59a5.04386,5.04386,0,0,0-1.322-.526l-47.35419,81.0052A6.05123,6.05123,0,0,0,118.428,144.385l42.323,24.334a5.13747,5.13747,0,0,0,3.931.492l44.43367-81.37432A5.66668,5.66668,0,0,0,208.021,86.904Z" fill="url(#linear-gradient-2)"/>
    <path d="M208.045,144.386a5.28857,5.28857,0,0,0,2.34343-3.436L164.219,62.02a5.15656,5.15656,0,0,0-3.581.571L118.67,86.758l45.337,82.594a5.107,5.107,0,0,0,1.861-.632Z" fill="url(#linear-gradient-3)"/>
  </g>
</svg>
