<?xml version="1.0" encoding="utf-8"?>
<!-- Generator: Adobe Illustrator 16.0.4, SVG Export Plug-In . SVG Version: 6.00 Build 0)  -->
<!DOCTYPE svg PUBLIC "-//W3C//DTD SVG 1.1//EN" "http://www.w3.org/Graphics/SVG/1.1/DTD/svg11.dtd">
<svg version="1.1" id="Layer_1" xmlns="http://www.w3.org/2000/svg" xmlns:xlink="http://www.w3.org/1999/xlink" x="0px" y="0px"
	 width="140px" height="104.931px" viewBox="0 0 140 104.931" enable-background="new 0 0 140 104.931" xml:space="preserve">
<path fill="#CD6799" d="M120.481,60.321c-4.881,0.025-9.123,1.201-12.676,2.939c-1.304-2.582-2.607-4.881-2.837-6.568
	c-0.256-1.968-0.562-3.169-0.256-5.52c0.307-2.352,1.687-5.699,1.661-5.955c-0.025-0.255-0.307-1.457-3.117-1.482
	c-2.812-0.026-5.24,0.537-5.521,1.278c-0.281,0.741-0.817,2.428-1.175,4.166c-0.485,2.556-5.622,11.68-8.562,16.459
	c-0.945-1.866-1.764-3.502-1.942-4.805c-0.256-1.969-0.562-3.17-0.256-5.521c0.307-2.352,1.687-5.699,1.661-5.955
	c-0.025-0.255-0.307-1.457-3.117-1.482c-2.812-0.026-5.24,0.537-5.521,1.278c-0.28,0.741-0.587,2.479-1.175,4.166
	c-0.588,1.687-7.412,16.918-9.201,20.853c-0.92,2.02-1.712,3.629-2.274,4.729l0,0c0,0-0.025,0.076-0.102,0.205
	c-0.486,0.945-0.767,1.456-0.767,1.456s0,0,0,0.025c-0.383,0.69-0.792,1.329-0.997,1.329c-0.153,0-0.435-1.84,0.051-4.345
	c1.022-5.29,3.45-13.519,3.424-13.8c0-0.153,0.46-1.585-1.584-2.325c-1.993-0.741-2.709,0.485-2.888,0.485
	c-0.179,0-0.307,0.435-0.307,0.435s2.223-9.252-4.243-9.252c-4.038,0-9.609,4.422-12.369,8.408
	c-1.738,0.945-5.444,2.965-9.405,5.137c-1.508,0.844-3.066,1.688-4.523,2.479c-0.102-0.103-0.205-0.229-0.307-0.333
	c-7.82-8.356-22.286-14.26-21.672-25.479c0.23-4.089,1.636-14.823,27.78-27.857c21.519-10.606,38.642-7.667,41.607-1.15
	c4.242,9.303-9.176,26.579-31.41,29.083c-8.485,0.946-12.932-2.326-14.056-3.552c-1.176-1.278-1.354-1.354-1.789-1.099
	c-0.715,0.383-0.255,1.534,0,2.198c0.665,1.738,3.399,4.804,8.025,6.312c4.089,1.329,14.031,2.07,26.068-2.582
	c13.469-5.213,23.998-19.704,20.905-31.844C84.522,0.518,64.078-3.545,44.731,3.33c-11.5,4.089-23.972,10.529-32.942,18.912
	C1.131,32.208-0.556,40.873,0.135,44.501c2.479,12.88,20.241,21.263,27.346,27.473c-0.358,0.204-0.69,0.383-0.971,0.537
	c-3.552,1.763-17.098,8.842-20.471,16.33c-3.833,8.484,0.613,14.567,3.553,15.385c9.124,2.531,18.503-2.019,23.538-9.532
	s4.421-17.276,2.096-21.749c-0.025-0.051-0.051-0.102-0.102-0.153c0.92-0.536,1.865-1.099,2.786-1.636
	c1.814-1.073,3.604-2.07,5.137-2.887c-0.869,2.376-1.508,5.213-1.814,9.302c-0.383,4.805,1.584,11.04,4.166,13.494
	c1.15,1.073,2.505,1.099,3.374,1.099c3.016,0,4.37-2.504,5.878-5.469c1.84-3.629,3.501-7.846,3.501-7.846s-2.07,11.398,3.552,11.398
	c2.045,0,4.115-2.658,5.035-4.013c0,0.025,0,0.025,0,0.025s0.051-0.077,0.153-0.256c0.205-0.332,0.333-0.536,0.333-0.536
	s0-0.025,0-0.051c0.818-1.432,2.658-4.678,5.393-10.07c3.526-6.951,6.926-15.64,6.926-15.64s0.307,2.121,1.354,5.648
	c0.613,2.07,1.892,4.344,2.914,6.542c-0.818,1.149-1.329,1.788-1.329,1.788s0,0,0.025,0.026c-0.664,0.868-1.38,1.814-2.173,2.734
	c-2.785,3.322-6.107,7.13-6.567,8.229c-0.536,1.304-0.409,2.25,0.613,3.016c0.741,0.562,2.07,0.639,3.425,0.562
	c2.504-0.179,4.268-0.792,5.137-1.176c1.354-0.485,2.939-1.227,4.422-2.325c2.734-2.019,4.396-4.907,4.242-8.715
	c-0.077-2.096-0.768-4.191-1.61-6.159c0.256-0.357,0.485-0.716,0.741-1.074c4.318-6.312,7.667-13.238,7.667-13.238
	s0.307,2.121,1.354,5.648c0.512,1.789,1.559,3.731,2.479,5.623c-4.062,3.297-6.567,7.129-7.462,9.634
	c-1.61,4.651-0.358,6.746,2.019,7.232c1.074,0.23,2.607-0.281,3.731-0.767c1.431-0.46,3.118-1.253,4.728-2.429
	c2.735-2.019,5.367-4.83,5.215-8.638c-0.077-1.737-0.537-3.45-1.176-5.111c3.449-1.431,7.896-2.224,13.57-1.559
	c12.165,1.431,14.567,9.021,14.107,12.215c-0.461,3.195-3.016,4.933-3.859,5.469c-0.844,0.537-1.125,0.716-1.048,1.1
	c0.103,0.562,0.511,0.537,1.227,0.434c0.997-0.178,6.39-2.58,6.62-8.459C140.288,68.448,133.132,60.245,120.481,60.321z
	 M26.637,91.96c-4.038,4.396-9.661,6.057-12.088,4.651c-2.607-1.508-1.584-8,3.374-12.65c3.016-2.838,6.9-5.47,9.481-7.08
	c0.588-0.357,1.457-0.869,2.504-1.508c0.179-0.102,0.281-0.152,0.281-0.152l0,0c0.205-0.129,0.409-0.256,0.613-0.384
	C32.617,81.481,30.879,87.334,26.637,91.96z M56.027,71.975c-1.406,3.424-4.345,12.19-6.134,11.705
	c-1.533-0.409-2.479-7.054-0.307-13.622c1.099-3.297,3.425-7.232,4.779-8.767c2.198-2.453,4.625-3.271,5.213-2.273
	C60.321,60.321,56.896,69.829,56.027,71.975z M80.28,83.577c-0.588,0.307-1.149,0.511-1.405,0.358
	c-0.179-0.103,0.256-0.512,0.256-0.512s3.041-3.271,4.242-4.754c0.69-0.869,1.508-1.891,2.377-3.041c0,0.103,0,0.23,0,0.332
	C85.75,79.871,81.968,82.504,80.28,83.577z M98.988,79.309c-0.435-0.307-0.358-1.328,1.099-4.523
	c0.562-1.252,1.892-3.348,4.166-5.366c0.256,0.817,0.435,1.61,0.408,2.35C104.636,76.703,101.109,78.543,98.988,79.309z"/>
</svg>
