<?xml version="1.0" encoding="utf-8"?>
<!-- Generator: Adobe Illustrator 19.0.0, SVG Export Plug-In . SVG Version: 6.00 Build 0)  -->
<svg version="1.1" id="Layer_1" xmlns="http://www.w3.org/2000/svg" xmlns:xlink="http://www.w3.org/1999/xlink" x="0px" y="0px"
	 width="187.1px" height="42.2px" viewBox="0 0 187.1 42.2" style="enable-background:new 0 0 187.1 42.2;" xml:space="preserve">
<g>
	<polygon style="fill-rule:evenodd;clip-rule:evenodd;fill:#004990;" points="48.3,0 54.1,0 54.1,34.7 48.3,34.7 48.3,0 	"/>
	<path style="fill-rule:evenodd;clip-rule:evenodd;fill:#004990;" d="M25.4,12.5c0-0.8-0.6-1.3-1.2-1.3c-0.6,0-1.2,0.4-1.2,1.3v16.7
		c0,0.8,0.6,1.3,1.2,1.3c0.6,0,1.2-0.5,1.2-1.3v-5.5h5.9v5c0,4.1-3.2,6.2-7.1,6.2c-3.7,0-7-2.1-7-6.2V12.9c0-4.1,3.3-6.2,7-6.2
		c3.8,0,7.1,2.1,7.1,6.2v4.5h-5.9V12.5L25.4,12.5z"/>
	<path style="fill-rule:evenodd;clip-rule:evenodd;fill:#004990;" d="M38.5,13.3c0-0.8,0.6-1.3,1.2-1.3c0.6,0,1.2,0.4,1.2,1.3v21.4
		h5.9V11.7c0-3.7-2.4-5-4.3-5c-2.1,0-3.5,1.5-3.9,2.3h-0.1V0h-5.9v34.7h5.8V13.3L38.5,13.3z"/>
	<path style="fill-rule:evenodd;clip-rule:evenodd;fill:#004990;" d="M63.8,28.7c0,0.8-0.6,1.3-1.2,1.3c-0.6,0-1.2-0.4-1.2-1.3V7
		h-5.9v23c0,3.1,2.1,5,4.4,5c2.3,0,3.5-1.7,3.9-2.3h0.1l0.1,1.9h5.7V7h-5.9V28.7L63.8,28.7z"/>
	<path style="fill-rule:evenodd;clip-rule:evenodd;fill:#004990;" d="M77,34.7h-5.9V7h5.8L77,9h0.1c0.4-0.8,1.8-2.3,3.9-2.3
		c2.2,0,3.6,1.7,3.9,2.7H85c0.4-1,2-2.7,4.2-2.7c2.2,0,4.4,1.5,4.4,5.3v22.7h-5.9V13c0-0.8-0.6-1.3-1.2-1.3c-0.6,0-1.2,0.4-1.2,1.3
		v21.7h-5.9V13c0-0.8-0.6-1.3-1.2-1.3c-0.6,0-1.2,0.4-1.2,1.3V34.7L77,34.7z"/>
	<path style="fill-rule:evenodd;clip-rule:evenodd;fill:#004990;" d="M104.7,6.7c-2,0-3.4,1.7-3.7,2.3h-0.1V0H95v34.7h5.8l0.1-1.9
		h0.1c0.3,0.7,1.5,2.3,3.7,2.3c2.5,0,4.5-2.1,4.5-5.4V11.7C109.2,8.6,107.1,6.7,104.7,6.7L104.7,6.7z M103.3,28.7
		c0,0.8-0.6,1.3-1.2,1.3c-0.6,0-1.2-0.4-1.2-1.3V13c0-0.8,0.6-1.3,1.2-1.3c0.6,0,1.2,0.5,1.2,1.3V28.7L103.3,28.7z"/>
	<path style="fill-rule:evenodd;clip-rule:evenodd;fill:#004990;" d="M116.5,29.2c0,0.8,0.6,1.3,1.2,1.3c0.6,0,1.2-0.4,1.2-1.3v-5.5
		h5.9v5c0,4.2-3.4,6.2-7.1,6.2c-3.7,0-7.1-2.1-7.1-6.2V12.9c0-4.2,3.4-6.2,7.1-6.2c3.8,0,7.1,2.1,7.1,6.2v8.9h-8.3V29.2L116.5,29.2z
		 M118.9,17.7v-5.1c0-0.8-0.6-1.3-1.2-1.3c-0.6,0-1.2,0.4-1.2,1.3l0,5.1H118.9L118.9,17.7z"/>
	<path style="fill-rule:evenodd;clip-rule:evenodd;fill:#004990;" d="M133.3,11.7c-0.6,0-1.2,0.4-1.2,1.3v21.7h-5.9V7h5.7l0.1,1.9
		h0.1c0.6-0.8,2-2.3,3.9-2.3c2.3,0,4.2,1.8,4.2,4.8v10.4h-5.9v-9C134.5,12.2,133.9,11.7,133.3,11.7L133.3,11.7L133.3,11.7z"/>
	<path style="fill-rule:evenodd;clip-rule:evenodd;fill:#004990;" d="M163.2,29.2c0,0.8,0.6,1.3,1.2,1.3c0.6,0,1.2-0.4,1.2-1.3v-5.5
		h5.9v5c0,4.2-3.4,6.2-7.1,6.2c-3.7,0-7.1-2.1-7.1-6.2V12.9c0-4.2,3.3-6.2,7.1-6.2c3.8,0,7.1,2.1,7.1,6.2v8.9h-8.3V29.2L163.2,29.2z
		 M165.7,17.7v-5.1c0-0.8-0.6-1.3-1.2-1.3c-0.6,0-1.2,0.4-1.2,1.3l0,5.1H165.7L165.7,17.7z"/>
	<path style="fill-rule:evenodd;clip-rule:evenodd;fill:#004990;" d="M180,11.7c-0.6,0-1.2,0.4-1.2,1.3v21.7h-5.9V7h5.7l0.1,1.9h0.1
		c0.6-0.8,2-2.3,3.9-2.3c2.3,0,4.2,1.8,4.2,4.8v10.4h-5.9v-9C181.2,12.2,180.6,11.7,180,11.7L180,11.7L180,11.7z"/>
	<path style="fill-rule:evenodd;clip-rule:evenodd;fill:#004990;" d="M150.1,27c0,0.8-0.6,1.3-1.2,1.3c-0.6,0-1.2-0.4-1.2-1.3V13
		c0-0.8,0.6-1.3,1.2-1.3c0.6,0,1.2,0.4,1.2,1.3V27L150.1,27z M150.1,36.7c0,0.8-0.6,1.3-1.2,1.3c-0.6,0-1.2-0.4-1.2-1.3v-2.2h-5.8
		V36c0,4.3,3,6.2,7.1,6.2c4,0,7.1-1.9,7.1-6.2V7h-5.8L150.1,9h-0.1c-0.3-0.6-1.7-2.3-3.9-2.3c-2.1,0-4.3,1.6-4.3,4.6v16.5
		c0,3.2,2,5,4.3,5c2.2,0,3.4-1.5,3.8-2h0.2V36.7L150.1,36.7z"/>
	<path style="fill-rule:evenodd;clip-rule:evenodd;fill:#004990;" d="M6.6,28.8c0,0.8,0.6,1.3,1.2,1.3C8.5,30,9,29.6,9,28.8v-3.3
		c0-2.6-0.6-3.6-2.5-5.4C4.9,18.6,4,17.8,3,16.7C1.6,15.5,0,13.7,0,10.3V6.1c0-4.6,3.8-6.3,7.8-6.3c4,0,7.7,1.7,7.7,6.2v5.4H9V6.3
		C9,5.4,8.5,5,7.8,5C7.2,5,6.6,5.4,6.6,6.3v2.5c0,2.2,0.7,3.1,2.5,4.8c0.7,0.7,2.4,2.3,3.6,3.5c2.2,2.2,3,4.2,3,6.9v4.6
		c0,4.8-3.9,6.5-7.9,6.5c-4,0-7.8-1.7-7.8-6.3v-6.6h6.6V28.8L6.6,28.8z"/>
</g>
</svg>
