<?xml version="1.0" encoding="utf-8"?>
<!-- Generator: Adobe Illustrator 19.0.0, SVG Export Plug-In . SVG Version: 6.00 Build 0)  -->
<svg version="1.0" id="Layer_1" xmlns="http://www.w3.org/2000/svg" xmlns:xlink="http://www.w3.org/1999/xlink" x="0px" y="0px"
	 width="552.8px" height="88.3px" viewBox="0 0 552.8 88.3" enable-background="new 0 0 552.8 88.3" xml:space="preserve">
<g>
	<path fill-rule="evenodd" clip-rule="evenodd" fill="#00ABAD" d="M1.7,85V68.4c9.5,3,17.8,4.5,25.1,4.5c10.1,0,15.1-2.6,15.1-7.9
		c0-2-0.7-3.6-2.2-5c-1.5-1.4-5.3-3.4-11.5-5.9C17.1,49.5,9.9,45.6,6.5,42.4C2.2,38.2,0,32.9,0,26.5c0-8.3,3.2-14.6,9.5-18.9
		C15.8,3.2,24,1.1,34,1.1c5.6,0,13.6,1,24.1,3.1v15.9C50.3,17,43,15.4,36.3,15.4c-9.4,0-14.2,2.6-14.2,7.8c0,1.9,1,3.5,2.8,4.7
		c1.6,1,6,3.1,13.1,6.3c10.3,4.5,17.1,8.5,20.5,11.8c4.1,4,6.1,9.1,6.1,15.5c0,9.1-4,16-11.9,20.8C46.4,86.1,38,88,27.8,88
		C19.2,88,10.5,87,1.7,85L1.7,85z M78,86.3V2.6h23.5v83.7H78L78,86.3z M123.1,86.3V2.6h60.3v15.1h-37.7v18.9h32.8v13.8h-32.8v19.9
		h38.6v16H123.1L123.1,86.3z M199.7,86.3V2.6h30.5l21.2,53.5l21.7-53.5h29v83.7h-22.3V27L255,87.2h-14.6L216.3,27v59.3H199.7
		L199.7,86.3z M323.6,86.3V2.6h60.3v15.1h-37.6v18.9H379v13.8h-32.8v19.9h38.6v16H323.6L323.6,86.3z M400.4,86.3V2.6h27.2l28.9,56.1
		V2.6h16.6v83.7h-26.5l-29.7-56.8v56.8H400.4L400.4,86.3z M489.8,85V68.4c9.4,3,17.8,4.5,25.1,4.5c10.1,0,15.1-2.6,15.1-7.9
		c0-2-0.7-3.6-2.1-5c-1.5-1.4-5.4-3.4-11.6-5.9c-11-4.5-18.3-8.4-21.7-11.6c-4.4-4.2-6.5-9.5-6.5-16c0-8.2,3.2-14.5,9.5-18.9
		c6.3-4.3,14.4-6.4,24.5-6.4c5.7,0,13,0.9,22,2.7l2.1,0.4v15.9c-7.8-3.1-15.1-4.7-21.8-4.7c-9.4,0-14.1,2.6-14.1,7.8
		c0,1.9,0.9,3.5,2.8,4.7c1.5,0.9,5.9,3,13.1,6.3c10.2,4.5,17,8.5,20.5,11.8c4,4,6.1,9.1,6.1,15.5c0,9.1-3.9,16-11.8,20.8
		c-6.5,3.9-14.8,5.8-25,5.8C507.2,88,498.5,87,489.8,85L489.8,85z"/>
</g>
</svg>
