<?xml version="1.0" encoding="utf-8"?>
<!-- Generator: Adobe Illustrator 20.0.0, SVG Export Plug-In . SVG Version: 6.00 Build 0)  -->
<svg version="1.1" id="Layer_1" xmlns="http://www.w3.org/2000/svg" xmlns:xlink="http://www.w3.org/1999/xlink" x="0px" y="0px"
	 width="595.3px" height="125px" viewBox="0 0 595.3 125" style="enable-background:new 0 0 595.3 125;" xml:space="preserve">
	<circle style="fill:#E02F22;" cx="62.5" cy="62.5" r="55.3"/>
	<g>
		<polygon style="fill:#BAB8B7;" points="194.3,30.6 188.3,56.3 183.7,30.6 171.9,30.6 167.8,56.2 161.3,30.6 150.9,30.6
			162.7,72.7 173.4,72.7 177.9,47.2 182.5,72.7 192.8,72.7 204.9,30.6 		"/>
		<path style="fill:#BAB8B7;" d="M213,30.6l-12,42.1h10l2.3-9.3h9.8l1.9,9.3h10l-11.5-42.1C223.5,30.6,213,30.6,213,30.6z
			 M215.1,56.3l3.5-14.5l3,14.5H215.1z"/>
		<path style="fill:#BAB8B7;" d="M268.4,48.7V37.6c0-4.3-2.9-7.4-7.1-7.4h-22.1v0.4l0,0v42.1h8.9V55.4h6.2l6.3,17.3h10.9l-7.8-17.3
			C267.5,55.1,268.4,51.6,268.4,48.7z M248,38.2h10.1c0.9,0,1.9,0.7,1.9,1.6V46c0,0.9-0.9,1.5-1.9,1.5H248V38.2L248,38.2z"/>
		<path style="fill:#BAB8B7;" d="M273.8,42.6v16.7c0,7.1,6,13.4,13,13.4h9.3c2.7,0,6.9-1.8,8.2-3.4V67v-3.1V47.8h-1.7h-7.1h-5.4v7.5
			h5.3v8.9h-7c-3.1,0-5.9-2.9-5.9-5.9V44.8c0-3.5,3.2-5.8,6.7-5.8h15.1v-8.4h-18C279.5,30.6,273.8,35.8,273.8,42.6z"/>
		<path style="fill:#BAB8B7;" d="M444.9,42.6v16.7c0,7.1,6,13.4,13,13.4h9.3c2.7,0,6.9-1.8,8.2-3.4V67v-3.1V47.8h-1.7h-7.1h-5.4v7.5
			h5.3v8.9h-7c-3.1,0-5.9-2.9-5.9-5.9V44.8c0-3.5,3.2-5.8,6.7-5.8h15.1v-8.4h-18C450.7,30.6,444.9,35.8,444.9,42.6z"/>
		<path style="fill:#BAB8B7;" d="M318.5,30.6l-12,42.1h10l2.3-9.3h9.8l1.9,9.3h10.1l-11.7-42.1C328.9,30.6,318.5,30.6,318.5,30.6z
			 M320.5,56.3l3.5-14.5l3,14.5H320.5z"/>
		<rect x="392.2" y="30.2" style="fill:#BAB8B7;" width="8.9" height="42.6"/>
		<polygon style="fill:#BAB8B7;" points="430.3,54.5 417,30.3 417,30.3 417,30.2 408.1,30.2 408.1,72.7 417,72.7 417,48.4
			430.2,72.7 430.3,72.7 430.3,72.7 439.2,72.7 439.2,30.2 430.3,30.2 		"/>
		<polygon style="fill:#BAB8B7;" points="364.9,60.6 364.7,61.8 364.4,60.6 356.6,30.2 345.2,30.2 345.2,72.7 354,72.7 354,48.1
			360.4,72.7 362.3,72.7 367,72.7 368.9,72.7 375.8,47.7 375.8,72.7 384.6,72.7 384.6,30.2 372.7,30.2 		"/>
		<rect x="481.7" y="62.5" style="fill:#BAB8B7;" width="8.9" height="9.3"/>
		<polygon style="fill:#BAB8B7;" points="519.4,55.1 506.1,30.6 506.1,30.2 497.3,30.2 497.3,71.9 506.1,71.9 506.1,48.6
			519.2,71.9 519.4,71.9 519.4,71.9 528.3,71.9 528.3,30.2 519.4,30.2 		"/>
		<polygon style="fill:#BAB8B7;" points="535,30.2 535,37.9 535,45.9 535,53.5 535,64.2 535,71.9 543.7,71.9 561.6,71.9 561.6,64.3
			543.8,64.3 543.8,53.7 559.8,53.7 559.8,45.7 543.8,45.7 543.8,37.7 561.6,37.7 561.6,30.2 543.7,30.2 		"/>
		<polygon style="fill:#BAB8B7;" points="595.3,29.7 585.1,29.7 576.3,29.7 566,29.7 566,37.7 576.2,37.7 576.2,71.9 585.1,71.9
			585.1,37.7 595.3,37.7 		"/>
	</g>
	<path style="fill:#BAB8B7;" d="M62.5,0C28,0,0,28,0,62.5S28,125,62.5,125S125,97,125,62.5S97.1,0,62.5,0z M88.4,105.3
		c3.8-10.5,3.5-29.7,3.4-33.5c5.6,1.1,8.4,2.4,8.4,2.4s-3.1-8-6.2-14.1c-2.2-4.2-7-13.3-7-13.3s-3.5,7.3-7.1,12S69.3,71,69.3,71
		s5.1-0.3,10.6-0.2c0,0.1-0.1,0.2-0.2,0.4c-9.1,17.7-25.5,24.7-38,26.3c-7.2-46,20-62,20-62l0.1-0.1c0.5,1.4,0.9,2.8,1.2,3.8
		c0.7,2.8,0.9,6.1,0.9,6.1s6.4-8.7,9.5-12.1s8.2-9.1,8.2-9.1s-8.6-2.3-14.2-3s-17,0-17,0c2.6,1.5,4.9,3.7,6.6,5.5
		c-0.3,0.1-0.5,0.1-0.8,0.2C39.3,31.8,19.7,51,13,70c-0.4-2.4-0.5-4.8-0.5-7.3c0-27.6,22.4-50,49.9-50s49.9,22.4,49.9,49.9
		C112.5,80.6,102.8,96.5,88.4,105.3z"/>
</svg>
