<?xml version="1.0" encoding="utf-8"?>
<!-- Generator: Adobe Illustrator 22.0.0, SVG Export Plug-In . SVG Version: 6.00 Build 0)  -->
<svg version="1.1" id="Layer_1" xmlns="http://www.w3.org/2000/svg" xmlns:xlink="http://www.w3.org/1999/xlink" x="0px" y="0px"
	 width="849.10229px" height="187.0079px" viewBox="0 0 849.10229 187.0079" style="enable-background:new 0 0 849.10229 187.0079;"
	 xml:space="preserve">
<style type="text/css">
	.st0{fill:#FFFFFF;}
</style>
<g>
	<g>
		<path class="st0" d="M617.72894,56.6131h-18.29498v41.4655c0,10.6767-4.47034,19.1608-17.59772,19.1608
			c-12.98511,0.1393-16.75427-8.619-16.75427-19.70451V56.6131h-18.29492v45.4381c0,13.1355,4.74591,31.8867,29.88623,32.02509
			c13.82416,0.1349,20.66547-6.43439,23.87946-12.3168v9.9893h17.17621V56.6131"/>
		<path class="st0" d="M625.00024,131.75259h18.29468V90.2827c0-10.5383,4.46613-19.0215,17.45593-19.1599
			c12.84747,0,16.6167,8.6216,16.6167,19.8437v40.78609h18.29498V86.4491c0-13.27309-4.74622-32.0242-29.74438-32.1597
			c-13.68652-0.1349-20.53223,6.43-23.87952,12.316c0.13763-3.5586,0.13763-6.7048,0.13763-9.9885h-17.17603V131.75259"/>
		<path class="st0" d="M702.66266,131.75259h18.29474V56.6169h-18.29474V131.75259z M702.66266,46.4883h18.29474V30.4737h-18.29474
			V46.4883"/>
		<path class="st0" d="M740.0954,131.75259h18.29486V70.4389h13.1272l-5.42987-13.822h-7.69733V30.4737H740.0954v26.1432h-12.70984
			v13.822h12.70984V131.75259"/>
		<path class="st0" d="M789.1886,158.02229h19.55078l40.36292-101.4144h-19.55084l-18.43695,49.9546l-18.71204-49.9546H772.8512
			l28.90509,72.26071L789.1886,158.02229"/>
		<path class="st0" d="M446.48447,93.5077l33.39227-56.511l16.13641,56.511l-16.13641,56.49911L446.48447,93.5077z
			 M430.20807,102.6835l33.39798,56.5038l-58.16278-14.6033l-42.02301-41.9005h66.78931H430.20807z M463.59915,27.8124
			l-33.39108,56.5125h-66.7897l42.02298-41.9011l58.15872-14.6114H463.59915z M511.27216,74.2763L490.89786,0l-76.04031,19.9072
			l-11.2561,19.3922l-22.84027-0.1608l-55.65881,54.3743l55.65881,54.3601h0.00119l22.83099-0.164l11.27249,19.39259
			l76.03149,19.90631l20.37421-74.26781l-11.5705-19.2324l11.5705-19.2314"/>
	</g>
	<g>
		<path class="st0" d="M0,33.60632h44.97138c12.50824,0,22.20518,3.50521,28.66959,9.95451
			c5.48121,5.46856,8.43176,13.17925,8.43176,22.43398v0.28036c0,15.84357-8.57178,25.79857-21.08003,30.42534l24.03228,35.05181
			H59.72822l-21.08023-31.40716H21.64256v31.40716H0V33.60632z M43.56677,81.27744c10.53992,0,16.58285-5.6086,16.58285-13.88001
			v-0.28127c0-9.25423-6.46432-14.02024-17.00454-14.02024H21.64256v28.18152H43.56677z"/>
		<path class="st0" d="M86.85457,29.40034h22.48584v18.92818H86.85457V29.40034z M87.41609,56.60023h21.3615v75.15208h-21.3615
			V56.60023z"/>
		<path class="st0" d="M112.57192,94.31666V94.0369c0-25.09741,16.44192-38.83918,34.29034-38.83918
			c11.384,0,18.41093,5.1884,23.46976,11.21759V29.40034h21.3615v102.35197h-21.3615v-10.7962
			c-5.20004,7.01032-12.36713,12.19793-23.46976,12.19793C129.29599,133.15405,112.57192,119.41317,112.57192,94.31666z
			 M170.61337,94.31666V94.0369c0-12.47899-8.29242-20.7519-18.26991-20.7519c-9.97839,0-18.41005,8.13288-18.41005,20.7519v0.27976
			c0,12.47869,8.43166,20.75011,18.41005,20.75011C162.32095,115.06676,170.61337,106.79535,170.61337,94.31666z"/>
		<path class="st0" d="M194.22495,94.59702v-0.28036c0-21.45156,15.31857-39.11894,37.24159-39.11894
			c25.15584,0,36.67995,19.48901,36.67995,40.80104c0,1.68308-0.14032,3.64613-0.28046,5.6078h-52.42081
			c2.10925,9.67554,8.85414,14.7231,18.41104,14.7231c7.16718,0,12.36702-2.24381,18.26892-7.71268l12.22678,10.7962
			c-7.02673,8.6937-17.14447,14.02134-30.77716,14.02134C210.94814,133.43451,194.22495,117.59095,194.22495,94.59702z
			 M247.34772,88.28697c-1.26468-9.53341-6.8869-15.9827-15.88118-15.9827c-8.85324,0-14.61562,6.30896-16.30179,15.9827H247.34772z
			"/>
		<path class="st0" d="M271.10034,56.60023h21.36148v15.14301c4.35687-10.3752,11.3829-17.10516,24.03137-16.54552v22.29415
			h-1.12433c-14.19412,0-22.90704,8.55248-22.90704,26.49854v27.76192h-21.36148V56.60023z"/>
	</g>
</g>
</svg>
