<svg id="Layer_1" data-name="Layer 1" xmlns="http://www.w3.org/2000/svg" width="865.99361" height="187.0079" viewBox="0 0 865.99361 187.0079">
  <title>logos_header2</title>
  <path d="M75.9353,68.25778v-.25915c0-8.55292-2.72992-15.67884-7.80127-20.73273-5.981-5.96021-14.95282-9.19952-26.52564-9.19952H0V128.7695H20.0241V99.74411H35.75781l19.5039,29.02539H78.6668L56.43157,96.37582C68.00451,92.09988,75.9353,82.89981,75.9353,68.25778ZM55.6516,69.29489c0,7.64423-5.59112,12.82752-15.34283,12.82752H20.0241V56.078H39.91857c9.752,0,15.733,4.4046,15.733,12.95691Zm24.70789-17.6228h20.80432V34.17929H80.35949Zm.51959,77.09741h19.7641V59.31662H80.87908Zm76.7154-60.38232c-4.68049-5.5719-11.182-10.36689-21.71466-10.36689-16.51374,0-31.726,12.69971-31.726,35.8938v.25861c0,23.19342,15.47339,35.89221,31.726,35.89221,10.27246,0,16.90356-4.79419,21.71466-11.27289v9.97748h19.76409V34.17929H157.59448Zm.26031,25.78552c0,11.53241-7.6723,19.17657-16.90356,19.17657-9.2323,0-17.03345-7.64416-17.03345-19.17657v-.25861c0-11.662,7.80115-19.1781,17.03345-19.1781,9.23126,0,16.90356,7.64551,16.90356,19.1781ZM214.1574,58.02029c-20.28369,0-34.45672,16.32758-34.45672,36.15241v.25922c0,21.25018,15.47271,35.89221,36.40728,35.89221,12.61322,0,21.97431-4.92371,28.47565-12.958l-11.31244-9.97754c-5.46057,5.05414-10.2716,7.12775-16.90277,7.12775-8.84222,0-15.0827-4.66474-17.03418-13.60651h48.50067c.12958-1.81293.25952-3.62714.25952-5.18249C248.09441,76.0314,237.43212,58.02029,214.1574,58.02029Zm-15.0827,30.58c1.56-8.94012,6.89148-14.77063,15.0827-14.77063,8.32172,0,13.5235,5.96021,14.69361,14.77063Zm71.51679-15.28918V59.31662h-19.7641V128.7695h19.7641V103.11288c0-16.5852,8.06127-24.489,21.194-24.489h1.04016V58.02029C281.1231,57.50308,274.62249,63.72269,270.59149,73.31113Zm365.49871,24.392c0,9.82019-4.11639,17.62378-16.20459,17.62378-11.95715.12812-15.42791-7.92755-15.42791-18.1239V59.56369H587.61108V101.357c0,12.08184,4.37011,29.32885,27.5202,29.45617,12.7298.12409,19.02948-5.91821,21.98907-11.32879v9.188h15.81653V59.56369H636.0902Zm61.221-40.27667c-12.603-.12414-18.9068,5.91419-21.98913,11.328.1267-3.27314.1267-6.16694.1267-9.18732H659.6325v69.10876H676.479V90.5325c0-9.693,4.11249-17.49579,16.07391-17.62311,11.83045,0,15.30127,7.93012,15.30127,18.25214v37.51434H724.7008V87.00638C724.7008,74.798,720.3305,57.551,697.31121,57.42642ZM731.14678,50.251h16.8465V35.521h-16.8465Zm0,78.42486h16.8465V59.56711h-16.8465Zm51.316-69.10876V35.521H765.6162V59.56711H753.91253V72.28049H765.6162v56.39538h16.84662V72.28049h12.088l-5.00013-12.71338Zm65.52771-.00818-16.97741,45.94745L813.7824,59.55893H795.77892l26.61676,66.46435-11.57275,26.81513h18.003l37.1676-93.27948ZM466.1256,25.80209l-10.365,17.83673-21.03222-.14794L383.47588,93.50357l51.25251,49.99976h.00122l21.02356-.15094,10.38012,17.837L536.14581,179.499l18.76129-68.31048-10.65454-17.6897L554.9071,75.81h.00061L536.14617,7.49173ZM457.45489,46.5126l53.55365-13.43914L480.261,85.05258H418.7586Zm.00171,93.96552-38.69623-38.53949H480.261L511.015,153.91Zm68.54107,4.98779-30.7489-51.9671,30.7489-51.978,14.85889,51.978Z" fill="#fff"/>
</svg>
