<svg id="Layer_1" data-name="Layer 1" xmlns="http://www.w3.org/2000/svg" width="865.99359" height="187.0079" viewBox="0 0 865.99359 187.0079">
  <title>Rider Unity Logos</title>
  <g>
    <path d="M75.9353,68.25778v-.25915c0-8.55292-2.72992-15.67884-7.80127-20.73273-5.981-5.96021-14.95282-9.19952-26.52564-9.19952H0V128.7695H20.0241V99.74411H35.75781l19.5039,29.02539H78.6668L56.43157,96.37582C68.00451,92.09988,75.9353,82.89981,75.9353,68.25778ZM55.6516,69.29489c0,7.64423-5.59112,12.82752-15.34283,12.82752H20.0241V56.078H39.91857c9.752,0,15.733,4.4046,15.733,12.95691Zm24.70789-17.6228h20.80432V34.17929H80.35949Zm.51959,77.09741h19.7641V59.31662H80.87908Zm76.7154-60.38232c-4.68049-5.5719-11.182-10.36689-21.71466-10.36689-16.51374,0-31.726,12.6997-31.726,35.8938v.25861c0,23.19342,15.47339,35.89221,31.726,35.89221,10.27246,0,16.90357-4.79419,21.71466-11.27289v9.97748h19.76409V34.17929H157.59448Zm.26032,25.78552c0,11.53241-7.6723,19.17657-16.90357,19.17657-9.2323,0-17.03344-7.64415-17.03344-19.17657v-.25861c0-11.662,7.80114-19.17811,17.03344-19.17811,9.23127,0,16.90357,7.64551,16.90357,19.17811Zm56.30259-36.15241c-20.28369,0-34.45671,16.32758-34.45671,36.15241v.25922c0,21.25018,15.47272,35.89221,36.40729,35.89221,12.61322,0,21.97431-4.92371,28.47565-12.958l-11.31244-9.97754c-5.46057,5.05414-10.27161,7.12774-16.90277,7.12774-8.84223,0-15.0827-4.66474-17.03418-13.60651H247.8349c.12958-1.81293.25952-3.62714.25952-5.18249C248.09441,76.0314,237.43211,58.02029,214.15739,58.02029Zm-15.0827,30.58c1.56-8.94012,6.89148-14.77063,15.0827-14.77063,8.32172,0,13.5235,5.96021,14.69361,14.77063Zm71.5168-15.28918V59.31662h-19.7641V128.7695h19.7641V103.11288c0-16.5852,8.06128-24.489,21.194-24.489h1.04016V58.02029c-11.70254-.51721-18.20315,5.7024-22.23416,15.29084Z" fill="#fff"/>
    <g>
      <path d="M527.54138,145.52584,496.66654,93.541l30.87484-52.00553L542.45014,93.541Zm-68.81334-4.987L419.894,101.98368h61.737l30.86376,51.9944Zm0-94.00683L512.4947,33.09269l-30.86376,51.996H419.894ZM537.72629,7.49174,467.43713,25.80712,457.03506,43.65958l-21.11-.15374L384.4759,93.541,435.925,143.56653l21.099-.15377,10.42582,17.84139,70.27648,18.31535,18.82733-68.32988L545.85675,93.541l10.69687-17.69713Z" fill="#fff"/>
      <g>
        <path d="M697.16,58.19009c-9.39391,0-15.69822,3.89168-20.39517,11.27076h-.40264V60.06859H659.92372v68.83074h16.8411V89.85438c0-9.39226,5.90326-15.83135,13.95449-15.83135,7.647,0,13.34736,4.53369,13.34736,12.61181v42.26449h16.84106V83.95111c0-15.02762-9.527-25.761-23.74774-25.761" fill="#fff"/>
        <path d="M634.307,99.75172c0,9.1244-5.23277,15.56346-13.81976,15.56346-7.78331,0-12.67682-4.42745-12.67682-12.47708V60.03623H590.96931v45.88666c0,15.02765,8.58545,24.82258,23.88257,24.82258,9.66017,0,15.02762-3.62216,19.723-9.92808h.40264V128.867h16.18962V60.03623H634.307Z" fill="#fff"/>
      </g>
      <rect x="729.73651" y="60.06873" width="16.84115" height="68.83077" fill="#fff"/>
      <rect x="729.73651" y="38.60043" width="16.84115" height="13.83517" fill="#fff"/>
      <g>
        <path d="M841.75836,60.06811,831.75259,91.06185c-2.14636,6.306-4.02481,15.02768-4.02481,15.02768h-.42649s-2.281-8.72172-4.42895-15.02768L811.573,60.06811h-18.0046L812.085,109.04116c3.89014,10.46545,5.23122,14.8929,5.23122,18.64983,0,5.63536-2.95163,9.39226-10.196,9.39226h-6.44063v14.35713H811.413c13.95444,0,18.79875-5.50223,24.03152-20.79776l24.27088-70.57451Z" fill="#fff"/>
        <path d="M777.95609,108.6391V72.14477h10.73335v-12.076H777.95609V38.60043H761.23065v21.4683h-9.52549v12.076h9.52549v40.38442c0,13.016,9.795,16.50347,18.6514,16.50347a87.75651,87.75651,0,0,0,9.21-.26789V115.45862s-2.01323.02378-4.29427.02378c-4.02482,0-6.84167-1.7453-6.84167-6.8433" fill="#fff"/>
      </g>
    </g>
  </g>
</svg>
