<svg version="1.1" xmlns="http://www.w3.org/2000/svg" x="0" y="0" width="610.6" height="108.5" viewBox="0 0 610.6 108.5" xml:space="preserve"><path fill="#000" d="M0 3.3h85v85H0z"/><path fill="#FFF" d="M28.3 14h5l5.6 8.9 5.6-8.9h5v21.2h-4.6V21.3l-6 9.1h-.1l-5.9-9v13.8h-4.6M8 13.9h9.7c2.7 0 4.7.7 6.2 2.2 1.2 1.2 1.8 2.8 1.8 4.8v.1c0 1.7-.4 3.1-1.3 4.2-.8 1.1-1.9 1.9-3.3 2.4l5.2 7.6h-5.5l-4.4-6.5h-3.8v6.5H8V13.9zm9.4 10.3c1.2 0 2-.3 2.7-.8.6-.5.9-1.3.9-2.2v-.1c0-1-.3-1.8-1-2.3-.6-.5-1.5-.8-2.7-.8h-4.6v6.1h4.7zM8 72.4h31.9v5.3H8z"/><g><path d="M106.2 3.6H145c10.8 0 19.2 3 24.8 8.6 4.7 4.7 7.3 11.4 7.3 19.4v.4c0 13.7-7.4 22.4-18.2 26.4l20.8 30.4h-21.9l-18.2-27.2h-14.7v27.2h-18.7V3.6zM143.8 45c9.1 0 14.3-4.9 14.3-12v-.2c0-8-5.6-12.2-14.7-12.2h-18.6V45h19zM179.4 65.7V23.6h18.5v36.3c0 8.7 4.1 13.2 11.2 13.2s11.5-4.5 11.5-13.2V23.6h18.5v65.1h-18.5v-9.2c-4.3 5.5-9.7 10.4-19.1 10.4-13.9 0-22.1-9.2-22.1-24.2zM261.4 80.2v8.5H243V0h18.5v32.9c4.5-6.1 10.7-10.6 20.3-10.6 15.2 0 29.6 11.9 29.6 33.7v.2c0 21.7-14.2 33.7-29.6 33.7-9.9 0-16-4.5-20.4-9.7zm31.5-23.9V56c0-10.8-7.3-18-15.9-18s-15.8 7.2-15.8 18v.2c0 10.8 7.2 18 15.8 18s15.9-7 15.9-17.9z"/><path d="M352.2 23.6h19.2l-25 66.7c-5 13.2-10.3 18.2-21.4 18.2-6.7 0-11.7-1.7-16.4-4.5l6.2-13.4c2.4 1.5 5.5 2.6 7.9 2.6 3.2 0 4.9-1 6.4-4.3l-25.5-65.4h19.6L338 67.9l14.2-44.3zM372.8 3.6H393l22.4 36 22.4-36H458v85.1h-18.6V33.2l-23.9 36.3h-.5l-23.7-36v55.2H373V3.6zM462.1 0h19.4v16.4h-19.4V0zm.5 23.6h18.5v65.1h-18.5V23.6zM485.1 23.6h18.5v9.2c4.3-5.5 9.7-10.4 19.1-10.4 14 0 22.1 9.2 22.1 24.2v42.2h-18.5V52.4c0-8.7-4.1-13.2-11.2-13.2-7 0-11.5 4.5-11.5 13.2v36.3h-18.5V23.6zM546.7 56.5v-.2c0-18.6 13.2-33.9 32.2-33.9 21.7 0 31.7 16.9 31.7 35.4 0 1.5-.1 3.2-.2 4.9h-45.3c1.8 8.4 7.7 12.8 15.9 12.8 6.2 0 10.7-1.9 15.8-6.7l10.6 9.4c-6.1 7.5-14.8 12.2-26.6 12.2-19.6-.2-34.1-14-34.1-33.9zm45.9-5.5c-1.1-8.3-6-13.9-13.7-13.9-7.7 0-12.6 5.5-14.1 13.9h27.8z"/></g></svg>