<svg id="Layer_1" data-name="Layer 1" xmlns="http://www.w3.org/2000/svg" width="531.14398" height="92.883" viewBox="0 0 531.14398 92.883">
  <title>logo_gogland</title>
  <g>
    <g>
      <g>
        <rect y="3.68062" width="85.03937" height="85.03941"/>
        <rect x="7.97299" y="72.77657" width="31.88947" height="5.31449" fill="#fff"/>
      </g>
      <g>
        <path d="M105.81684,46.431v-.24219c0-24.17969,18.833-43.98535,44.59229-43.98535,15.31,0,24.54443,4.13183,33.41406,11.665L172.03754,28.08428c-6.56152-5.46778-12.39355-8.627-22.23584-8.627-13.60839,0-24.42236,12.02929-24.42236,26.48828v.24316c0,15.55273,10.69238,26.97461,25.75879,26.97461,6.80469,0,12.87988-1.70117,17.61865-5.10352V55.90947H149.92329V39.74932h36.9375v36.9375a55.20353,55.20353,0,0,1-36.33008,13.48633C124.04243,90.17315,105.81684,71.5833,105.81684,46.431Z"/>
        <path d="M189.52876,56.5169v-.24317c0-18.71191,15.06689-33.90039,35.35839-33.90039,20.16993,0,35.11524,14.94531,35.11524,33.65723v.24316c0,18.71192-15.0669,33.89942-35.3584,33.89942C204.47407,90.17315,189.52876,75.22783,189.52876,56.5169Zm52.24755,0v-.24317c0-9.59863-6.92578-17.9834-17.13232-17.9834-10.5708,0-16.88916,8.14063-16.88916,17.74024v.24316c0,9.59863,6.92578,17.9834,17.13232,17.9834C235.458,74.25713,241.77631,66.11553,241.77631,56.5169Z"/>
        <path d="M265.09956,3.66143h18.71191v68.043h42.40576V88.71611H265.09956Z"/>
        <path d="M329.22243,70.00322V69.761c0-14.2168,10.81446-20.77735,26.24512-20.77735a46.29337,46.29337,0,0,1,15.918,2.67285V50.56279c0-7.65527-4.73926-11.90722-13.97363-11.90722-7.04688,0-12.0293,1.33593-17.98243,3.52343l-4.61718-14.09472a57.45576,57.45576,0,0,1,25.27246-5.22461c10.085,0,17.376,2.67285,21.99316,7.29,4.86035,4.86035,7.04688,12.02929,7.04688,20.77734V88.71611H371.26345V81.66826c-4.49512,4.98145-10.69238,8.2627-19.6836,8.2627C339.30739,89.931,329.22243,82.88408,329.22243,70.00322Zm42.40528-4.25195V62.47a28.65191,28.65191,0,0,0-11.78516-2.42969c-7.89844,0-12.75879,3.15918-12.75879,8.99121v.24317c0,4.98242,4.13184,7.89844,10.085,7.89844C365.79567,77.17315,371.62771,72.43389,371.62771,65.75127Z"/>
        <path d="M394.83181,23.58916h18.46875v9.23438c4.25293-5.46875,9.7207-10.4502,19.07617-10.4502,13.97363,0,22.11426,9.23438,22.11426,24.17969V88.71611H436.02224V52.386c0-8.749-4.13184-13.24414-11.17871-13.24414-7.04786,0-11.543,4.49511-11.543,13.24414V88.71611H394.83181Z"/>
        <path d="M457.40212,56.27373v-.24316c0-21.75,14.21582-33.65723,29.64746-33.65723,9.8418,0,15.917,4.49609,20.291,9.7207V.0169h18.46875V88.71611H507.3406V79.35967c-4.4961,6.07519-10.69239,10.57129-20.291,10.57129C471.8611,89.931,457.40212,78.02275,457.40212,56.27373Zm50.18164,0v-.24316c0-10.81446-7.16894-17.98242-15.7959-17.98242s-15.917,7.04687-15.917,17.98242v.24316c0,10.81348,7.29,17.9834,15.917,17.9834S507.58376,67.08721,507.58376,56.27373Z"/>
      </g>
    </g>
    <g>
      <path d="M6.81807,25.02365v-.05927a10.89787,10.89787,0,0,1,11.13135-10.9806,11.66329,11.66329,0,0,1,8.34176,2.91174l-2.94275,3.549A7.8134,7.8134,0,0,0,17.79754,18.291a6.37738,6.37738,0,0,0-6.09667,6.61158v.06174c0,3.88244,2.66988,6.7325,6.43139,6.73246a7.45083,7.45083,0,0,0,4.39747-1.27444V27.38951l-4.70127,0v-4.0331l9.221-.00009,0,9.21955a13.77005,13.77005,0,0,1-9.0691,3.36883C11.36749,35.94482,6.8181,31.30422,6.81807,25.02365Z" fill="#fff"/>
      <path d="M30.094,25.02341v-.05928a10.97972,10.97972,0,0,1,11.31411-10.9806A10.87745,10.87745,0,0,1,52.66055,24.90215v.06175A10.97972,10.97972,0,0,1,41.34644,35.9445,10.87944,10.87944,0,0,1,30.094,25.02341Zm17.68378-.00019V24.964a6.45109,6.45109,0,0,0-6.43139-6.67319,6.3508,6.3508,0,0,0-6.36959,6.61158v.06174a6.45109,6.45109,0,0,0,6.43139,6.67319A6.35145,6.35145,0,0,0,47.77776,25.02322Z" fill="#fff"/>
    </g>
  </g>
</svg>
