<svg version="1.1" xmlns="http://www.w3.org/2000/svg" x="0" y="0" width="621.4" height="108.1" viewBox="0 0 621.4 108.1" xml:space="preserve"><path d="M139.1 3h17.3l36.5 85.7h-19.6l-7.8-19.1h-36l-7.8 19.1h-19.1L139.1 3zm19.7 50.1l-11.3-27.6-11.3 27.6h22.6zM194.9 23.6h18.5V33c4.5-6.1 10.7-10.6 20.3-10.6 15.2 0 29.6 11.9 29.6 33.7v.2c0 21.7-14.2 33.7-29.6 33.7-9.8 0-15.9-4.5-20.3-9.7v27.9h-18.5V23.6zm49.9 32.7V56c0-10.8-7.3-18-15.9-18s-15.8 7.2-15.8 18v.2c0 10.8 7.2 18 15.8 18s15.9-7 15.9-17.9zM265.8 23.6h18.5V33c4.5-6.1 10.7-10.6 20.3-10.6 15.2 0 29.6 11.9 29.6 33.7v.2C334.2 78 320 90 304.6 90c-9.8 0-15.9-4.5-20.3-9.7v27.9h-18.5V23.6zm49.9 32.7V56c0-10.8-7.3-18-15.9-18S284 45.2 284 56v.2c0 10.8 7.2 18 15.8 18s15.9-7 15.9-17.9zM336.9 46.4v-.2c0-24.2 18.2-44 44.3-44 16 0 25.6 5.3 33.5 13.1L402.9 29c-6.6-6-13.2-9.6-21.7-9.6-14.3 0-24.7 11.9-24.7 26.5v.2c0 14.6 10.1 26.7 24.7 26.7 9.7 0 15.7-3.9 22.4-10l11.9 12C406.8 84.2 397 90 380.6 90c-25.1.2-43.7-19.2-43.7-43.6z"/><path d="M412.8 56.5v-.2c0-18.7 15.1-33.9 35.4-33.9 20.2 0 35.1 14.9 35.1 33.7v.2c0 18.7-15.1 33.9-35.4 33.9-20.1 0-35.1-15-35.1-33.7zm52.3 0v-.2c0-9.6-6.9-18-17.1-18-10.6 0-16.9 8.1-16.9 17.7v.2c0 9.6 6.9 18 17.1 18 10.5 0 16.9-8.1 16.9-17.7zM485.7 56.3V56c0-21.7 14.2-33.7 29.6-33.7 9.8 0 15.9 4.5 20.3 9.7V0h18.5v88.7h-18.5v-9.4c-4.5 6.1-10.7 10.6-20.3 10.6-15.1 0-29.6-11.9-29.6-33.6zm50.2 0V56c0-10.8-7.2-18-15.8-18s-15.9 7-15.9 18v.2c0 10.8 7.3 18 15.9 18s15.8-7.1 15.8-17.9zM557.5 56.5v-.2c0-18.6 13.2-33.9 32.2-33.9 21.7 0 31.7 16.9 31.7 35.4 0 1.5-.1 3.2-.2 4.9h-45.3c1.8 8.4 7.7 12.8 15.9 12.8 6.2 0 10.7-1.9 15.8-6.7l10.6 9.4c-6.1 7.5-14.8 12.2-26.6 12.2-19.6-.2-34.1-14-34.1-33.9zm46-5.5c-1.1-8.3-6-13.9-13.7-13.9-7.7 0-12.6 5.5-14.1 13.9h27.8z"/><g><path fill="#000" d="M0 3.7h85v85H0z"/><path d="M15.6 14.3h4.3L29 35.6h-4.9l-1.9-4.7h-8.9l-1.9 4.7H6.6l9-21.3zm4.9 12.4l-2.8-6.9-2.8 6.9h5.6zM27.8 25c0-6.2 4.6-11.1 11.2-11.1 4 0 6.5 1.3 8.5 3.3l-3 3.5c-1.7-1.5-3.3-2.4-5.5-2.4-3.6 0-6.2 3-6.2 6.7s2.5 6.7 6.2 6.7c2.5 0 4-1 5.6-2.5l3 3c-2.2 2.4-4.7 3.8-8.8 3.8-6.3.1-11-4.8-11-11M8 72.8h31.9v5.3H8z" fill="#FFF"/></g></svg>