<svg version="1.1" xmlns="http://www.w3.org/2000/svg" viewBox="0 0 548.3 90.2" xml:space="preserve"><path fill="#000" d="M0 3.7h85v85H0z"/><g fill="#FFF"><path d="M8.1 14.4h8.3C23 14.4 27.6 19 27.6 25S23 35.6 16.3 35.6H8.1V14.4zm4.6 4.3v12.8h3.6c3.8 0 6.4-2.6 6.4-6.3V25c0-3.8-2.6-6.4-6.4-6.4h-3.6zM29.5 14.4h8.7c5.1 0 8.1 3 8.1 7.4v.1c0 4.9-3.8 7.5-8.6 7.5h-3.6v6.4h-4.7V14.4zm8.4 10.7c2.3 0 3.7-1.4 3.7-3.2v-.1c0-2.1-1.5-3.2-3.8-3.2h-3.6v6.5h3.7z"/></g><path fill="#FFF" d="M8 72.8h31.9v5.3H8z"/><g><path d="M104.6 56.3V56c0-21.7 14.2-33.7 29.6-33.7 9.8 0 15.9 4.5 20.3 9.7V0H173v88.7h-18.5v-9.4c-4.5 6.1-10.7 10.6-20.3 10.6-15.1 0-29.6-11.9-29.6-33.6zm50.2 0V56c0-10.8-7.2-18-15.8-18s-15.9 7-15.9 18v.2c0 10.8 7.3 18 15.9 18s15.8-7.1 15.8-17.9zM175.2 56.5v-.2c0-18.7 15.1-33.9 35.4-33.9 20.2 0 35.1 14.9 35.1 33.7v.2c0 18.7-15.1 33.9-35.4 33.9-20.2 0-35.1-15-35.1-33.7zm52.2 0v-.2c0-9.6-6.9-18-17.1-18-10.6 0-16.9 8.1-16.9 17.7v.2c0 9.6 6.9 18 17.1 18 10.6 0 16.9-8.1 16.9-17.7zM250.9 70.2V39.4h-7.8V23.6h7.8V6.9h18.5v16.6h15.3v15.8h-15.3v27.8c0 4.3 1.8 6.3 6 6.3 3.4 0 6.4-.9 9.1-2.3V86c-3.9 2.3-8.4 3.8-14.6 3.8-11.4 0-19-4.5-19-19.6zM287.8 3.6h34.8c20.3 0 32.6 12 32.6 29.4v.2c0 19.7-15.3 29.9-34.4 29.9h-14.2v25.5h-18.7v-85zm33.6 42.9c9.4 0 14.8-5.6 14.8-12.9v-.2c0-8.4-5.8-12.9-15.2-12.9h-14.5v26h14.9z"/><path d="M353.3 56.5v-.2c0-18.6 13.2-33.9 32.2-33.9 21.7 0 31.7 16.9 31.7 35.4 0 1.5-.1 3.2-.2 4.9h-45.3c1.8 8.4 7.7 12.8 15.9 12.8 6.2 0 10.7-1.9 15.8-6.7l10.6 9.4c-6.1 7.5-14.8 12.2-26.6 12.2-19.6-.2-34.1-14-34.1-33.9zm45.9-5.5c-1.1-8.3-6-13.9-13.7-13.9-7.7 0-12.6 5.5-14.1 13.9h27.8zM419 56.5v-.2c0-18.6 13.2-33.9 32.2-33.9 21.7 0 31.7 16.9 31.7 35.4 0 1.5-.1 3.2-.2 4.9h-45.3c1.8 8.4 7.7 12.8 15.9 12.8 6.2 0 10.7-1.9 15.8-6.7l10.6 9.4c-6.1 7.5-14.8 12.2-26.6 12.2-19.6-.2-34.1-14-34.1-33.9zm46-5.5c-1.1-8.3-6-13.9-13.7-13.9-7.7 0-12.6 5.5-14.1 13.9H465zM485.3 0h18.5v47.3l21.6-23.7h22.1l-24.8 25.6 25.6 39.5h-21.4L510.3 62l-6.6 6.9v19.8h-18.5V0z"/></g></svg>