<svg version="1.1" xmlns="http://www.w3.org/2000/svg" x="0" y="0" width="869.6" height="108.2" viewBox="0 0 869.6 108.2" xml:space="preserve"><path fill="#000" d="M0 3.7h85v85H0z"/><path d="M106.1 3.6H145c10.8 0 19.2 3 24.8 8.6 4.7 4.7 7.3 11.4 7.3 19.5v.3c0 13.7-7.4 22.4-18.2 26.4l20.8 30.4h-21.9l-18.2-27.2h-14.7v27.2h-18.7l-.1-85.2zM143.8 45c9.1 0 14.4-4.9 14.4-12v-.2c0-8-5.6-12.2-14.7-12.2h-18.6V45h18.9z"/><path d="M175.7 56.5v-.2c0-18.6 13.3-33.9 32.2-33.9 21.8 0 31.7 16.9 31.7 35.4 0 1.5-.1 3.2-.2 4.9H194c1.8 8.4 7.7 12.8 15.9 12.8 6.2 0 10.7-1.9 15.8-6.7l10.6 9.4c-6.1 7.5-14.8 12.2-26.6 12.2-19.5-.2-34-13.9-34-33.9zm46-5.4c-1.1-8.3-6-13.9-13.7-13.9-7.7 0-12.6 5.5-14.1 13.9h27.8z"/><path d="M237.7 76.4l11.1-13.3c7.7 6.3 15.7 10.3 25.4 10.3 7.7 0 12.3-3 12.3-8v-.2c0-4.7-2.9-7.2-17.1-10.8-17.1-4.4-28.2-9.1-28.2-26v-.2c0-15.4 12.4-25.7 29.8-25.7 12.4 0 23 3.9 31.6 10.8l-9.7 14.1c-7.5-5.2-15-8.4-22.1-8.4-7.2 0-10.9 3.3-10.9 7.4v.2c0 5.6 3.6 7.4 18.4 11.2 17.3 4.5 27 10.7 27 25.5v.2c0 16.9-12.9 26.4-31.3 26.4-13.1.1-26.1-4.4-36.3-13.5zM307.4 0h18.5v32.8c4.3-5.5 9.7-10.5 19.1-10.5 14 0 22.1 9.2 22.1 24.2v42.2h-18.5V52.4c0-8.8-4.1-13.3-11.2-13.3s-11.6 4.5-11.6 13.3v36.4h-18.5l.1-88.8zM369.9 70v-.2c0-14.2 10.8-20.8 26.3-20.8 6.6 0 11.3 1.1 15.9 2.7v-1.1c0-7.7-4.7-11.9-14-11.9-7.1 0-12 1.3-18 3.5l-4.6-14.1c7.2-3.2 14.2-5.2 25.3-5.2 10.1 0 17.4 2.7 22 7.3 4.9 4.9 7.1 12 7.1 20.8v37.8H412v-7.1c-4.5 5-10.7 8.3-19.7 8.3-12.3 0-22.4-7.1-22.4-20zm42.4-4.2v-3.3c-3.2-1.5-7.3-2.4-11.8-2.4-7.9 0-12.8 3.2-12.8 9v.2c0 5 4.1 7.9 10.1 7.9 8.7 0 14.5-4.7 14.5-11.4zM433.1 23.6h18.5v13.1c3.8-9 9.9-14.8 20.8-14.4v19.3h-1c-12.3 0-19.8 7.4-19.8 23v24.1h-18.5V23.6zM475.7 23.6h18.5V33c4.5-6.1 10.7-10.6 20.3-10.6 15.2 0 29.7 11.9 29.7 33.7v.2c0 21.8-14.2 33.7-29.7 33.7-9.9 0-15.9-4.5-20.3-9.7v28h-18.5V23.6zm50 32.7v-.2c0-10.8-7.3-18-15.9-18-8.6 0-15.8 7.2-15.8 18v.2c0 10.8 7.2 18 15.8 18 8.6 0 15.9-7 15.9-18zM546.8 56.5v-.2c0-18.6 13.3-33.9 32.2-33.9 21.8 0 31.7 16.9 31.7 35.4 0 1.5-.1 3.2-.2 4.9h-45.4c1.8 8.4 7.7 12.8 15.9 12.8 6.2 0 10.7-1.9 15.8-6.7l10.6 9.4c-6.1 7.5-14.8 12.2-26.6 12.2-19.5-.2-34-13.9-34-33.9zm46-5.4c-1.1-8.3-6-13.9-13.7-13.9-7.7 0-12.6 5.5-14.1 13.9h27.8zM613.7 23.6h18.5v13.1c3.8-9 9.9-14.8 20.8-14.4v19.3h-1c-12.3 0-19.8 7.4-19.8 23v24.1h-18.5V23.6z"/><path fill="#FFF" d="M8 72.8h31.9v5.3H8z"/><g><path d="M39.2 20.9h-4.8v-4.3h4.8v-4.8h4.4v4.8h4.8v4.3h-4.8v4.8h-4.4v-4.8z" fill="#FFF"/></g><g><path d="M31.4 33h-4.8v-4.3h4.8v-4.8h4.4v4.8h4.8V33h-4.8v4.8h-4.4V33z" fill="#FFF"/></g><path d="M8 14.3h9.7c2.7 0 4.8.7 6.2 2.2 1.2 1.2 1.8 2.8 1.8 4.9v.1c0 1.7-.4 3.1-1.3 4.2-.8 1.1-1.9 1.9-3.3 2.4l5.2 7.6h-5.5L16.5 29h-3.9v6.5H8V14.3zm9.4 10.3c1.2 0 2-.3 2.7-.8.6-.5.9-1.3.9-2.2v-.1c0-1-.3-1.8-1-2.3-.6-.5-1.5-.8-2.7-.8h-4.6v6.1h4.7z" fill="#FFF"/><g><path d="M668.5 46.4v-.2c0-24.2 18.2-44 44.3-44 16 0 25.6 5.3 33.5 13.1L734.5 29c-6.6-6-13.2-9.6-21.7-9.6-14.3 0-24.7 11.9-24.7 26.5v.2c0 14.6 10.1 26.7 24.7 26.7 9.7 0 15.7-3.9 22.4-10L747 75c-8.7 9.4-18.5 15.2-34.9 15.2-25 0-43.6-19.4-43.6-43.8z"/><path d="M764.8 54.3h-22V37.5h22V15.7H782v21.9h22v16.8h-22v21.9h-17.3v-22zM830.4 54.3h-22V37.5h22V15.7h17.3v21.9h22v16.8h-22v21.9h-17.3v-22z"/></g></svg>