<?xml version="1.0" encoding="utf-8"?>
<!-- Generator: Adobe Illustrator 21.0.2, SVG Export Plug-In . SVG Version: 6.00 Build 0)  -->
<svg version="1.1" id="Layer_1" xmlns="http://www.w3.org/2000/svg" xmlns:xlink="http://www.w3.org/1999/xlink" x="0px" y="0px"
	 viewBox="0 0 877 149" style="enable-background:new 0 0 877 149;" xml:space="preserve">
<style type="text/css">
	.st0{fill:#FFFFFF;}
</style>
<path d="M0,26.8h85v85H0V26.8z"/>
<path class="st0" d="M7.9,95.9h31.9v5.3H7.9V95.9z"/>
<path d="M111.8,26.6h38.8c10.8,0,19.1,3,24.7,8.6c4.7,4.7,7.3,11.4,7.3,19.4v0.2c0,13.7-7.4,22.3-18.2,26.3l20.7,30.3h-21.8
	l-18.2-27.1h-14.7v27.1h-18.7L111.8,26.6L111.8,26.6z M149.3,67.8c9.1,0,14.3-4.8,14.3-12v-0.2c0-8-5.6-12.1-14.7-12.1h-18.5v24.4
	L149.3,67.8L149.3,67.8z M186.7,23h19.4v16.4h-19.4V23z M187.2,46.5h18.4v65h-18.4V46.5z M208.9,79.1v-0.2
	c0-21.7,14.2-33.6,29.6-33.6c9.8,0,15.9,4.5,20.2,9.7V23h18.4v88.5h-18.4v-9.3c-4.5,6.1-10.7,10.5-20.2,10.5
	C223.3,112.7,208.9,100.8,208.9,79.1L208.9,79.1z M258.9,79.1v-0.2c0-10.8-7.2-17.9-15.8-17.9s-15.9,7-15.9,17.9v0.2
	c0,10.8,7.3,17.9,15.9,17.9C251.8,97.1,258.9,89.9,258.9,79.1z M279.3,79.4v-0.2c0-18.5,13.2-33.8,32.1-33.8
	c21.7,0,31.6,16.8,31.6,35.3c0,1.5-0.1,3.2-0.2,4.8h-45.2c1.8,8.4,7.6,12.7,15.9,12.7c6.2,0,10.7-1.9,15.8-6.7l10.5,9.3
	c-6.1,7.5-14.8,12.1-26.5,12.1C293.7,112.9,279.3,99.2,279.3,79.4L279.3,79.4z M325.1,73.9c-1.1-8.2-5.9-13.8-13.7-13.8
	c-7.6,0-12.6,5.5-14.1,13.8H325.1L325.1,73.9z M345.6,46.5H364v13.1c3.8-9,9.8-14.8,20.7-14.3v19.3h-1c-12.2,0-19.8,7.4-19.8,22.9
	v24h-18.4L345.6,46.5L345.6,46.5z"/>
<g>
	<path class="st0" d="M7.9,37h9.7c2.7,0,4.8,0.8,6.2,2.2c1.2,1.2,1.8,2.9,1.8,4.9v0.1c0,3.4-1.9,5.6-4.6,6.6l5.2,7.6h-5.5l-4.6-6.8
		h-3.7v6.8H7.9V37z M17.3,47.3c2.3,0,3.6-1.2,3.6-3v-0.1c0-2-1.4-3-3.7-3h-4.6v6.1H17.3z M28.8,37h8.3c6.7,0,11.3,4.6,11.3,10.6v0.1
		c0,6-4.6,10.6-11.3,10.6h-8.3V37z M33.5,41.2V54h3.6c3.8,0,6.4-2.6,6.4-6.3v-0.1c0-3.8-2.6-6.4-6.4-6.4H33.5z"/>
</g>
<g>
	<path d="M596,116.7l-25.9-43.6L596,29.4l12.5,43.6L596,116.7z M538.3,112.5l-32.6-32.3h51.8l25.9,43.6L538.3,112.5z M538.3,33.6
		l45.1-11.3L557.5,66h-51.8L538.3,33.6z M604.5,0.9l-59,15.4l-8.7,15l-17.7-0.1l-43.2,42l43.2,42l17.7-0.1l8.7,15l59,15.4l15.8-57.3
		l-9-14.8l9-14.8L604.5,0.9z"/>
	<g>
		<path d="M738.3,43.4c-7.9,0-13.2,3.3-17.1,9.5h-0.3V45h-13.8v57.8h14.1V70c0-7.9,5-13.3,11.7-13.3c6.4,0,11.2,3.8,11.2,10.6v35.5
			h14.1V65C758.2,52.4,750.2,43.4,738.3,43.4"/>
		<path d="M685.6,78.3c0,7.7-4.4,13.1-11.6,13.1c-6.5,0-10.6-3.7-10.6-10.5V45h-14.1v38.5c0,12.6,7.2,20.8,20,20.8
			c8.1,0,12.6-3,16.5-8.3h0.3v6.8h13.6V45h-14.1V78.3z"/>
	</g>
	<rect x="765.6" y="45" width="14.1" height="57.8"/>
	<rect x="765.6" y="27" width="14.1" height="11.6"/>
	<g>
		<path d="M859.6,45l-8.4,26c-1.8,5.3-3.4,12.6-3.4,12.6h-0.4c0,0-1.9-7.3-3.7-12.6l-9.5-26h-15.1l15.5,41.1
			c3.3,8.8,4.4,12.5,4.4,15.6c0,4.7-2.5,7.9-8.6,7.9h-5.4v12h9c11.7,0,15.8-4.6,20.2-17.4L874.7,45H859.6z"/>
		<path d="M806.1,85.7V55.1h9V45h-9V27h-14v18h-8v10.1h8V89c0,10.9,8.2,13.8,15.6,13.8c6.1,0,7.7-0.2,7.7-0.2V91.5c0,0-1.7,0-3.6,0
			C808.5,91.5,806.1,90,806.1,85.7"/>
	</g>
</g>
</svg>
