<svg id="Logo" xmlns="http://www.w3.org/2000/svg" viewBox="0 0 800 127.52">
    <g>
        <g>
            <path d="M197.84,215.81v-0.34c0-30.76,20.11-47.6,41.93-47.6,13.92,0,22.51,6.36,28.7,13.75V136.24H294.6V261.7H268.47V248.46c-6.36,8.59-15.12,15-28.7,15C218.29,263.42,197.84,246.57,197.84,215.81Zm71,0v-0.34c0-15.3-10.14-25.43-22.34-25.43S224,200,224,215.47v0.34c0,15.3,10.31,25.43,22.51,25.43S268.82,231.11,268.82,215.81Z" transform="translate(-50 -136.24)"/>
            <path d="M299.06,216.15v-0.34c0-26.47,21.31-47.95,50-47.95,28.53,0,49.67,21.14,49.67,47.6v0.34c0,26.47-21.31,47.95-50,47.95C320.19,263.76,299.06,242.62,299.06,216.15Zm73.9,0v-0.34c0-13.58-9.8-25.43-24.23-25.43-15,0-23.89,11.51-23.89,25.09v0.34c0,13.58,9.8,25.43,24.23,25.43C364,241.25,373,229.73,373,216.15Z" transform="translate(-50 -136.24)"/>
            <path d="M407.49,235.57V191.92h-11V169.58h11V146h26.12v23.54h21.65v22.34H433.61v39.36c0,6,2.58,8.94,8.42,8.94a26.56,26.56,0,0,0,12.89-3.27v21c-5.5,3.27-11.86,5.33-20.62,5.33C418.32,263.24,407.49,256.88,407.49,235.57Z" transform="translate(-50 -136.24)"/>
            <path d="M485,165.8H448.39V141.4h99.68v24.4H511.46v95.9H485V165.8Z" transform="translate(-50 -136.24)"/>
            <path d="M538.61,169.58h26.12v18.56c5.33-12.72,13.92-21,29.39-20.28v27.33h-1.37c-17.36,0-28,10.48-28,32.48v34H538.61V169.58Z" transform="translate(-50 -136.24)"/>
            <path d="M589.65,235.23v-0.34c0-20.11,15.3-29.39,37.12-29.39a65.46,65.46,0,0,1,22.51,3.78v-1.55c0-10.83-6.7-16.84-19.76-16.84-10,0-17,1.89-25.43,5l-6.53-19.94c10.14-4.47,20.11-7.39,35.75-7.39,14.26,0,24.58,3.78,31.11,10.31,6.87,6.87,10,17,10,29.39V261.7H649.11v-10c-6.36,7-15.12,11.69-27.84,11.69C603.91,263.42,589.65,253.45,589.65,235.23Zm60-6v-4.64A40.5,40.5,0,0,0,633,221.14c-11.17,0-18,4.47-18,12.72v0.34c0,7,5.84,11.17,14.26,11.17C641.38,245.37,649.62,238.67,649.62,229.22Z" transform="translate(-50 -136.24)"/>
            <path d="M678.49,216.15v-0.34c0-26.29,20.11-47.95,48.29-47.95,17.36,0,28.18,5.84,36.78,15.47l-16,17.19c-5.84-6.19-11.69-10.14-21-10.14-13.06,0-22.34,11.51-22.34,25.09v0.34c0,14.09,9.11,25.43,23.37,25.43,8.77,0,14.78-3.78,21.14-9.8l15.3,15.47c-8.94,9.8-19.25,16.84-37.64,16.84C698.77,263.76,678.49,242.45,678.49,216.15Z" transform="translate(-50 -136.24)"/>
            <path d="M759.6,216.15v-0.34c0-26.29,18.73-47.95,45.54-47.95,30.76,0,44.85,23.89,44.85,50,0,2.06-.17,4.47-0.34,6.87h-64.1c2.58,11.86,10.83,18,22.51,18,8.76,0,15.12-2.75,22.34-9.45l15,13.23c-8.59,10.65-21,17.19-37.64,17.19C780.05,263.76,759.6,244.34,759.6,216.15Zm65-7.73c-1.55-11.69-8.42-19.59-19.42-19.59-10.83,0-17.87,7.73-19.94,19.59h39.35Z" transform="translate(-50 -136.24)"/>
        </g>
        <g>
            <rect y="5.17" width="120.28" height="120.28"/>
            <rect x="11.28" y="103.76" width="45.1" height="7.52" fill="#fff"/>
            <path d="M61.26,157.3H73c9.48,0,16,6.51,16,15v0.09c0,8.49-6.55,15.08-16,15.08H61.26V157.3Zm6.64,6v18.18H73c5.43,0,9.1-3.66,9.1-9v-0.09a8.67,8.67,0,0,0-9.1-9.09H67.9Z" transform="translate(-50 -136.24)" fill="#fff"/>
            <polygon points="51.12 27.18 41.94 27.18 41.94 21.06 66.93 21.06 66.93 27.18 57.75 27.18 57.75 51.23 51.12 51.23 51.12 27.18" fill="#fff"/>
        </g>
    </g>
</svg>