<svg version="1.1" xmlns="http://www.w3.org/2000/svg" x="0" y="0" width="589" height="90.2" viewBox="0 0 589 90.2" xml:space="preserve"><path d="M136.2 55.2L103.5 3.6h21.9l20.3 34.1 20.7-34.1h21.3L155 54.8v33.9h-18.7V55.2z"/><path d="M166.4 56.5v-.2c0-18.7 15.1-33.9 35.4-33.9 20.2 0 35.1 14.9 35.1 33.7v.2c0 18.7-15.1 33.9-35.4 33.9-20.1 0-35.1-15-35.1-33.7zm52.3 0v-.2c0-9.6-6.9-18-17.1-18-10.6 0-16.9 8.1-16.9 17.7v.2c0 9.6 6.9 18 17.1 18 10.6 0 16.9-8.1 16.9-17.7zM239.6 65.7V23.6H258v36.3c0 8.7 4.1 13.2 11.2 13.2 7 0 11.5-4.5 11.5-13.2V23.6h18.5v65.1h-18.5v-9.2c-4.3 5.5-9.7 10.4-19.1 10.4-13.9 0-22-9.2-22-24.2zM325.3 20.9h-25.9V3.6h70.5v17.3H344v67.8h-18.7V20.9z"/><path d="M365.9 23.6h18.5v13.1c3.8-9 9.8-14.8 20.8-14.3v19.3h-1c-12.3 0-19.8 7.4-19.8 23v24.1h-18.5V23.6z"/><path d="M401.2 70v-.2c0-14.2 10.8-20.8 26.2-20.8 6.6 0 11.3 1.1 15.9 2.7v-1.1c0-7.7-4.7-11.9-14-11.9-7 0-12 1.3-18 3.5l-4.6-14.1c7.2-3.2 14.2-5.2 25.3-5.2 10.1 0 17.4 2.7 22 7.3 4.9 4.9 7 12 7 20.8v37.8h-17.9v-7c-4.5 5-10.7 8.3-19.7 8.3-12.2-.2-22.2-7.2-22.2-20.1zm42.4-4.3v-3.3c-3.2-1.5-7.3-2.4-11.8-2.4-7.9 0-12.8 3.2-12.8 9v.2c0 5 4.1 7.9 10.1 7.9 8.6.1 14.5-4.7 14.5-11.4zM463.6 56.5v-.2c0-18.6 14.2-33.9 34.1-33.9 12.3 0 19.9 4.1 26 10.9l-11.3 12.2c-4.1-4.4-8.3-7.2-14.8-7.2-9.2 0-15.8 8.1-15.8 17.7v.2c0 10 6.4 18 16.5 18 6.2 0 10.5-2.7 14.9-6.9L524 78.2c-6.3 6.9-13.6 11.9-26.6 11.9-19.5.1-33.8-15-33.8-33.6zM525.9 0h18.5v47.3L566 23.6h22.1l-24.8 25.6L589 88.7h-21.4L551 62l-6.6 6.9v19.8h-18.5V0z"/><g><path fill="#000" d="M0 3.7h85v85H0z"/><path fill="#FFF" d="M8 72.8h31.9v5.3H8z"/><g fill="#FFF"><path d="M15.3 27.2L7.2 14.3h5.4l5.1 8.5 5.1-8.5h5.3L20 27.1v8.4h-4.7M36.9 18.6h-6.4v-4.3H48v4.3h-6.4v16.9h-4.7"/></g></g></svg>