<svg version="1.1" xmlns="http://www.w3.org/2000/svg" x="0" y="0" width="724.6" height="108.5" viewBox="0 0 724.6 108.5" xml:space="preserve"><path fill="#000" d="M0 3.6h85v85H0z"/><path d="M8 14.2h8.2c6.7 0 11.3 4.6 11.3 10.6v.1c0 6-4.6 10.6-11.3 10.6H8V14.2zm4.6 4.2v12.8h3.5c3.8 0 6.4-2.6 6.4-6.3v-.1c0-3.8-2.6-6.4-6.4-6.4h-3.5zM28.7 14.2h5l5.6 9 5.5-9h5.1v21.2h-4.7V21.6l-5.9 9h-.1l-5.9-8.9v13.7h-4.6M8 72.7h32V78H8z" fill="#FFF"/><g><path d="M104.6 56.3V56c0-21.7 14.2-33.7 29.6-33.7 9.8 0 15.9 4.5 20.3 9.7V0H173v88.7h-18.5v-9.4c-4.5 6.1-10.7 10.6-20.3 10.6-15.1 0-29.6-11.9-29.6-33.6zm50.2 0V56c0-10.8-7.2-18-15.8-18s-15.9 7-15.9 18v.2c0 10.8 7.3 18 15.9 18s15.8-7.1 15.8-17.9zM175.2 56.5v-.2c0-18.7 15.1-33.9 35.4-33.9 20.2 0 35.1 14.9 35.1 33.7v.2c0 18.7-15.1 33.9-35.4 33.9-20.2 0-35.1-15-35.1-33.7zm52.2 0v-.2c0-9.6-6.9-18-17.1-18-10.6 0-16.9 8.1-16.9 17.7v.2c0 9.6 6.9 18 17.1 18 10.6 0 16.9-8.1 16.9-17.7zM250.9 70.2V39.4h-7.8V23.6h7.8V6.9h18.5v16.6h15.3v15.8h-15.3v27.8c0 4.3 1.8 6.3 6 6.3 3.4 0 6.4-.9 9.1-2.3V86c-3.9 2.3-8.4 3.8-14.6 3.8-11.4 0-19-4.5-19-19.6zM288.3 3.6h20.2l22.4 36 22.4-36h20.2v85.1h-18.6V33.2L331 69.5h-.5l-23.7-36v55.2h-18.3V3.6zM375.9 56.5v-.2c0-18.6 13.2-33.9 32.2-33.9 21.7 0 31.7 16.9 31.7 35.4 0 1.5-.1 3.2-.2 4.9h-45.3c1.8 8.4 7.7 12.8 15.9 12.8 6.2 0 10.7-1.9 15.8-6.7l10.6 9.4c-6.1 7.5-14.8 12.2-26.6 12.2-19.6-.2-34.1-14-34.1-33.9zm45.9-5.5c-1.1-8.3-6-13.9-13.7-13.9-7.7 0-12.6 5.5-14.1 13.9h27.8zM442.1 23.6h18.5v9.2c4.3-5.5 9.8-10.5 19.2-10.5 8.5 0 14.9 3.8 18.3 10.3 5.7-6.7 12.5-10.3 21.4-10.3 13.7 0 22 8.3 22 23.9v42.4H523V52.4c0-8.7-3.9-13.2-10.8-13.2S501 43.7 501 52.4v36.3h-18.5V52.4c0-8.7-3.9-13.2-10.8-13.2s-11.2 4.5-11.2 13.2v36.3H442V23.6zM543 56.5v-.2c0-18.7 15.1-33.9 35.4-33.9 20.2 0 35.1 14.9 35.1 33.7v.2c0 18.7-15.1 33.9-35.4 33.9-20.2 0-35.1-15-35.1-33.7zm52.2 0v-.2c0-9.6-6.9-18-17.1-18-10.6 0-16.9 8.1-16.9 17.7v.2c0 9.6 6.9 18 17.1 18 10.6 0 16.9-8.1 16.9-17.7zM615.6 23.6h18.5v13.1c3.8-9 9.8-14.8 20.8-14.3v19.3h-1c-12.3 0-19.8 7.4-19.8 23v24.1h-18.5V23.6zM705.4 23.6h19.2l-25 66.7c-5 13.2-10.3 18.2-21.4 18.2-6.7 0-11.7-1.7-16.4-4.5l6.2-13.4c2.4 1.5 5.5 2.6 7.9 2.6 3.2 0 4.9-1 6.4-4.3l-25.5-65.4h19.6l14.8 44.3 14.2-44.2z"/></g></svg>