<svg version="1.1" xmlns="http://www.w3.org/2000/svg" x="0" y="0" width="752.3" height="54.2" viewBox="0 0 752.3 54.2" xml:space="preserve"><path d="M53.1 1.8h10.1l11.2 18 11.2-18h10.1v42.5h-9.3V16.6l-12 18.2h-.2l-11.8-18v27.6h-9.2V1.8zM96.6 28.2v-.1c0-9.3 6.6-16.9 16.1-16.9 10.9 0 15.9 8.4 15.9 17.7 0 .7-.1 1.6-.1 2.4h-22.7c.9 4.2 3.8 6.4 8 6.4 3.1 0 5.3-1 7.9-3.3l5.3 4.7c-3 3.8-7.4 6.1-13.3 6.1-9.9-.1-17.1-7-17.1-17zm22.9-2.7c-.5-4.1-3-6.9-6.9-6.9-3.8 0-6.3 2.7-7 6.9h13.9z"/><path d="M131.4 35.1V19.7h-3.9v-7.9h3.9V3.5h9.2v8.3h7.7v7.9h-7.7v13.9c0 2.1.9 3.2 3 3.2 1.7 0 3.2-.4 4.6-1.2V43c-1.9 1.2-4.2 1.9-7.3 1.9-5.7 0-9.5-2.3-9.5-9.8zM149 35v-.1c0-7.1 5.4-10.4 13.1-10.4 3.3 0 5.6.5 8 1.3v-.5c0-3.8-2.4-6-7-6-3.5 0-6 .7-9 1.8l-2.3-7c3.6-1.6 7.1-2.6 12.6-2.6 5 0 8.7 1.3 11 3.6 2.4 2.4 3.5 6 3.5 10.4v18.9H170v-3.5c-2.2 2.5-5.3 4.1-9.8 4.1-6.2 0-11.2-3.6-11.2-10zm21.2-2.1v-1.6c-1.6-.7-3.6-1.2-5.9-1.2-3.9 0-6.4 1.6-6.4 4.5v.1c0 2.5 2.1 3.9 5 3.9 4.3 0 7.3-2.4 7.3-5.7zM194.7 1.8h17.4c10.1 0 16.3 6 16.3 14.7v.1c0 9.8-7.7 14.9-17.2 14.9H204v12.8h-9.4V1.8zm16.8 21.5c4.7 0 7.4-2.8 7.4-6.4v-.1c0-4.2-2.9-6.4-7.6-6.4H204v13h7.5zM229.3 11.8h9.2v6.6c1.9-4.5 4.9-7.4 10.4-7.2v9.7h-.5c-6.1 0-9.9 3.7-9.9 11.5v12h-9.2V11.8zM248.2 28.2v-.1c0-9.4 7.5-16.9 17.7-16.9 10.1 0 17.6 7.5 17.6 16.8v.1c0 9.4-7.5 16.9-17.7 16.9-10.2.1-17.6-7.4-17.6-16.8zm26.1 0v-.1c0-4.8-3.5-9-8.6-9-5.3 0-8.4 4.1-8.4 8.9v.1c0 4.8 3.5 9 8.6 9 5.2 0 8.4-4.1 8.4-8.9zM285.8 50.8l3.2-6.9c3.3 1.9 6.7 3 11 3 6.3 0 9.3-3 9.3-8.9v-1.6c-2.7 3.3-5.7 5.3-10.6 5.3-7.6 0-14.5-5.5-14.5-15.2v-.1c0-9.7 7-15.2 14.5-15.2 5 0 8 2.1 10.5 4.9v-4.3h9.2V37c0 5.8-1.4 10.1-4.1 12.8-3 3-7.7 4.4-14 4.4-5.4 0-10.4-1.2-14.5-3.4zm23.5-24.3v-.1c0-4.4-3.5-7.5-8-7.5s-7.9 3.1-7.9 7.5v.1c0 4.5 3.4 7.5 7.9 7.5s8-3.1 8-7.5zM320.3 11.8h9.2v6.6c1.9-4.5 4.9-7.4 10.4-7.2v9.7h-.5c-6.1 0-9.9 3.7-9.9 11.5v12h-9.2V11.8z"/><path d="M337.9 35v-.1c0-7.1 5.4-10.4 13.1-10.4 3.3 0 5.6.5 8 1.3v-.5c0-3.8-2.4-6-7-6-3.5 0-6 .7-9 1.8l-2.3-7c3.6-1.6 7.1-2.6 12.6-2.6 5 0 8.7 1.3 11 3.6 2.4 2.4 3.5 6 3.5 10.4v18.9H359v-3.5c-2.2 2.5-5.3 4.1-9.8 4.1-6.2 0-11.3-3.6-11.3-10zm21.2-2.1v-1.6c-1.6-.7-3.6-1.2-5.9-1.2-3.9 0-6.4 1.6-6.4 4.5v.1c0 2.5 2.1 3.9 5 3.9 4.4 0 7.3-2.4 7.3-5.7zM369.7 11.8h9.2v4.6c2.1-2.7 4.9-5.2 9.6-5.2 4.3 0 7.5 1.9 9.2 5.2 2.9-3.3 6.3-5.2 10.7-5.2 6.9 0 11 4.1 11 12v21.2h-9.2V26.2c0-4.4-1.9-6.6-5.4-6.6s-5.6 2.2-5.6 6.6v18.2H390V26.2c0-4.4-1.9-6.6-5.4-6.6-3.5 0-5.6 2.2-5.6 6.6v18.2h-9.2V11.8zM421.2 11.8h9.2v4.6c2.1-2.7 4.9-5.2 9.6-5.2 4.3 0 7.5 1.9 9.2 5.2 2.9-3.3 6.3-5.2 10.7-5.2 6.9 0 11 4.1 11 12v21.2h-9.2V26.2c0-4.4-1.9-6.6-5.4-6.6s-5.6 2.2-5.6 6.6v18.2h-9.2V26.2c0-4.4-1.9-6.6-5.4-6.6-3.5 0-5.6 2.2-5.6 6.6v18.2h-9.2V11.8zM472.9 0h9.7v8.2h-9.7V0zm.2 11.8h9.2v32.6h-9.2V11.8zM484.8 11.8h9.2v4.6c2.1-2.7 4.9-5.2 9.5-5.2 7 0 11.1 4.6 11.1 12.1v21.1h-9.2V26.2c0-4.4-2.1-6.6-5.6-6.6s-5.8 2.2-5.8 6.6v18.2h-9.2V11.8zM517.5 50.8l3.2-6.9c3.3 1.9 6.7 3 11 3 6.3 0 9.3-3 9.3-8.9v-1.6c-2.7 3.3-5.7 5.3-10.6 5.3-7.6 0-14.5-5.5-14.5-15.2v-.1c0-9.7 7-15.2 14.5-15.2 5 0 8 2.1 10.5 4.9v-4.3h9.2V37c0 5.8-1.4 10.1-4.1 12.8-3 3-7.7 4.4-14 4.4-5.4 0-10.4-1.2-14.5-3.4zM541 26.5v-.1c0-4.4-3.5-7.5-8-7.5s-7.9 3.1-7.9 7.5v.1c0 4.5 3.4 7.5 7.9 7.5s8-3.1 8-7.5zM562.2 38.1l5.5-6.6c3.8 3.2 7.8 5.2 12.7 5.2 3.8 0 6.1-1.5 6.1-4v-.1c0-2.4-1.5-3.6-8.6-5.4-8.6-2.2-14.1-4.6-14.1-13V14c0-7.7 6.2-12.8 14.9-12.8 6.2 0 11.5 1.9 15.8 5.4l-4.9 7c-3.8-2.6-7.5-4.2-11.1-4.2S573 11 573 13.1v.1c0 2.8 1.8 3.7 9.2 5.6 8.6 2.2 13.5 5.3 13.5 12.8v.1c0 8.4-6.4 13.2-15.6 13.2-6.3.1-12.8-2.2-17.9-6.8z"/><path d="M616.3 11.8h9.6l-12.5 33.3c-2.5 6.6-5.2 9.1-10.7 9.1-3.3 0-5.8-.9-8.2-2.2l3.1-6.7c1.2.7 2.7 1.3 3.9 1.3 1.6 0 2.4-.5 3.2-2.1L592 11.8h9.8l7.4 22.2 7.1-22.2zM622.3 40l3.9-6.1c3.5 2.6 7.2 3.9 10.3 3.9 2.7 0 3.9-1 3.9-2.4v-.1c0-2-3.2-2.7-6.7-3.8-4.6-1.3-9.7-3.5-9.7-9.8v-.1c0-6.6 5.3-10.3 11.9-10.3 4.1 0 8.6 1.4 12.1 3.8l-3.5 6.4c-3.2-1.9-6.4-3-8.8-3-2.2 0-3.4 1-3.4 2.2v.1c0 1.8 3.1 2.7 6.6 3.9 4.6 1.5 9.8 3.7 9.8 9.7v.1c0 7.2-5.4 10.5-12.5 10.5-4.5 0-9.6-1.6-13.9-5zM652.6 35.1V19.7h-3.9v-7.9h3.9V3.5h9.2v8.3h7.7v7.9h-7.7v13.9c0 2.1.9 3.2 3 3.2 1.7 0 3.2-.4 4.6-1.2V43c-1.9 1.2-4.2 1.9-7.3 1.9-5.7 0-9.5-2.3-9.5-9.8z"/><path d="M669.3 28.2v-.1c0-9.3 6.6-16.9 16.1-16.9 10.9 0 15.9 8.4 15.9 17.7 0 .7-.1 1.6-.1 2.4h-22.7c.9 4.2 3.8 6.4 8 6.4 3.1 0 5.3-1 7.9-3.3l5.3 4.7c-3 3.8-7.4 6.1-13.3 6.1-9.9-.1-17.1-7-17.1-17zm22.9-2.7c-.5-4.1-3-6.9-6.9-6.9-3.8 0-6.3 2.7-7 6.9h13.9zM702.6 11.8h9.2v4.6c2.1-2.7 4.9-5.2 9.6-5.2 4.3 0 7.5 1.9 9.2 5.2 2.9-3.3 6.3-5.2 10.7-5.2 6.9 0 11 4.1 11 12v21.2h-9.2V26.2c0-4.4-1.9-6.6-5.4-6.6s-5.6 2.2-5.6 6.6v18.2h-9.2V26.2c0-4.4-1.9-6.6-5.4-6.6-3.5 0-5.6 2.2-5.6 6.6v18.2h-9.2V11.8z"/><g><path fill="#000" d="M0 1.8h42.5v42.5H0z"/><path fill="#FFF" d="M4 36.4h15.9v2.7H4zM3.9 7.2h3l3.4 5.4 3.3-5.4h3.1V20h-2.8v-8.3l-3.6 5.4h-.1l-3.5-5.4V20H3.9M18.1 7.2h5.2c3 0 4.9 1.8 4.9 4.4 0 2.9-2.3 4.5-5.1 4.5H21v3.8h-2.8l-.1-12.7zm5 6.5c1.4 0 2.2-.8 2.2-1.9 0-1.3-.9-1.9-2.3-1.9h-2.2v3.9l2.3-.1zM28.9 18.1l1.7-2c1.1.9 2.3 1.5 3.8 1.5 1.1 0 1.8-.5 1.8-1.2s-.4-1.1-2.6-1.6c-2.6-.7-4.2-1.4-4.2-3.9 0-2.3 1.9-3.8 4.5-3.8 1.9 0 3.4.6 4.7 1.6l-1.5 2.1c-1.1-.8-2.2-1.3-3.3-1.3-1.1 0-1.6.5-1.6 1.1 0 .8.5 1.1 2.7 1.7 2.6.7 4 1.6 4 3.8 0 2.5-1.9 3.9-4.7 3.9-1.8.2-3.8-.5-5.3-1.9"/></g></svg>